<svg width="16" height="16" viewBox="0 0 16 16" fill="none" xmlns="http://www.w3.org/2000/svg">
<path d="M4.78585 9.102C5.22637 9.102 5.58349 8.74952 5.58349 8.31472C5.58349 7.87991 5.22637 7.52743 4.78585 7.52743C4.34532 7.52743 3.98821 7.87991 3.98821 8.31472C3.98821 8.74952 4.34532 9.102 4.78585 9.102Z" fill="#79655E"/>
<path d="M8.77405 8.31472C8.77405 8.74952 8.41694 9.102 7.97641 9.102C7.53589 9.102 7.17877 8.74952 7.17877 8.31472C7.17877 7.87991 7.53589 7.52743 7.97641 7.52743C8.41694 7.52743 8.77405 7.87991 8.77405 8.31472Z" fill="#79655E"/>
<path d="M11.167 9.102C11.6075 9.102 11.9646 8.74952 11.9646 8.31472C11.9646 7.87991 11.6075 7.52743 11.167 7.52743C10.7264 7.52743 10.3693 7.87991 10.3693 8.31472C10.3693 8.74952 10.7264 9.102 11.167 9.102Z" fill="#79655E"/>
<path d="M5.58349 11.4638C5.58349 11.8986 5.22637 12.2511 4.78585 12.2511C4.34532 12.2511 3.98821 11.8986 3.98821 11.4638C3.98821 11.029 4.34532 10.6766 4.78585 10.6766C5.22637 10.6766 5.58349 11.029 5.58349 11.4638Z" fill="#79655E"/>
<path d="M7.97641 12.2511C8.41694 12.2511 8.77405 11.8986 8.77405 11.4638C8.77405 11.029 8.41694 10.6766 7.97641 10.6766C7.53589 10.6766 7.17877 11.029 7.17877 11.4638C7.17877 11.8986 7.53589 12.2511 7.97641 12.2511Z" fill="#79655E"/>
<path fill-rule="evenodd" clip-rule="evenodd" d="M4.78585 1.22918C4.78585 0.794373 4.42873 0.441895 3.98821 0.441895C3.54768 0.441895 3.19056 0.794373 3.19056 1.22918H1.59528C0.714232 1.22918 0 1.93413 0 2.80374V13.8257C0 14.6953 0.714233 15.4003 1.59528 15.4003H14.3575C15.2386 15.4003 15.9528 14.6953 15.9528 13.8257V2.80374C15.9528 1.93413 15.2386 1.22918 14.3575 1.22918H12.7623C12.7623 0.794373 12.4051 0.441895 11.9646 0.441895C11.5241 0.441895 11.167 0.794373 11.167 1.22918H4.78585ZM1.59528 4.3783V2.80374H14.3575V4.3783H1.59528ZM1.59528 5.95287V13.8257H9.70857L14.3575 9.2371V5.95287H1.59528ZM14.3575 11.4639L11.9646 13.8257H14.3575V11.4639Z" fill="#79655E"/>
</svg>
