<svg width="15" height="17" viewBox="0 0 15 17" fill="none" xmlns="http://www.w3.org/2000/svg">
<path d="M1.66667 16.5H0V15.6579C0.00367386 12.4039 2.6132 9.76687 5.83333 9.76316H9.16667C12.3868 9.76687 14.9963 12.4039 15 15.6579V16.5H13.3333V15.6579C13.3306 13.3336 11.4667 11.4502 9.16667 11.4474H5.83333C3.53329 11.4502 1.66942 13.3336 1.66667 15.6579V16.5ZM7.5 8.92105C5.19881 8.92105 3.33333 7.03594 3.33333 4.71053C3.33333 2.38512 5.19881 0.5 7.5 0.5C9.80119 0.5 11.6667 2.38512 11.6667 4.71053C11.6639 7.03478 9.80004 8.91827 7.5 8.92105ZM7.5 2.18421C6.11929 2.18421 5 3.31528 5 4.71053C5 6.10577 6.11929 7.23684 7.5 7.23684C8.88071 7.23684 10 6.10577 10 4.71053C10 3.31528 8.88071 2.18421 7.5 2.18421Z" fill="#79655E"/>
</svg>
