<svg width="280" height="205" viewBox="0 0 280 205" fill="none" xmlns="http://www.w3.org/2000/svg">
<path fill-rule="evenodd" clip-rule="evenodd" d="M98.0816 26H30.5C13.6553 26 0 39.6553 0 56.5C0 73.3447 13.6553 87 30.5 87H98.0816V86H30.5C14.2076 86 1 72.7924 1 56.5C1 40.2076 14.2076 27 30.5 27H98.0816V26ZM183.531 86H249.5C265.792 86 279 72.7924 279 56.5C279 40.2076 265.792 27 249.5 27H183.531V26H249.5C266.345 26 280 39.6553 280 56.5C280 73.3447 266.345 87 249.5 87H183.531V86Z" fill="white"/>
<path d="M140.267 0L137.885 5.89603L135.58 11.7921C137.232 15.9318 138.692 19.5196 140.325 23.5841L145.069 11.7921L142.63 5.89603L140.267 0Z" fill="white"/>
<path d="M164.438 20.0968L164.207 19.9212L163.977 19.7204L163.727 19.5448L163.497 19.3441L163.247 19.1685L163.016 18.9929L162.786 18.8172L162.536 18.6416L162.287 18.466L162.056 18.3154L161.806 18.1398L161.557 17.9642L161.326 17.7886L161.076 17.638L160.827 17.4624L160.577 17.3119L160.327 17.1613L160.078 17.0108L159.828 16.8352L159.693 16.7599L157.484 23.0574L157.58 23.1075L157.811 23.233L158.022 23.3835L158.253 23.5341L158.464 23.6595L158.675 23.81L158.906 23.9606L159.117 24.1111L159.328 24.2366L159.54 24.3871L159.77 24.5627L159.981 24.7133L160.193 24.8638L160.404 25.0143L160.615 25.1649L160.827 25.3405L161.038 25.491L161.249 25.6416L161.461 25.8172L161.672 25.9928L161.864 26.1434L164.63 20.2473L164.438 20.0968Z" fill="white"/>
<path d="M154.119 13.9497L153.85 13.8494L153.581 13.749L153.312 13.6236L153.043 13.5232L152.774 13.4479L152.486 13.3476L152.217 13.2472L151.948 13.1469L151.68 13.0716L151.391 12.9712L151.123 12.8709L150.854 12.7956L150.565 12.7203L150.297 12.6451L150.008 12.5447L149.739 12.4694L149.451 12.4193L149.182 12.344L149.029 12.2938L148.068 19.0931L148.184 19.1182L148.433 19.1934L148.683 19.2436L148.914 19.3189L149.163 19.3942L149.413 19.4694L149.663 19.5447L149.893 19.62L150.143 19.6701L150.393 19.7705L150.623 19.8458L150.873 19.921L151.123 20.0214L151.353 20.0967L151.584 20.1719L151.833 20.2723L152.064 20.3726L152.313 20.4479L152.544 20.5483L152.794 20.6486L152.89 20.6988L154.484 14.1003L154.388 14.0752L154.119 13.9497Z" fill="white"/>
<path d="M131.504 12.2687L131.216 12.344L130.928 12.4193L130.659 12.4695L130.371 12.5447L130.102 12.6451L129.814 12.7204L129.545 12.7956L129.257 12.8709L128.988 12.9712L128.719 13.0716L128.45 13.1469L128.162 13.2472L127.893 13.3476L127.624 13.4479L127.355 13.5232L127.086 13.6236L126.817 13.749L126.529 13.8494L126.279 13.9497L126.164 13.9999L127.758 20.5985L127.835 20.5483L128.085 20.4479L128.315 20.3726L128.546 20.2723L128.796 20.1719L129.045 20.0967L129.276 20.0214L129.526 19.921L129.756 19.8458L130.006 19.7705L130.236 19.6701L130.486 19.62L130.736 19.5447L130.985 19.4694L131.216 19.3942L131.466 19.3189L131.715 19.2436L131.965 19.1934L132.215 19.1182L132.445 19.068L132.58 19.0429L131.619 12.2437L131.504 12.2687Z" fill="white"/>
<path d="M120.841 16.6845L120.591 16.835L120.341 17.0106L120.091 17.1612L119.842 17.3117L119.592 17.4622L119.342 17.6379L119.093 17.7884L118.843 17.964L118.612 18.1396L118.363 18.3153L118.113 18.4658L117.882 18.6414L117.633 18.8171L117.402 18.9927L117.153 19.1683L116.922 19.3439L116.672 19.5447L116.442 19.7203L116.211 19.921L116 20.0715L118.785 25.9676L118.958 25.817L119.169 25.6414L119.361 25.4909L119.573 25.3403L119.784 25.1647L119.995 25.0142L120.226 24.8636L120.437 24.7131L120.648 24.5626L120.86 24.3869L121.071 24.2364L121.282 24.1109L121.513 23.9604L121.724 23.8099L121.935 23.6593L122.166 23.5339L122.377 23.3834L122.608 23.2328L122.819 23.1074L123.05 22.9819L123.165 22.9067L120.956 16.6343L120.841 16.6845Z" fill="white"/>
<path d="M143.63 204.289L141.873 199.939L140.172 195.589C141.391 192.534 142.468 189.887 143.673 186.888L147.173 195.589L145.373 199.939L143.63 204.289Z" fill="white"/>
<path d="M161.275 189.461L161.105 189.591L160.935 189.739L160.75 189.869L160.58 190.017L160.396 190.146L160.226 190.276L160.056 190.405L159.872 190.535L159.687 190.664L159.517 190.776L159.333 190.905L159.149 191.035L158.979 191.164L158.795 191.275L158.61 191.405L158.426 191.516L158.242 191.627L158.058 191.738L157.873 191.868L157.774 191.923L156.144 187.277L156.215 187.24L156.385 187.147L156.541 187.036L156.711 186.925L156.867 186.833L157.023 186.722L157.193 186.61L157.349 186.499L157.505 186.407L157.661 186.296L157.831 186.166L157.987 186.055L158.143 185.944L158.298 185.833L158.454 185.722L158.61 185.592L158.766 185.481L158.922 185.37L159.078 185.241L159.234 185.111L159.376 185L161.416 189.35L161.275 189.461Z" fill="white"/>
<path d="M153.651 193.997L153.452 194.071L153.254 194.145L153.055 194.237L152.857 194.312L152.659 194.367L152.446 194.441L152.248 194.515L152.049 194.589L151.851 194.645L151.638 194.719L151.44 194.793L151.241 194.848L151.029 194.904L150.83 194.959L150.618 195.033L150.419 195.089L150.207 195.126L150.008 195.182L149.895 195.219L149.186 190.202L149.271 190.183L149.456 190.128L149.64 190.091L149.81 190.035L149.994 189.98L150.178 189.924L150.363 189.869L150.533 189.813L150.717 189.776L150.901 189.702L151.071 189.647L151.255 189.591L151.44 189.517L151.61 189.461L151.78 189.406L151.964 189.332L152.134 189.258L152.318 189.202L152.488 189.128L152.673 189.054L152.744 189.017L153.92 193.886L153.849 193.904L153.651 193.997Z" fill="white"/>
<path d="M137.465 195.237L137.253 195.181L137.04 195.126L136.842 195.089L136.629 195.033L136.431 194.959L136.218 194.904L136.02 194.848L135.807 194.793L135.609 194.719L135.41 194.645L135.212 194.589L134.999 194.515L134.801 194.441L134.602 194.367L134.404 194.311L134.206 194.237L134.007 194.145L133.795 194.071L133.61 193.997L133.525 193.96L134.702 189.091L134.758 189.128L134.943 189.202L135.113 189.258L135.283 189.332L135.467 189.406L135.651 189.461L135.821 189.517L136.006 189.591L136.176 189.647L136.36 189.702L136.53 189.776L136.714 189.813L136.898 189.869L137.083 189.924L137.253 189.98L137.437 190.035L137.621 190.091L137.805 190.128L137.99 190.183L138.16 190.22L138.259 190.239L137.55 195.255L137.465 195.237Z" fill="white"/>
<path d="M129.571 191.979L129.387 191.868L129.203 191.738L129.019 191.627L128.834 191.516L128.65 191.405L128.466 191.276L128.282 191.165L128.098 191.035L127.927 190.905L127.743 190.776L127.559 190.665L127.389 190.535L127.205 190.406L127.035 190.276L126.85 190.146L126.68 190.017L126.496 189.869L126.326 189.739L126.156 189.591L126 189.48L128.055 185.13L128.183 185.241L128.338 185.37L128.48 185.482L128.636 185.593L128.792 185.722L128.948 185.833L129.118 185.944L129.274 186.055L129.43 186.166L129.586 186.296L129.742 186.407L129.897 186.5L130.067 186.611L130.223 186.722L130.379 186.833L130.549 186.925L130.705 187.036L130.875 187.148L131.031 187.24L131.201 187.333L131.286 187.388L129.656 192.016L129.571 191.979Z" fill="white"/>
</svg>
