<svg width="37" height="37" viewBox="0 0 37 37" fill="none" xmlns="http://www.w3.org/2000/svg">
<path d="M32.2812 1.44031H5.31583C3.04001 1.44031 1.18848 3.27905 1.18848 5.53915V32.3183C1.18848 34.5784 3.04001 36.4171 5.31583 36.4171H32.2812C34.5571 36.4171 36.4086 34.5784 36.4086 32.3183V5.53915C36.4086 3.27905 34.5571 1.44031 32.2812 1.44031ZM33.657 32.3183C33.657 33.0716 33.0399 33.6845 32.2812 33.6845H5.31583C4.55723 33.6845 3.94005 33.0716 3.94005 32.3183V5.53915C3.94005 4.78578 4.55723 4.17287 5.31583 4.17287H32.2812C33.0399 4.17287 33.657 4.78578 33.657 5.53915V32.3183Z" fill="#C09B5A" stroke="#746253"/>
<path d="M20.6435 8.43567H11.2515V29.4217H13.9349V21.8883H20.6435C24.3426 21.8883 27.3521 18.8709 27.3521 15.162C27.3521 11.4531 24.3426 8.43567 20.6435 8.43567ZM20.6435 19.1978H13.9349V11.1262H20.6435C22.863 11.1262 24.6687 12.9366 24.6687 15.162C24.6687 17.3873 22.863 19.1978 20.6435 19.1978Z" fill="#C09B5A" stroke="#746253"/>
</svg>
