<svg width="37" height="37" viewBox="0 0 37 37" fill="none" xmlns="http://www.w3.org/2000/svg">
<path d="M15.2575 1.49203C14.6603 1.49203 14.1756 1.74413 14.1756 2.05616V8.99539C14.1756 9.30839 13.689 9.56165 13.0878 9.56165C12.4866 9.56165 12 9.30839 12 8.99539V2.05616C12 1.74413 11.5151 1.49203 10.9182 1.49203H10.9055C10.3084 1.49203 9.82431 1.74413 9.82431 2.05616V8.99539C9.82431 9.30839 9.33765 9.56165 8.73585 9.56165C8.13457 9.56165 7.64805 9.30839 7.64805 8.99539V2.05616C7.64805 1.74413 7.1639 1.49203 6.56673 1.49203H6.55363C5.95659 1.49203 5.47244 1.74413 5.47244 2.05616V8.99539C5.47244 9.30839 4.98578 9.56165 4.38464 9.56165C3.78337 9.56165 3.29671 9.30839 3.29671 8.99539V2.05616C3.29671 1.74413 2.8119 1.49203 2.21486 1.49203C1.64774 1.49203 1.18848 1.73069 1.18848 2.02502C1.18848 3.78125 1.18848 9.27849 1.18848 9.51191C1.18848 11.8002 2.66142 13.0425 4.86032 13.6243C6.63463 14.0941 7.67345 15.0831 7.48009 16.114L4.31648 32.9335C4.19525 33.5828 4.60541 34.2285 5.44663 34.7109C6.28839 35.1942 7.48247 35.4695 8.73571 35.4695C9.98948 35.4695 11.1836 35.1941 12.0253 34.7109C12.8664 34.2285 13.2767 33.5827 13.1555 32.9335L9.99187 16.114C9.79837 15.0831 10.8396 14.0942 12.6116 13.6243C14.8104 13.0424 16.2828 11.8002 16.2828 9.51191C16.2828 9.27849 16.2828 3.78132 16.2828 2.02502C16.2832 1.73069 15.8246 1.49203 15.2575 1.49203Z" stroke="#C09B5A" stroke-width="1.5" stroke-linecap="round" stroke-linejoin="round"/>
<path d="M33.2012 17.1513C33.238 15.8219 33.2012 2.16894 33.2012 2.16894C33.2012 1.79504 32.6124 1.49203 31.884 1.49203C31.254 1.49203 30.6994 1.70651 30.5256 2.01854L25.9657 10.1988C24.6333 12.5921 25.45 15.1683 28.1929 17.2198C28.4598 17.419 28.9 17.5374 29.3688 17.5374L26.4387 32.9335C26.316 33.5828 26.7311 34.2285 27.5827 34.7109C28.4337 35.1942 29.6418 35.4695 30.9104 35.4695C32.1782 35.4695 33.3861 35.1941 34.2378 34.7109C35.0889 34.2285 35.5039 33.5827 35.3811 32.9335C35.3811 32.9335 33.1644 18.4808 33.2012 17.1513Z" stroke="#C09B5A" stroke-width="1.5" stroke-linecap="round" stroke-linejoin="round"/>
</svg>
