<svg width="42" height="43" viewBox="0 0 42 43" fill="none" xmlns="http://www.w3.org/2000/svg">
<path d="M41.0056 34.6297H36.1826L34.7344 26.8053C34.453 25.2842 33.2068 24.1802 31.7714 24.1802H30.5702V14.3838C30.5702 12.5832 29.2147 11.1183 27.5484 11.1183H25.6745C25.3937 9.62964 24.1728 8.50597 22.7135 8.50597H13.648V3.76016C13.648 1.95954 12.2925 0.49469 10.6262 0.49469H2.16514C1.64821 0.49469 1.154 0.735638 0.809191 1.15562C0.465107 1.57473 0.303299 2.13439 0.365186 2.69117C0.474374 3.6729 1.26198 4.41325 2.19705 4.41325H10.0219V17.8045C4.54867 18.7467 0.352051 23.8824 0.352051 30.0581C0.352051 36.9003 5.50324 42.4668 11.835 42.4668C18.1667 42.4668 23.3179 36.9003 23.3179 30.0581C23.3179 28.4444 23.0311 26.9019 22.5102 25.4864H29.3615V29.405H25.1309C24.7972 29.405 24.5266 29.6974 24.5266 30.0581C24.5266 30.4187 24.7972 30.7112 25.1309 30.7112H29.3615V33.3709C27.3141 33.6888 25.7353 35.5961 25.7353 37.8952C25.7353 40.416 27.6331 42.4668 29.9658 42.4668C32.2986 42.4668 34.1964 40.416 34.1964 37.8952C34.1964 35.5961 32.6176 33.6889 30.5702 33.3709V25.4864H31.7714C32.6326 25.4864 33.3803 26.1488 33.5492 27.0614L35.0924 35.3991C35.0938 35.4075 35.0953 35.4158 35.097 35.4241L35.578 38.0233C35.6345 38.3286 35.8826 38.5483 36.1706 38.5483H41.0056C41.3393 38.5483 41.6099 38.2559 41.6099 37.8952V35.2828C41.6099 34.9221 41.3393 34.6297 41.0056 34.6297ZM32.9877 37.8952C32.9877 39.6958 31.6321 41.1607 29.9658 41.1607C28.2996 41.1607 26.944 39.6958 26.944 37.8952C26.944 36.0946 28.2996 34.6297 29.9658 34.6297C31.6321 34.6297 32.9877 36.0946 32.9877 37.8952ZM22.7135 9.81216C23.5014 9.81216 24.1731 10.3582 24.4226 11.1183H13.648V9.81216H22.7135ZM2.19705 3.10706C1.87843 3.10706 1.60091 2.85593 1.56529 2.53539C1.54434 2.34652 1.59696 2.16435 1.7134 2.02241C1.82903 1.8816 1.99366 1.80088 2.16514 1.80088H10.0219V3.10706H2.19705ZM11.2306 1.91321C11.934 2.18281 12.4393 2.9087 12.4393 3.76016V17.6664C12.2392 17.6552 12.0377 17.6493 11.835 17.6493C11.6322 17.6493 11.4308 17.6552 11.2306 17.6664V1.91321ZM11.835 41.1607C6.16973 41.1607 1.56078 36.1801 1.56078 30.0581C1.56078 23.936 6.16973 18.9555 11.835 18.9555C17.5002 18.9555 22.1091 23.936 22.1091 30.0581C22.1091 36.1801 17.5002 41.1607 11.835 41.1607ZM21.9455 24.1802C20.278 20.844 17.2376 18.4225 13.648 17.8045V16.3431H25.1309C25.4647 16.3431 25.7353 16.0507 25.7353 15.69C25.7353 15.3293 25.4647 15.0369 25.1309 15.0369H13.648V12.4245H27.5484C28.5482 12.4245 29.3615 13.3034 29.3615 14.3838V15.0369H27.5484C27.2146 15.0369 26.944 15.3293 26.944 15.69C26.944 16.0507 27.2146 16.3431 27.5484 16.3431H29.3615V24.1802H21.9455ZM40.4012 37.2421H36.6661L36.4243 35.9359H40.4012V37.2421Z" fill="#C09B5A" stroke="#C09B5A" stroke-width="0.5"/>
</svg>
