<svg width="39" height="39" viewBox="0 0 39 39" fill="none" xmlns="http://www.w3.org/2000/svg">
<path d="M6.39541 6.18332L6.39541 6.18332C13.769 -1.13951 25.7036 -1.13834 33.076 6.18332C40.4488 13.5051 40.4477 25.3541 33.076 32.6748C25.7024 39.9975 13.7679 39.9964 6.39541 32.6748L6.21925 32.8522L6.39541 32.6748C-0.977405 25.353 -0.976305 13.504 6.39541 6.18332ZM32.2873 30.3331L32.4775 30.502L32.6431 30.3089C34.9792 27.5838 36.3622 24.2307 36.6202 20.6568L36.6395 20.3888H36.3708H30.7509H30.5097L30.5011 20.6299C30.4086 23.2226 30.0171 25.7145 29.3578 27.9763L29.3039 28.1613L29.4691 28.2606C30.4627 28.8574 31.4056 29.5501 32.2873 30.3331ZM3.10053 20.3888H2.83183L2.85118 20.6568C3.10922 24.2307 4.49218 27.5838 6.8283 30.3089L6.99388 30.502L7.18411 30.3331C8.06577 29.5501 9.00866 28.8574 10.0023 28.2606L10.1675 28.1613L10.1136 27.9763C9.45422 25.7145 9.06281 23.2226 8.97029 20.6299L8.96168 20.3888H8.72044H3.10053ZM7.18418 8.52502L6.99396 8.35609L6.82838 8.54924C4.49218 11.2744 3.10922 14.6274 2.85118 18.2013L2.83183 18.4693H3.10053H8.72052H8.96176L8.97036 18.2282C9.06289 15.6355 9.4543 13.1436 10.1136 10.8818L10.1676 10.6968L10.0024 10.5975C9.00873 10.0007 8.06585 9.30797 7.18418 8.52502ZM18.4999 11.3112L18.7676 11.3303V11.0619V3.0392V2.70755L18.4488 2.79886C17.0078 3.21153 15.8058 4.24398 14.8405 5.48679C13.8737 6.73151 13.1289 8.20683 12.6067 9.54215L12.5203 9.76334L12.7367 9.86106C14.5396 10.6749 16.484 11.1681 18.4999 11.3112ZM18.7676 13.4858V13.2508L18.5331 13.2363C16.3142 13.099 14.1723 12.5826 12.1811 11.7181L11.9156 11.6028L11.8402 11.8822C11.3107 13.8429 10.9929 15.9832 10.9079 18.2099L10.898 18.4694H11.1578H18.5176H18.7676V18.2194V13.4858ZM18.7676 20.6388V20.3888H18.5176H11.1578H10.898L10.9079 20.6483C10.9929 22.8749 11.3107 25.0152 11.8402 26.976L11.9156 27.2553L12.1811 27.1401C14.1723 26.2756 16.3142 25.7592 18.5331 25.6219L18.7676 25.6073V25.3723V20.6388ZM18.7676 27.7963V27.5279L18.4999 27.5469C16.484 27.6901 14.5396 28.1833 12.7367 28.9971L12.5203 29.0948L12.6067 29.316C13.129 30.6515 13.8738 32.1268 14.8406 33.3715C15.8059 34.6142 17.0079 35.6466 18.4488 36.0592L18.7676 36.1506V35.8189V27.7963ZM20.9715 27.5469L20.7038 27.5279V27.7963V35.8189V36.1506L21.0227 36.0592C22.4636 35.6466 23.6656 34.6142 24.6309 33.3714C25.5977 32.1267 26.3425 30.6514 26.8647 29.316L26.9512 29.0948L26.7347 28.9971C24.9318 28.1833 22.9875 27.6901 20.9715 27.5469ZM20.7038 25.3723V25.6073L20.9384 25.6219C23.1572 25.7592 25.2991 26.2756 27.2903 27.1401L27.5558 27.2553L27.6313 26.976C28.1608 25.0152 28.4785 22.8749 28.5635 20.6483L28.5734 20.3888H28.3137H20.9538H20.7038V20.6388V25.3723ZM20.7038 18.2194V18.4694H20.9538H28.3137H28.5734L28.5635 18.2099C28.4785 15.9832 28.1608 13.8429 27.6313 11.8822L27.5558 11.6028L27.2903 11.7181C25.2991 12.5826 23.1572 13.099 20.9384 13.2363L20.7038 13.2508V13.4858V18.2194ZM20.7038 11.0619V11.3303L20.9715 11.3112C22.9875 11.1681 24.9318 10.6749 26.7347 9.86114L26.9512 9.76343L26.8647 9.54223C26.3425 8.20691 25.5977 6.73159 24.631 5.48687C23.6657 4.24405 22.4636 3.2116 21.0227 2.79893L20.7038 2.70763V3.03927V11.0619ZM26.525 4.01777L25.6383 3.63214L26.227 4.39923C27.1856 5.64831 27.9512 7.07897 28.5522 8.55668L28.6657 8.83595L28.9192 8.67265C29.6133 8.22531 30.2781 7.72512 30.9081 7.17352L31.123 6.98535L30.908 6.79727C29.5846 5.63954 28.108 4.70618 26.525 4.01777ZM10.5522 8.67265L10.8056 8.83595L10.9192 8.55669C11.5202 7.07913 12.2858 5.64846 13.2444 4.39922L13.833 3.63219L12.9464 4.01777C11.3634 4.70618 9.88675 5.63954 8.56337 6.79727L8.34837 6.98536L8.5633 7.17353C9.19333 7.72512 9.85801 8.22531 10.5522 8.67265ZM10.9193 30.3015L10.8057 30.0222L10.5523 30.1855C9.8581 30.6329 9.19333 31.1331 8.56337 31.6847L8.34846 31.8728L8.56345 32.0609C9.88682 33.2186 11.3634 34.152 12.9464 34.8404L13.8331 35.226L13.2445 34.459C12.2859 33.2099 11.5202 31.7791 10.9193 30.3015ZM28.9192 30.1855L28.6657 30.0222L28.5522 30.3015C27.9512 31.7792 27.1855 33.2099 26.227 34.4589L25.6382 35.226L26.525 34.8403C28.108 34.1519 29.5846 33.2186 30.908 32.0608L31.123 31.8727L30.9081 31.6846C30.2781 31.1331 29.6133 30.6329 28.9192 30.1855ZM30.5012 18.2283L30.5098 18.4694H30.751H36.3709H36.6396L36.6203 18.2014C36.3622 14.6274 34.9793 11.2744 32.6431 8.54931L32.4776 8.35617L32.2873 8.52509C31.4056 9.30805 30.4628 10.0008 29.4692 10.5976L29.304 10.6968L29.3579 10.8819C30.0172 13.1436 30.4086 15.6356 30.5012 18.2283Z" fill="#C09B5A" stroke="#746253" stroke-width="0.5"/>
</svg>
