<svg width="29" height="28" viewBox="0 0 29 28" fill="#C09B5A" xmlns="http://www.w3.org/2000/svg">
    <path
        d="M27.3338 22.2996C27.0077 22.2996 26.7434 22.4766 26.7434 22.6949V26.4109C26.7434 26.5312 26.5971 26.6292 26.4174 26.6292H23.2433V18.8456C23.2433 18.6273 22.9789 18.4504 22.6528 18.4504C22.3267 18.4504 22.0623 18.6273 22.0623 18.8456V26.6292H15.6708L17.5243 25.2643C17.7268 25.1152 17.8223 24.9027 17.7797 24.6958C17.7789 24.6918 17.778 24.6878 17.7769 24.6838L16.0116 17.7029L16.4872 17.2236C16.7502 17.3486 16.9527 17.469 17.3326 17.469C17.719 17.469 18.0803 17.3242 18.258 17.0859V17.0859L20.12 14.5879L24.3615 15.6875C24.515 15.7316 26.7432 16.4033 26.7432 18.1769V20.8504C26.7431 21.0686 27.0075 21.2456 27.3337 21.2456C27.6598 21.2456 27.9241 21.0686 27.9241 20.8504V18.1769C27.9241 15.84 24.9349 14.9905 24.8077 14.9555C24.804 14.9544 24.8002 14.9534 24.7964 14.9525L17.737 13.1225V12.0142C18.8583 11.4305 19.6357 10.5652 19.8309 9.57806C20.3899 9.55171 20.9087 9.41195 21.3323 9.16811C21.8855 8.84964 22.203 8.38615 22.203 7.89668C22.203 7.49047 21.984 7.10261 21.5938 6.80038V5.33623C21.5938 2.63517 18.3109 0.43766 14.2758 0.43766C10.2407 0.43766 6.95787 2.63517 6.95787 5.33623V6.83874C6.56352 7.13792 6.34906 7.50618 6.34906 7.89663C6.34906 8.38626 6.66634 8.8497 7.21972 9.16821C7.64304 9.41195 8.16147 9.55155 8.72036 9.57795C8.9171 10.5836 9.71721 11.4811 10.934 12.0727V13.1225L3.88219 14.9524C3.87849 14.9534 3.87479 14.9544 3.87109 14.9554C3.74379 14.9904 0.754639 15.8399 0.754639 18.1768V26.4108C0.754639 26.9671 1.43068 27.4196 2.26165 27.4196H7.88734C8.21343 27.4196 8.4778 27.2426 8.4778 27.0244C8.4778 26.8061 8.21343 26.6291 7.88734 26.6291H6.6169V18.8456C6.6169 18.6273 6.35253 18.4504 6.02644 18.4504C5.70034 18.4504 5.43597 18.6273 5.43597 18.8456V26.6292H2.26173C2.082 26.6292 1.93572 26.5313 1.93572 26.411V18.1769C1.93572 16.3973 4.17892 15.7271 4.3167 15.6877L8.55495 14.5878L10.417 17.0859C10.5952 17.3248 10.9569 17.469 11.3426 17.469C11.7205 17.469 11.9211 17.3505 12.1879 17.2236L12.6635 17.7029L10.8984 24.6839C10.8974 24.6878 10.8965 24.6918 10.8956 24.6958C10.8529 24.9026 10.9484 25.1151 11.151 25.2644L13.0045 26.6293H10.6431C10.317 26.6293 10.0526 26.8062 10.0526 27.0245C10.0526 27.2428 10.317 27.4198 10.6431 27.4198H26.4174C27.2484 27.4198 27.9244 26.9672 27.9244 26.411V22.6949C27.9243 22.4766 27.6599 22.2996 27.3338 22.2996ZM19.0139 14.3012L17.278 16.63C17.2349 16.6095 16.315 16.172 15.1904 15.6375C15.6784 15.2343 15.1075 15.7059 17.3346 13.8659L19.0139 14.3012ZM15.5237 16.7657L15.0736 17.2193H13.6011L13.1509 16.7657L14.3374 16.2016L15.5237 16.7657ZM12.1148 13.25V12.5103C12.8322 12.7039 13.5988 12.7936 14.3475 12.7936C15.1217 12.7936 15.8808 12.6832 16.556 12.4855V13.2532L14.3374 15.0864L12.1148 13.25ZM21.022 7.89668C21.0219 8.15559 20.8543 8.40059 20.5623 8.56876C20.3691 8.67995 20.1359 8.75104 19.8804 8.77887V7.01465C20.559 7.08843 21.022 7.46523 21.022 7.89668ZM8.67155 8.77887C7.98519 8.7043 7.52999 8.32444 7.52999 7.89663C7.52999 7.47408 8.05329 7.13017 8.67155 7.03452V8.77887ZM8.70327 6.22911C8.51519 6.24355 8.29963 6.27765 8.13895 6.31422V5.33623C8.13895 3.07105 10.8919 1.2282 14.2759 1.2282C17.6599 1.2282 20.4128 3.07105 20.4128 5.33623V6.28708C20.2412 6.25214 20.0632 6.22906 19.8805 6.21821C19.8805 5.83682 19.8854 5.91039 18.0215 4.56903C17.6788 4.3225 17.1118 4.27086 16.6803 4.45957C14.6231 5.3591 12.1136 5.811 9.79823 5.6997C9.29035 5.67424 8.82774 5.89816 8.70327 6.22911ZM9.85255 9.09006V6.62415V6.49425C12.4014 6.59416 15.0736 6.0873 17.2325 5.16185C18.0873 5.77622 18.5502 6.09847 18.6995 6.22105C18.6995 6.53113 18.6995 8.73508 18.6995 9.09001C18.6995 10.6945 16.745 12.003 14.3476 12.003C11.6556 12.0031 9.85255 10.6052 9.85255 9.09006ZM11.3968 16.63L9.66092 14.3012L11.3373 13.8666L13.4819 15.6386C12.3913 16.157 11.4958 16.583 11.3968 16.63ZM12.0743 24.7691L13.7834 18.0097H14.8912L16.6003 24.7691L14.3373 26.4356L12.0743 24.7691Z"
        fill="#C09B5A" stroke="#C09B5A" stroke-width="0.5" />
</svg>