<?xml version="1.0" encoding="utf-8"?>
<svg version="1.1" id="Layer_1" xmlns="http://www.w3.org/2000/svg" xmlns:xlink="http://www.w3.org/1999/xlink" x="0px"
    y="0px" viewBox="0 0 122.88 73.7" style="enable-background:new 0 0 122.88 73.7" xml:space="preserve" width="50px"
    height="50px" fill="#C09B5A">
    <style type="text/css">
        .st0 {
            fill-rule: evenodd;
            clip-rule: evenodd;
        }
    </style>
    <g>
        <path class="st0"
            d="M8.34,0h106.2c4.59,0,8.34,3.77,8.34,8.34v57.02c0,4.57-3.77,8.34-8.34,8.34H8.34C3.77,73.7,0,69.95,0,65.36 V8.34C0,3.75,3.75,0,8.34,0L8.34,0z M54.97,15.95l-5.82,41.8H31.73l-6.67-41.8h12.13c1.37,11.53,2.37,21.28,2.99,29.25 c0.61-8.06,1.25-15.21,1.89-21.46l0.76-7.79H54.97L54.97,15.95z M68.46,15.95v41.8H56.95v-41.8H68.46L68.46,15.95z M73.06,15.95 h11.58c3.13,0,5.53,0.23,7.22,0.7c1.68,0.47,2.94,1.14,3.79,2.01c0.85,0.88,1.42,1.95,1.72,3.19c0.3,1.25,0.45,3.18,0.45,5.8v3.64 c0,2.66-0.29,4.61-0.88,5.82c-0.58,1.22-1.65,2.17-3.19,2.82c-1.56,0.65-3.59,0.98-6.09,0.98h-3.08v16.86H73.06V15.95L73.06,15.95z M84.57,23.08v10.65c0.33,0.02,0.61,0.03,0.84,0.03c1.05,0,1.78-0.25,2.19-0.74c0.4-0.48,0.61-1.51,0.61-3.06v-3.44 c0-1.43-0.23-2.36-0.71-2.79C87.03,23.29,86.05,23.08,84.57,23.08L84.57,23.08z" />
    </g>
</svg>