<svg width="174" height="121" viewBox="0 0 174 121" fill="none" xmlns="http://www.w3.org/2000/svg">
<g opacity="0.2">
<mask id="path-1-inside-1_807_189" fill="white">
<path d="M127.861 108.88H95.5598V104.677C111.083 99.9146 121.401 88.2202 121.401 75.181C121.401 74.6553 121.174 74.1511 120.77 73.7793C120.366 73.4075 119.818 73.1987 119.247 73.1987H112.485C111.498 69.9747 108.094 67.0956 102.652 64.9488C97.2098 62.802 90.1711 61.5405 82.6393 61.3373V57.1496C84.0697 56.9398 85.4626 56.5526 86.78 55.9984C89.8029 54.6997 93.4064 51.9297 93.4064 46.1077C93.4064 36.1103 82.4226 26.5586 81.9553 26.1567C81.5566 25.814 81.0314 25.6234 80.4859 25.6234C79.9404 25.6234 79.4152 25.814 79.0165 26.1567C78.5492 26.5581 67.5655 36.1099 67.5655 46.1072C67.5655 51.9302 71.1689 54.6992 74.1918 55.9979C75.5092 56.5521 76.9021 56.9393 78.3325 57.1491V61.3368C70.8007 61.54 63.7604 62.802 58.3201 64.9483C53.0658 67.0213 49.711 69.7765 48.5969 72.8659C48.5684 72.4269 48.5115 71.9899 48.4265 71.5571C48.3431 71.1734 48.1382 70.821 47.8376 70.5443C47.5371 70.2676 47.1542 70.079 46.7374 70.0022C43.1916 69.5057 39.5654 69.9815 36.3114 71.3703C35.0764 68.2737 32.8815 65.5789 29.9987 63.6197C29.645 63.4025 29.2293 63.2867 28.8041 63.2867C28.3789 63.2867 27.9633 63.4025 27.6095 63.6197C24.7268 65.5789 22.5316 68.2735 21.296 71.3698C18.0423 69.9811 14.4163 69.5055 10.8708 70.0022C10.454 70.079 10.0712 70.2676 9.77059 70.5443C9.47002 70.821 9.26512 71.1734 9.18173 71.5571C8.70869 74.3955 9.03788 77.2982 10.1376 79.9854C6.54856 81.0813 3.41639 83.1736 1.17159 85.9747C0.935718 86.3004 0.809851 86.683 0.809851 87.0744C0.809851 87.4658 0.935718 87.8484 1.17159 88.1741C3.5953 91.1953 7.0454 93.3852 10.9747 94.3963C9.2342 97.5326 8.60688 101.093 9.18119 104.575C9.26458 104.958 9.46948 105.311 9.77006 105.587C10.0706 105.864 10.4534 106.053 10.8703 106.129C11.7401 106.268 12.6219 106.334 13.5047 106.325C16.194 106.328 18.8521 105.794 21.2963 104.762C21.8846 106.23 22.692 107.617 23.6954 108.88H2.96322C2.3921 108.88 1.84438 109.089 1.44053 109.461C1.03669 109.833 0.809814 110.337 0.809814 110.863C0.81302 113.49 1.94843 116.01 3.96695 117.868C5.98547 119.726 8.72224 120.771 11.5769 120.774H119.247C122.102 120.771 124.839 119.726 126.857 117.868C128.876 116.01 130.011 113.49 130.014 110.863C130.014 110.337 129.787 109.833 129.384 109.461C128.98 109.089 128.432 108.88 127.861 108.88ZM92.7977 101.32C92.3518 101.441 91.9603 101.691 91.6818 102.034C91.4034 102.377 91.2529 102.793 91.2529 103.221V108.88H69.7189V104.916H84.7927C85.3638 104.916 85.9116 104.707 86.3154 104.335C86.7193 103.963 86.9461 103.459 86.9461 102.933C86.9461 102.408 86.7193 101.903 86.3154 101.532C85.9116 101.16 85.3638 100.951 84.7927 100.951H66.8982C60.9475 99.14 55.6633 96.1269 51.6843 92.2941C53.5342 91.2064 55.1461 89.8091 56.4366 88.1746C56.6725 87.8489 56.7984 87.4663 56.7984 87.0749C56.7984 86.6835 56.6725 86.3009 56.4366 85.9752C54.1903 83.1756 51.0581 81.0843 47.4696 79.9881C47.8412 79.071 48.1256 78.1258 48.3194 77.1633H117C115.968 88.048 106.503 97.6032 92.7977 101.32ZM34.1338 98.5788C32.909 97.4583 31.923 96.1366 31.2267 94.682C32.3785 94.3687 33.4469 93.8381 34.3638 93.1239C35.2807 92.4097 36.026 91.5276 36.5523 90.5338C38.9308 91.628 40.9242 93.3197 42.302 95.4131C43.6798 97.5065 44.3858 99.9162 44.3383 102.363C42.4476 102.402 40.5682 102.086 38.8141 101.435C37.06 100.785 35.4677 99.8127 34.1338 98.5788ZM28.8041 83.1103C29.6559 83.1103 30.4886 83.3428 31.1969 83.7784C31.9051 84.2141 32.4571 84.8333 32.7831 85.5577C33.1091 86.2821 33.1944 87.0793 33.0282 87.8484C32.862 88.6174 32.4518 89.3238 31.8495 89.8783C31.2472 90.4328 30.4798 90.8104 29.6443 90.9633C28.8089 91.1163 27.9429 91.0378 27.156 90.7377C26.369 90.4377 25.6964 89.9295 25.2231 89.2775C24.7499 88.6255 24.4973 87.859 24.4973 87.0749C24.4987 86.0238 24.9528 85.0161 25.7602 84.2729C26.5676 83.5296 27.6623 83.1115 28.8041 83.1103ZM43.2696 90.1685C42.4188 89.3863 41.4873 88.6821 40.4882 88.066C42.4319 86.8655 44.113 85.3393 45.444 83.5669C47.8738 84.201 50.0791 85.4133 51.8378 87.0818C49.7339 89.0911 46.9812 90.4208 43.9897 90.873C43.7598 90.6361 43.5221 90.4012 43.2696 90.1685ZM75.9056 52.3596C73.1912 51.1536 71.8723 49.1089 71.8723 46.1072C71.8723 39.7965 77.69 33.2333 80.4881 30.4422C81.7886 31.7375 83.0005 33.1059 84.1171 34.5394C86.3903 37.4687 89.0995 41.8534 89.0995 46.1072C89.0995 49.1089 87.7806 51.1536 85.0662 52.3584C84.2915 52.6956 83.4772 52.9496 82.6393 53.1154V49.4109C82.6393 48.8852 82.4124 48.381 82.0086 48.0092C81.6048 47.6375 81.057 47.4286 80.4859 47.4286C79.9148 47.4286 79.3671 47.6375 78.9632 48.0092C78.5594 48.381 78.3325 48.8852 78.3325 49.4109V53.1151C77.4947 52.95 76.6803 52.6965 75.9056 52.3596ZM80.4859 65.2694C94.6766 65.2694 105.167 69.1349 107.823 73.1987H53.1487C55.8052 69.1349 66.2952 65.2694 80.4859 65.2694ZM44.3356 73.7661C44.3813 76.1001 43.7421 78.4022 42.4853 80.4297C41.2286 82.4573 39.4009 84.1351 37.1949 85.2864C36.8867 84.0728 36.2734 82.9428 35.4041 81.9874C34.5349 81.0319 33.4341 80.2777 32.1903 79.7854C32.7475 78.9781 33.3995 78.2297 34.1346 77.5538C35.4676 76.3193 37.0591 75.347 38.8127 74.6959C40.5662 74.0448 42.4452 73.7285 44.3356 73.7661ZM25.0857 73.4309C25.7983 71.3163 27.077 69.4006 28.8041 67.8598C30.5584 69.4278 31.8493 71.3816 32.5548 73.5367C32.0436 73.9177 31.5543 74.3229 31.0889 74.7509C30.2392 75.5323 29.474 76.388 28.8041 77.3058C28.1347 76.3877 27.37 75.5317 26.5207 74.7499C26.0548 74.322 25.565 73.9167 25.0534 73.5357C25.0639 73.501 25.0741 73.4656 25.0857 73.4309ZM13.27 73.7686C15.1605 73.7312 17.0395 74.0473 18.7935 74.6976C20.5475 75.348 22.1399 76.3192 23.4744 77.5524C24.2104 78.2278 24.8635 78.9757 25.4219 79.7825C24.1775 80.2746 23.0761 81.0289 22.2065 81.9847C21.3369 82.9405 20.7233 84.071 20.4152 85.2851C18.2095 84.1342 16.3816 82.4571 15.1242 80.4304C13.8667 78.4036 13.2262 76.1023 13.27 73.7686ZM5.76938 87.0838C7.52739 85.414 9.73256 84.2003 12.1626 83.5652C13.4938 85.3384 15.1755 86.8652 17.12 88.066C16.1209 88.6821 15.1894 89.3863 14.3386 90.1685C14.0853 90.4017 13.8474 90.6374 13.6167 90.8742C10.6246 90.4248 7.87133 89.0949 5.76938 87.0838ZM13.2727 102.366C13.2235 99.9186 13.9283 97.5085 15.3054 95.4146C16.6826 93.3207 18.6758 91.6286 21.0543 90.5343C21.5809 91.5287 22.3268 92.4113 23.2444 93.1257C24.162 93.8401 25.2313 94.3707 26.384 94.6838C25.259 97.0077 23.4157 98.9754 21.084 100.341C18.7522 101.707 16.0353 102.411 13.2719 102.365L13.2727 102.366ZM26.5194 101.382C27.3687 100.602 28.1339 99.7484 28.8041 98.8325C29.4746 99.7483 30.2399 100.602 31.0891 101.382C31.5549 101.811 32.0446 102.217 32.5562 102.598C31.8484 104.755 30.5547 106.71 28.7974 108.279C27.0383 106.714 25.7485 104.758 25.0531 102.599C25.5647 102.217 26.0536 101.811 26.5194 101.382ZM36.3106 104.762C38.7548 105.794 41.4129 106.328 44.1022 106.325C44.985 106.334 45.8668 106.268 46.7366 106.129C47.1534 106.053 47.5363 105.864 47.8368 105.587C48.1374 105.311 48.3423 104.958 48.4257 104.575C49.0002 101.093 48.373 97.5324 46.6324 94.3961C46.9805 94.3074 47.3213 94.2125 47.6507 94.1086C52.1829 98.8184 58.3866 102.514 65.412 104.676V108.88H33.9128C34.916 107.617 35.7225 106.23 36.3106 104.762ZM119.247 116.81H11.5769C10.2412 116.808 8.93881 116.426 7.84825 115.717C6.7577 115.007 5.93243 114.004 5.48567 112.845H125.338C124.892 114.004 124.066 115.007 122.976 115.717C121.885 116.426 120.583 116.808 119.247 116.81Z"/>
</mask>
<path d="M127.861 108.88H95.5598V104.677C111.083 99.9146 121.401 88.2202 121.401 75.181C121.401 74.6553 121.174 74.1511 120.77 73.7793C120.366 73.4075 119.818 73.1987 119.247 73.1987H112.485C111.498 69.9747 108.094 67.0956 102.652 64.9488C97.2098 62.802 90.1711 61.5405 82.6393 61.3373V57.1496C84.0697 56.9398 85.4626 56.5526 86.78 55.9984C89.8029 54.6997 93.4064 51.9297 93.4064 46.1077C93.4064 36.1103 82.4226 26.5586 81.9553 26.1567C81.5566 25.814 81.0314 25.6234 80.4859 25.6234C79.9404 25.6234 79.4152 25.814 79.0165 26.1567C78.5492 26.5581 67.5655 36.1099 67.5655 46.1072C67.5655 51.9302 71.1689 54.6992 74.1918 55.9979C75.5092 56.5521 76.9021 56.9393 78.3325 57.1491V61.3368C70.8007 61.54 63.7604 62.802 58.3201 64.9483C53.0658 67.0213 49.711 69.7765 48.5969 72.8659C48.5684 72.4269 48.5115 71.9899 48.4265 71.5571C48.3431 71.1734 48.1382 70.821 47.8376 70.5443C47.5371 70.2676 47.1542 70.079 46.7374 70.0022C43.1916 69.5057 39.5654 69.9815 36.3114 71.3703C35.0764 68.2737 32.8815 65.5789 29.9987 63.6197C29.645 63.4025 29.2293 63.2867 28.8041 63.2867C28.3789 63.2867 27.9633 63.4025 27.6095 63.6197C24.7268 65.5789 22.5316 68.2735 21.296 71.3698C18.0423 69.9811 14.4163 69.5055 10.8708 70.0022C10.454 70.079 10.0712 70.2676 9.77059 70.5443C9.47002 70.821 9.26512 71.1734 9.18173 71.5571C8.70869 74.3955 9.03788 77.2982 10.1376 79.9854C6.54856 81.0813 3.41639 83.1736 1.17159 85.9747C0.935718 86.3004 0.809851 86.683 0.809851 87.0744C0.809851 87.4658 0.935718 87.8484 1.17159 88.1741C3.5953 91.1953 7.0454 93.3852 10.9747 94.3963C9.2342 97.5326 8.60688 101.093 9.18119 104.575C9.26458 104.958 9.46948 105.311 9.77006 105.587C10.0706 105.864 10.4534 106.053 10.8703 106.129C11.7401 106.268 12.6219 106.334 13.5047 106.325C16.194 106.328 18.8521 105.794 21.2963 104.762C21.8846 106.23 22.692 107.617 23.6954 108.88H2.96322C2.3921 108.88 1.84438 109.089 1.44053 109.461C1.03669 109.833 0.809814 110.337 0.809814 110.863C0.81302 113.49 1.94843 116.01 3.96695 117.868C5.98547 119.726 8.72224 120.771 11.5769 120.774H119.247C122.102 120.771 124.839 119.726 126.857 117.868C128.876 116.01 130.011 113.49 130.014 110.863C130.014 110.337 129.787 109.833 129.384 109.461C128.98 109.089 128.432 108.88 127.861 108.88ZM92.7977 101.32C92.3518 101.441 91.9603 101.691 91.6818 102.034C91.4034 102.377 91.2529 102.793 91.2529 103.221V108.88H69.7189V104.916H84.7927C85.3638 104.916 85.9116 104.707 86.3154 104.335C86.7193 103.963 86.9461 103.459 86.9461 102.933C86.9461 102.408 86.7193 101.903 86.3154 101.532C85.9116 101.16 85.3638 100.951 84.7927 100.951H66.8982C60.9475 99.14 55.6633 96.1269 51.6843 92.2941C53.5342 91.2064 55.1461 89.8091 56.4366 88.1746C56.6725 87.8489 56.7984 87.4663 56.7984 87.0749C56.7984 86.6835 56.6725 86.3009 56.4366 85.9752C54.1903 83.1756 51.0581 81.0843 47.4696 79.9881C47.8412 79.071 48.1256 78.1258 48.3194 77.1633H117C115.968 88.048 106.503 97.6032 92.7977 101.32ZM34.1338 98.5788C32.909 97.4583 31.923 96.1366 31.2267 94.682C32.3785 94.3687 33.4469 93.8381 34.3638 93.1239C35.2807 92.4097 36.026 91.5276 36.5523 90.5338C38.9308 91.628 40.9242 93.3197 42.302 95.4131C43.6798 97.5065 44.3858 99.9162 44.3383 102.363C42.4476 102.402 40.5682 102.086 38.8141 101.435C37.06 100.785 35.4677 99.8127 34.1338 98.5788ZM28.8041 83.1103C29.6559 83.1103 30.4886 83.3428 31.1969 83.7784C31.9051 84.2141 32.4571 84.8333 32.7831 85.5577C33.1091 86.2821 33.1944 87.0793 33.0282 87.8484C32.862 88.6174 32.4518 89.3238 31.8495 89.8783C31.2472 90.4328 30.4798 90.8104 29.6443 90.9633C28.8089 91.1163 27.9429 91.0378 27.156 90.7377C26.369 90.4377 25.6964 89.9295 25.2231 89.2775C24.7499 88.6255 24.4973 87.859 24.4973 87.0749C24.4987 86.0238 24.9528 85.0161 25.7602 84.2729C26.5676 83.5296 27.6623 83.1115 28.8041 83.1103ZM43.2696 90.1685C42.4188 89.3863 41.4873 88.6821 40.4882 88.066C42.4319 86.8655 44.113 85.3393 45.444 83.5669C47.8738 84.201 50.0791 85.4133 51.8378 87.0818C49.7339 89.0911 46.9812 90.4208 43.9897 90.873C43.7598 90.6361 43.5221 90.4012 43.2696 90.1685ZM75.9056 52.3596C73.1912 51.1536 71.8723 49.1089 71.8723 46.1072C71.8723 39.7965 77.69 33.2333 80.4881 30.4422C81.7886 31.7375 83.0005 33.1059 84.1171 34.5394C86.3903 37.4687 89.0995 41.8534 89.0995 46.1072C89.0995 49.1089 87.7806 51.1536 85.0662 52.3584C84.2915 52.6956 83.4772 52.9496 82.6393 53.1154V49.4109C82.6393 48.8852 82.4124 48.381 82.0086 48.0092C81.6048 47.6375 81.057 47.4286 80.4859 47.4286C79.9148 47.4286 79.3671 47.6375 78.9632 48.0092C78.5594 48.381 78.3325 48.8852 78.3325 49.4109V53.1151C77.4947 52.95 76.6803 52.6965 75.9056 52.3596ZM80.4859 65.2694C94.6766 65.2694 105.167 69.1349 107.823 73.1987H53.1487C55.8052 69.1349 66.2952 65.2694 80.4859 65.2694ZM44.3356 73.7661C44.3813 76.1001 43.7421 78.4022 42.4853 80.4297C41.2286 82.4573 39.4009 84.1351 37.1949 85.2864C36.8867 84.0728 36.2734 82.9428 35.4041 81.9874C34.5349 81.0319 33.4341 80.2777 32.1903 79.7854C32.7475 78.9781 33.3995 78.2297 34.1346 77.5538C35.4676 76.3193 37.0591 75.347 38.8127 74.6959C40.5662 74.0448 42.4452 73.7285 44.3356 73.7661ZM25.0857 73.4309C25.7983 71.3163 27.077 69.4006 28.8041 67.8598C30.5584 69.4278 31.8493 71.3816 32.5548 73.5367C32.0436 73.9177 31.5543 74.3229 31.0889 74.7509C30.2392 75.5323 29.474 76.388 28.8041 77.3058C28.1347 76.3877 27.37 75.5317 26.5207 74.7499C26.0548 74.322 25.565 73.9167 25.0534 73.5357C25.0639 73.501 25.0741 73.4656 25.0857 73.4309ZM13.27 73.7686C15.1605 73.7312 17.0395 74.0473 18.7935 74.6976C20.5475 75.348 22.1399 76.3192 23.4744 77.5524C24.2104 78.2278 24.8635 78.9757 25.4219 79.7825C24.1775 80.2746 23.0761 81.0289 22.2065 81.9847C21.3369 82.9405 20.7233 84.071 20.4152 85.2851C18.2095 84.1342 16.3816 82.4571 15.1242 80.4304C13.8667 78.4036 13.2262 76.1023 13.27 73.7686ZM5.76938 87.0838C7.52739 85.414 9.73256 84.2003 12.1626 83.5652C13.4938 85.3384 15.1755 86.8652 17.12 88.066C16.1209 88.6821 15.1894 89.3863 14.3386 90.1685C14.0853 90.4017 13.8474 90.6374 13.6167 90.8742C10.6246 90.4248 7.87133 89.0949 5.76938 87.0838ZM13.2727 102.366C13.2235 99.9186 13.9283 97.5085 15.3054 95.4146C16.6826 93.3207 18.6758 91.6286 21.0543 90.5343C21.5809 91.5287 22.3268 92.4113 23.2444 93.1257C24.162 93.8401 25.2313 94.3707 26.384 94.6838C25.259 97.0077 23.4157 98.9754 21.084 100.341C18.7522 101.707 16.0353 102.411 13.2719 102.365L13.2727 102.366ZM26.5194 101.382C27.3687 100.602 28.1339 99.7484 28.8041 98.8325C29.4746 99.7483 30.2399 100.602 31.0891 101.382C31.5549 101.811 32.0446 102.217 32.5562 102.598C31.8484 104.755 30.5547 106.71 28.7974 108.279C27.0383 106.714 25.7485 104.758 25.0531 102.599C25.5647 102.217 26.0536 101.811 26.5194 101.382ZM36.3106 104.762C38.7548 105.794 41.4129 106.328 44.1022 106.325C44.985 106.334 45.8668 106.268 46.7366 106.129C47.1534 106.053 47.5363 105.864 47.8368 105.587C48.1374 105.311 48.3423 104.958 48.4257 104.575C49.0002 101.093 48.373 97.5324 46.6324 94.3961C46.9805 94.3074 47.3213 94.2125 47.6507 94.1086C52.1829 98.8184 58.3866 102.514 65.412 104.676V108.88H33.9128C34.916 107.617 35.7225 106.23 36.3106 104.762ZM119.247 116.81H11.5769C10.2412 116.808 8.93881 116.426 7.84825 115.717C6.7577 115.007 5.93243 114.004 5.48567 112.845H125.338C124.892 114.004 124.066 115.007 122.976 115.717C121.885 116.426 120.583 116.808 119.247 116.81Z" fill="black" stroke="black" stroke-width="2" stroke-linecap="round" stroke-linejoin="round" mask="url(#path-1-inside-1_807_189)"/>
</g>
<rect x="86.645" y="0.000732422" width="86.7387" height="90.3528" rx="20" fill="white"/>
<path d="M160.418 32.7999H99.4422C99.1633 32.7999 98.8959 32.9022 98.6988 33.0844C98.5016 33.2665 98.3909 33.5135 98.3909 33.7711C98.3909 37.6878 100.235 42.111 103.584 46.2263C106.917 50.3019 111.267 53.5733 116.263 55.7619V60.9637C116.263 61.2213 116.374 61.4683 116.571 61.6504C116.768 61.8326 117.035 61.9349 117.314 61.9349H142.545C142.824 61.9349 143.092 61.8326 143.289 61.6504C143.486 61.4683 143.597 61.2213 143.597 60.9637V55.7619C148.593 53.5732 152.942 50.3019 156.275 46.2263C159.624 42.111 161.469 37.6878 161.469 33.7711C161.469 33.5135 161.358 33.2665 161.161 33.0844C160.964 32.9022 160.696 32.7999 160.418 32.7999ZM159.322 34.7423C159.262 35.3959 159.152 36.0449 158.995 36.6846H100.865C100.707 36.0449 100.598 35.3959 100.538 34.7423H159.322ZM154.595 45.0592C151.416 48.9655 147.063 52.1925 142.319 54.1656H138.34C138.061 54.1656 137.794 54.2679 137.597 54.45C137.4 54.6321 137.289 54.8792 137.289 55.1367C137.289 55.3943 137.4 55.6413 137.597 55.8234C137.794 56.0056 138.061 56.1079 138.34 56.1079H141.494V59.9925H118.366V56.1079H134.135C134.414 56.1079 134.681 56.0056 134.878 55.8234C135.076 55.6413 135.186 55.3943 135.186 55.1367C135.186 54.8792 135.076 54.6321 134.878 54.45C134.681 54.2679 134.414 54.1656 134.135 54.1656H117.54C112.797 52.1925 108.444 48.9655 105.265 45.0592C103.569 42.9751 102.278 40.7694 101.469 38.6269H158.391C157.582 40.7694 156.291 42.9751 154.595 45.0592Z" fill="#C09B5A"/>
<path d="M107.852 42.5114C108.433 42.5114 108.904 42.0766 108.904 41.5403C108.904 41.0039 108.433 40.5691 107.852 40.5691C107.272 40.5691 106.801 41.0039 106.801 41.5403C106.801 42.0766 107.272 42.5114 107.852 42.5114Z" fill="#C09B5A"/>
<path d="M114.16 42.5114C114.741 42.5114 115.212 42.0766 115.212 41.5403C115.212 41.0039 114.741 40.5691 114.16 40.5691C113.58 40.5691 113.109 41.0039 113.109 41.5403C113.109 42.0766 113.58 42.5114 114.16 42.5114Z" fill="#C09B5A"/>
<path d="M120.468 42.5114C121.049 42.5114 121.52 42.0766 121.52 41.5403C121.52 41.0039 121.049 40.5691 120.468 40.5691C119.888 40.5691 119.417 41.0039 119.417 41.5403C119.417 42.0766 119.888 42.5114 120.468 42.5114Z" fill="#C09B5A"/>
<path d="M126.776 42.5114C127.357 42.5114 127.828 42.0766 127.828 41.5403C127.828 41.0039 127.357 40.5691 126.776 40.5691C126.196 40.5691 125.725 41.0039 125.725 41.5403C125.725 42.0766 126.196 42.5114 126.776 42.5114Z" fill="#C09B5A"/>
<path d="M133.084 42.5114C133.664 42.5114 134.135 42.0766 134.135 41.5403C134.135 41.0039 133.664 40.5691 133.084 40.5691C132.503 40.5691 132.032 41.0039 132.032 41.5403C132.032 42.0766 132.503 42.5114 133.084 42.5114Z" fill="#C09B5A"/>
<path d="M139.392 42.5114C139.972 42.5114 140.443 42.0766 140.443 41.5403C140.443 41.0039 139.972 40.5691 139.392 40.5691C138.811 40.5691 138.34 41.0039 138.34 41.5403C138.34 42.0766 138.811 42.5114 139.392 42.5114Z" fill="#C09B5A"/>
<path d="M145.699 42.5114C146.28 42.5114 146.751 42.0766 146.751 41.5403C146.751 41.0039 146.28 40.5691 145.699 40.5691C145.119 40.5691 144.648 41.0039 144.648 41.5403C144.648 42.0766 145.119 42.5114 145.699 42.5114Z" fill="#C09B5A"/>
<path d="M152.008 42.5114C152.588 42.5114 153.059 42.0766 153.059 41.5403C153.059 41.0039 152.588 40.5691 152.008 40.5691C151.427 40.5691 150.957 41.0039 150.957 41.5403C150.957 42.0766 151.427 42.5114 152.008 42.5114Z" fill="#C09B5A"/>
<path d="M158.403 17.2062L118.522 16.2934L99.7235 11.4698C99.5674 11.4297 99.4033 11.4235 99.2441 11.4517C99.085 11.4799 98.935 11.5417 98.806 11.6323C98.677 11.7229 98.5724 11.8398 98.5004 11.974C98.4283 12.1081 98.3909 12.2558 98.3909 12.4055V27.9441C98.3909 28.0938 98.4283 28.2415 98.5004 28.3756C98.5724 28.5097 98.677 28.6267 98.806 28.7173C98.935 28.8079 99.085 28.8697 99.2441 28.8979C99.4033 28.9261 99.5674 28.9199 99.7235 28.8798L118.522 24.0562L158.408 23.1433C159.229 23.1245 160.01 22.8091 160.582 22.2646C161.154 21.7201 161.473 20.99 161.469 20.2311V20.1185C161.472 19.3588 161.153 18.6282 160.58 18.0836C160.007 17.539 159.225 17.224 158.403 17.2062ZM113.109 16.9204V23.4292L111.006 23.9688V16.3808L113.109 16.9204ZM100.493 25.0306H101.545C101.824 25.0306 102.091 24.9283 102.288 24.7462C102.485 24.564 102.596 24.317 102.596 24.0595C102.596 23.8019 102.485 23.5549 102.288 23.3727C102.091 23.1906 101.824 23.0883 101.545 23.0883H100.493V21.146H101.545C101.824 21.146 102.091 21.0436 102.288 20.8615C102.485 20.6794 102.596 20.4324 102.596 20.1748C102.596 19.9172 102.485 19.6702 102.288 19.4881C102.091 19.3059 101.824 19.2036 101.545 19.2036H100.493V17.2613H101.545C101.824 17.2613 102.091 17.159 102.288 16.9768C102.485 16.7947 102.596 16.5477 102.596 16.2901C102.596 16.0326 102.485 15.7855 102.288 15.6034C102.091 15.4213 101.824 15.319 101.545 15.319H100.493V13.6832L108.904 15.841V24.5086L100.493 26.6664V25.0306ZM117.314 22.3501L115.212 22.8897V17.4599L117.314 17.9995V22.3501ZM159.366 20.2311C159.368 20.4835 159.263 20.7265 159.073 20.908C158.883 21.0895 158.624 21.1951 158.351 21.2023L119.417 22.0928V18.2567L158.346 19.1477C158.62 19.1539 158.88 19.2591 159.071 19.4407C159.262 19.6223 159.368 19.8658 159.366 20.1188V20.2311Z" fill="#C09B5A"/>
</svg>
