<svg width="128" height="121" viewBox="0 0 128 121" fill="none" xmlns="http://www.w3.org/2000/svg">
<path d="M78.0725 61.3379L68.627 55.2102C68.8124 54.9795 68.9235 54.6954 68.9235 54.3868C68.9235 53.6191 68.2455 52.997 67.4086 52.997H66.2488V41.8259C66.2488 40.6291 65.1875 39.6554 63.8829 39.6554H63.1361V36.3772C63.1361 35.0514 61.9603 33.9725 60.5151 33.9725H59.4571V33.0361H71.8417C73.2948 33.0361 74.4773 31.9512 74.4773 30.6181C74.4771 27.8641 72.0348 25.6234 69.033 25.6234H64.5868C63.75 25.6234 63.0719 26.2455 63.0719 27.0133C63.0719 27.7811 63.75 28.4032 64.5868 28.4032H69.033C70.23 28.4032 71.2262 29.2065 71.4151 30.2563H57.9419C57.1051 30.2563 56.427 30.8784 56.427 31.6462V33.9725H54.4071V29.3298C54.4071 28.8188 54.8601 28.4032 55.417 28.4032H58.5297C59.3666 28.4032 60.0446 27.7811 60.0446 27.0133C60.0446 26.2455 59.3666 25.6234 58.5297 25.6234H55.417C53.1895 25.6234 51.3772 27.2861 51.3772 29.3298V33.9725H50.3194C48.8744 33.9725 47.6984 35.0512 47.6984 36.3772V39.6554H46.9516C45.647 39.6554 44.5857 40.6291 44.5857 41.8259V52.997H43.4261C42.5892 52.997 41.9111 53.6191 41.9111 54.3868C41.9111 54.6954 42.022 54.9795 42.2075 55.2102L32.7618 61.3379C29.4007 63.5185 27.3941 67.075 27.3941 70.8515V74.6481V86.3238C26.6439 85.559 26.2373 85.2253 24.7555 83.855C24.1637 83.3124 23.2046 83.3124 22.613 83.855C21.6365 84.8671 18.3376 87.2113 15.895 91.9226C11.3663 89.308 7.38168 89.1538 6.28709 88.9016C5.89078 88.8384 5.48418 88.9212 5.15533 89.1331C4.82629 89.3449 4.60269 89.6679 4.53341 90.0309C4.38211 91.1812 3.47942 93.8792 4.06964 97.815C3.33964 97.8113 2.706 97.8137 1.97984 97.8129C1.14299 97.8129 0.464913 98.435 0.464913 99.2028C0.559242 100.306 -0.0321853 104.159 2.30686 108.959C2.64883 109.661 3.54567 109.974 4.30798 109.661C5.07191 109.347 5.41429 108.525 5.07272 107.825C3.28511 104.155 3.51558 100.792 3.49477 100.593C3.78584 100.628 8.46495 100.236 13.4654 103.052C13.7319 108.497 16.0176 113.606 19.9936 117.649C15.4865 117.255 11.2591 115.325 8.1955 112.216C7.63437 111.647 6.67653 111.603 6.05561 112.117C5.43509 112.632 5.38682 113.511 5.94795 114.08C9.9716 118.164 15.718 120.506 21.7135 120.506H25.6543C28.7725 120.506 31.7359 119.886 34.4062 118.775C36.5376 119.908 38.9522 120.506 41.4369 120.506H69.3974C77.1407 120.506 83.4402 114.726 83.4402 107.622V70.8515C83.4402 67.075 81.4334 63.5183 78.0725 61.3379ZM50.7282 36.7523H60.1061V39.6554H50.7282V36.7523ZM47.6154 42.4352H63.2185V52.997H47.6154V42.4352ZM30.4237 76.038H67.6882C68.525 76.038 69.2031 75.4159 69.2031 74.6481C69.2031 73.8804 68.525 73.2582 67.6882 73.2582H30.4237V70.8515C30.4237 67.9758 31.9516 65.2679 34.5108 63.6077L46.582 55.7767H64.2519L76.3231 63.6077C78.8823 65.2679 80.4101 67.9758 80.4101 70.8515V73.2582H73.7453C72.9084 73.2582 72.2303 73.8804 72.2303 74.6481C72.2303 75.4159 72.9084 76.038 73.7453 76.038H80.4101V97.4647H43.3469C43.8309 93.7358 42.9926 91.1932 42.8344 90.0307C42.6898 89.2748 41.9049 88.771 41.0808 88.9016C40.01 89.1483 36.0037 89.3065 31.4729 91.9226C31.1531 91.3061 30.8025 90.7023 30.4233 90.1121V76.038H30.4237ZM27.3735 117.651C31.3503 113.608 33.6366 108.498 33.903 103.052C36.7624 101.442 40.0353 100.593 43.4182 100.593H43.8739V101.011C43.8737 109.696 36.6164 116.854 27.3735 117.651ZM40.1946 98.0372C37.9756 98.347 35.8322 98.9784 33.8307 99.9089C33.6564 98.0685 33.251 96.272 32.6254 94.5488C36.2423 92.3049 39.8993 91.9332 40.1116 91.8795C40.1409 92.158 40.8341 94.682 40.1946 98.0372ZM23.0594 87.3764L23.6839 86.8032L24.3085 87.3764C32.9561 95.3099 33.2328 108.389 24.3085 116.577L23.6839 117.15L23.0594 116.577C14.2914 108.533 14.249 95.4592 23.0594 87.3764ZM7.25624 91.8795C7.56145 91.9566 11.0428 92.254 14.7424 94.5486C14.1168 96.2718 13.7115 98.0683 13.5371 99.9089C11.5356 98.9784 9.39229 98.347 7.17322 98.0372C6.53796 94.7044 7.22917 92.138 7.25624 91.8795ZM69.3972 117.726H41.4369C40.1264 117.726 38.8409 117.514 37.6314 117.105C47.8501 110.684 46.845 100.458 46.9037 100.244H80.4105V107.622C80.4103 113.193 75.4698 117.726 69.3972 117.726Z" fill="#C09B5A"/>
<path d="M57.0518 48.6989H53.782C52.9452 48.6989 52.2671 49.321 52.2671 50.0887C52.2671 50.8565 52.9452 51.4786 53.782 51.4786H57.0518C57.8887 51.4786 58.5668 50.8565 58.5668 50.0887C58.5668 49.321 57.8887 48.6989 57.0518 48.6989Z" fill="#C09B5A"/>
<path d="M57.0518 48.6989H53.782C52.9452 48.6989 52.2671 49.321 52.2671 50.0887C52.2671 50.8565 52.9452 51.4786 53.782 51.4786H57.0518C57.8887 51.4786 58.5668 50.8565 58.5668 50.0887C58.5668 49.321 57.8887 48.6989 57.0518 48.6989Z" stroke="#C09B5A"/>
<path d="M46.1006 82.8001H64.7336C65.5705 82.8001 66.2486 82.178 66.2486 81.4103C66.2486 80.6425 65.5705 80.0204 64.7336 80.0204H46.1006C45.2638 80.0204 44.5857 80.6425 44.5857 81.4103C44.5857 82.178 45.264 82.8001 46.1006 82.8001Z" fill="#C09B5A"/>
<path d="M46.1006 82.8001H64.7336C65.5705 82.8001 66.2486 82.178 66.2486 81.4103C66.2486 80.6425 65.5705 80.0204 64.7336 80.0204H46.1006C45.2638 80.0204 44.5857 80.6425 44.5857 81.4103C44.5857 82.178 45.264 82.8001 46.1006 82.8001Z" stroke="#C09B5A"/>
<path d="M46.1006 88.1409H64.7336C65.5705 88.1409 66.2486 87.5188 66.2486 86.751C66.2486 85.9833 65.5705 85.3611 64.7336 85.3611H46.1006C45.2638 85.3611 44.5857 85.9833 44.5857 86.751C44.5857 87.5188 45.264 88.1409 46.1006 88.1409Z" fill="#C09B5A"/>
<path d="M46.1006 88.1409H64.7336C65.5705 88.1409 66.2486 87.5188 66.2486 86.751C66.2486 85.9833 65.5705 85.3611 64.7336 85.3611H46.1006C45.2638 85.3611 44.5857 85.9833 44.5857 86.751C44.5857 87.5188 45.264 88.1409 46.1006 88.1409Z" stroke="#C09B5A"/>
<path d="M46.1006 93.4821H64.7336C65.5705 93.4821 66.2486 92.86 66.2486 92.0923C66.2486 91.3245 65.5705 90.7024 64.7336 90.7024H46.1006C45.2638 90.7024 44.5857 91.3245 44.5857 92.0923C44.5857 92.86 45.264 93.4821 46.1006 93.4821Z" fill="#C09B5A"/>
<path d="M46.1006 93.4821H64.7336C65.5705 93.4821 66.2486 92.86 66.2486 92.0923C66.2486 91.3245 65.5705 90.7024 64.7336 90.7024H46.1006C45.2638 90.7024 44.5857 91.3245 44.5857 92.0923C44.5857 92.86 45.264 93.4821 46.1006 93.4821Z" stroke="#C09B5A"/>
<rect x="41.1208" y="0.000732422" width="86.7387" height="90.3528" rx="20" fill="white"/>
<path d="M57.8304 34.6359C57.8304 40.9955 62.0998 42.6448 64.1267 43.0704C64.6898 44.8599 65.4639 46.5889 66.4355 48.2273C65.4242 49.3673 63.875 50.0005 62.2653 49.9317C61.734 49.9317 61.3033 50.323 61.3033 50.8058C61.3033 51.2885 61.734 51.6798 62.2653 51.6798C67.941 51.6798 68.0372 57.5499 68.0372 57.7981V57.8113C68.0412 58.294 68.4752 58.6824 69.0065 58.6788C69.5377 58.6751 69.9652 58.2809 69.9612 57.7981C70.0012 56.3884 70.4388 55.0115 71.232 53.7994C73.8392 55.8433 77.1768 56.9542 80.6202 56.9241C85.6437 56.9241 89.8217 54.8395 93.054 50.7367C93.9726 50.8656 94.911 50.8116 95.8043 50.5785C97.2662 52.8815 100.29 53.9555 103.083 53.1637C105.877 52.3718 107.692 49.926 107.453 47.2764C109.481 47.5006 111.405 46.4015 112.06 44.6435C112.716 42.8854 111.925 40.9503 110.165 40.0078C110.705 38.6042 110.053 37.0513 108.621 36.3316C107.189 35.612 105.394 35.9353 104.373 37.097C103.351 38.2587 103.4 39.9203 104.489 41.0304C104.117 41.4786 103.857 41.9953 103.727 42.5443C102.939 42.229 102.087 42.0659 101.226 42.0653C99.8601 42.0653 100.274 42.3703 99.9688 41.845C101.638 40.7088 103.294 38.5822 103.294 34.6359C103.294 32.3922 102.857 29.6424 100.421 29.3278C103.88 24.4586 105.261 18.6088 104.305 12.8791L103.92 11.2839C103.822 10.8825 103.429 10.5976 102.976 10.5996H58.1104C57.6596 10.5996 57.2693 10.8841 57.1715 11.2839L56.7674 12.9446C55.8284 18.6567 57.2155 24.4839 60.6683 29.333C58.2595 29.6765 57.8304 32.4123 57.8304 34.6359ZM59.7544 34.6359C59.7544 31.8494 60.4981 31.2472 60.7251 31.1292C61.1974 30.8853 62.0652 31.2332 62.4759 31.4893C62.5145 34.711 62.8787 37.9226 63.564 41.0837C61.8583 40.4422 59.7544 38.8077 59.7544 34.6359ZM68.9992 53.8413C68.3958 52.5814 67.3793 51.5213 66.0882 50.8058C67.3687 50.0789 68.382 49.0222 68.9992 47.7702C69.6026 49.0301 70.6192 50.0902 71.9102 50.8058C70.6288 51.5316 69.6151 52.5886 68.9992 53.8413ZM80.6202 55.176C77.6709 55.2017 74.8098 54.2633 72.5586 52.532C73.4904 51.9488 74.6023 51.6503 75.7332 51.6798C76.2645 51.6798 76.6952 51.2885 76.6952 50.8058C76.6952 50.323 76.2645 49.9317 75.7332 49.9317C70.0574 49.9317 69.9612 44.0616 69.9612 43.8134V43.8003C69.9573 43.3175 69.5233 42.9292 68.992 42.9328C68.4607 42.9364 68.0333 43.3307 68.0372 43.8134C68.0099 44.6757 67.8433 45.5298 67.5428 46.3481C65.0175 41.5452 64.4365 36.0431 64.3749 30.6153C66.685 26.8027 69.5474 23.2889 72.8857 20.1678C75.2241 21.4235 77.9049 22.0545 80.6202 21.9884C85.2993 21.9884 88.3354 22.0216 90.5932 22.5653C93.012 25.137 95.1161 27.9399 96.8683 30.9247C96.8573 33.5951 96.6267 36.2611 96.1786 38.9004C92.8041 37.8361 89.1026 39.3539 87.7485 42.3571C86.3945 45.3603 87.8603 48.8014 91.0867 50.1939C88.2931 53.4865 84.7837 55.176 80.6202 55.176ZM74.3143 18.903C76.2204 17.2699 78.3079 15.8208 80.5432 14.5791C83.4636 16.2199 86.1383 18.1967 88.5009 20.4606C82.3527 19.8592 78.4682 20.9955 74.3143 18.903ZM89.2012 44.6874C89.2012 42.2738 91.3547 40.3172 94.0112 40.3172C96.6677 40.3172 98.8212 42.2738 98.8212 44.6874C98.8212 47.101 96.6677 49.0577 94.0112 49.0577C91.356 49.0548 89.2044 47.0998 89.2012 44.6874ZM106.998 37.695C107.795 37.695 108.441 38.282 108.441 39.0061C108.441 39.7302 107.795 40.3172 106.998 40.3172C106.201 40.3172 105.555 39.7302 105.555 39.0061C105.555 38.282 106.201 37.695 106.998 37.695ZM105.555 43.3764C105.554 42.8526 105.765 42.3467 106.147 41.9543C107.146 42.2078 108.218 42.013 109.033 41.4299C109.811 41.7731 110.325 42.4721 110.375 43.2571C110.425 44.0421 110.005 44.7905 109.275 45.2135C108.545 45.6364 107.621 45.6679 106.859 45.2958C106.545 44.7003 106.119 44.1588 105.601 43.6954C105.577 43.5903 105.561 43.4836 105.555 43.3764ZM105.555 47.7466C105.55 49.49 104.283 51.0223 102.441 51.5114C100.599 52.0006 98.6228 51.3299 97.585 49.8635C99.8315 48.5913 101.042 46.2363 100.675 43.8545C101.908 43.7072 103.151 44.0502 104.086 44.7956C105.021 45.5411 105.556 46.6166 105.555 47.7466ZM101.37 34.6359C101.37 37.3314 100.515 39.2727 98.8356 40.4282C98.5689 40.179 98.2792 39.9509 97.9698 39.7464C98.486 36.9959 98.7572 34.2121 98.7808 31.422C99.2416 31.186 99.9592 30.8976 100.404 31.1292C100.628 31.2463 101.37 31.8468 101.37 34.6359ZM102.206 12.3477C103.501 18.2714 102.017 24.4171 98.1112 29.3042C93.1579 21.3145 85.8842 15.1944 80.1296 12.3477H102.206ZM58.8819 12.3477H72.0026C69.8562 13.6394 67.9418 15.224 66.3268 17.0457C65.9947 17.4227 66.0619 17.9729 66.4769 18.2746C66.8918 18.5763 67.4974 18.5152 67.8294 18.1382C69.9797 15.7258 72.6884 13.7732 75.763 12.4193C76.7403 12.7683 77.6969 13.1633 78.6288 13.6028C70.5538 18.3261 65.3966 25.3823 62.9762 29.3042C59.0654 24.4194 57.5809 18.2713 58.8819 12.3477Z" fill="#C09B5A"/>
<path d="M69.429 29.5971C70.4321 29.139 71.5952 29.0641 72.6594 29.3891L76.391 30.5193C76.8957 30.6718 77.441 30.4237 77.6089 29.9651C77.7768 29.5065 77.5037 29.0111 76.999 28.8586L73.2674 27.731C71.7194 27.2586 70.0279 27.3678 68.569 28.0343C68.2587 28.1725 68.0538 28.4511 68.0322 28.7644C68.0105 29.0777 68.1754 29.3774 68.4641 29.5498C68.7529 29.7221 69.1212 29.7405 69.429 29.598V29.5971Z" fill="#C09B5A"/>
<path d="M84.3911 30.5638C84.6152 30.5638 84.3911 30.6118 88.4315 29.389C89.4956 29.0631 90.659 29.1381 91.6619 29.5971C91.9697 29.7396 92.338 29.7211 92.6267 29.5488C92.9155 29.3765 93.0804 29.0767 93.0587 28.7634C93.037 28.4502 92.8321 28.1715 92.5219 28.0334C91.0627 27.3669 89.3708 27.2577 87.8225 27.7301L84.0919 28.8602C83.6447 28.9952 83.371 29.4046 83.4452 29.8274C83.5195 30.2502 83.9199 30.5619 84.3911 30.5638Z" fill="#C09B5A"/>
<path d="M76.6421 33.9183C76.4715 33.4621 75.9268 33.2174 75.4242 33.3711C75.3905 33.3808 72.1101 34.3527 69.5762 32.6256C69.1952 32.3676 68.6639 32.401 68.3256 32.7043C67.9879 33.0218 67.5516 33.2382 67.075 33.3248C66.5437 33.3248 66.113 33.7161 66.113 34.1989C66.113 34.6816 66.5437 35.0729 67.075 35.0729C67.7934 35.0379 68.4835 34.8074 69.0558 34.4113C69.201 34.4899 69.3444 34.5599 69.4925 34.6272C69.3635 34.805 69.1955 34.9568 68.999 35.0729C68.4677 35.0729 68.037 35.4642 68.037 35.947C68.037 37.0212 69.8138 37.4328 71.378 35.2311C72.928 35.5188 74.5326 35.4482 76.0447 35.0257C76.5454 34.8689 76.8124 34.3739 76.6421 33.9183Z" fill="#C09B5A"/>
<path d="M91.51 32.6257C88.9751 34.3528 85.6947 33.3817 85.6649 33.3721C85.1642 33.2216 84.6234 33.4654 84.4525 33.9187C84.2817 34.372 84.5444 34.8658 85.0415 35.0258C86.5534 35.4489 88.1583 35.5196 89.7081 35.2312C90.1968 35.9208 91.0347 36.8211 92.0872 36.8211C92.623 36.8236 93.0614 36.4339 93.0703 35.947C93.0758 35.7169 92.9789 35.4945 92.8017 35.3301C92.6245 35.1656 92.3819 35.0729 92.1285 35.073C91.9154 34.9618 91.7336 34.8071 91.5975 34.6211C91.7418 34.5538 91.8861 34.4856 92.0304 34.407C92.6021 34.8046 93.2923 35.0367 94.0112 35.073C94.5425 35.073 94.9732 34.6817 94.9732 34.199C94.9732 33.7162 94.5425 33.3249 94.0112 33.3249C93.5372 33.2381 93.1035 33.0226 92.7673 32.707C92.4288 32.3994 91.893 32.3648 91.51 32.6257Z" fill="#C09B5A"/>
<path d="M77.1231 41.0444C79.1928 42.3025 81.8933 42.3025 83.9629 41.0444C84.2489 40.8711 84.4114 40.5723 84.3891 40.2607C84.3669 39.949 84.1634 39.6718 83.8552 39.5335C83.5471 39.3951 83.1811 39.4167 82.8951 39.59C81.4714 40.4545 79.6146 40.4545 78.191 39.59C77.7489 39.3221 77.1515 39.4305 76.8567 39.8321C76.5618 40.2337 76.6811 40.7765 77.1231 41.0444Z" fill="#C09B5A"/>
<path d="M85.0649 45.2118C84.417 45.0814 83.7912 44.8727 83.2044 44.5912C80.7032 43.5572 80.3982 43.5563 77.8922 44.5912C77.3054 44.8727 76.6796 45.0814 76.0317 45.2118C75.7087 45.1887 75.3897 45.2886 75.1508 45.4874C74.9118 45.6862 74.7745 45.9663 74.7715 46.2606C74.7715 47.4939 77.4891 49.0576 80.5435 49.0576C83.5978 49.0576 86.3155 47.493 86.3155 46.2606C86.3126 45.9678 86.1766 45.6891 85.9398 45.4905C85.703 45.2919 85.3863 45.191 85.0649 45.2118ZM77.542 46.6347C78.5049 46.1955 79.5094 45.8363 80.5435 45.5614C81.5788 45.8369 82.5849 46.1961 83.5497 46.6347C81.6678 47.5341 79.4192 47.5341 77.5372 46.6347H77.542Z" fill="#C09B5A"/>
<path d="M81.5051 50.8055H79.5811C79.0498 50.8055 78.6191 51.1969 78.6191 51.6796C78.6191 52.1623 79.0498 52.5536 79.5811 52.5536H81.5051C82.0364 52.5536 82.4671 52.1623 82.4671 51.6796C82.4671 51.1969 82.0364 50.8055 81.5051 50.8055Z" fill="#C09B5A"/>
<path d="M64.1895 21.0882C64.7208 21.0882 65.1515 20.6969 65.1515 20.2141C65.1515 19.7314 64.7208 19.3401 64.1895 19.3401C63.6582 19.3401 63.2275 19.7314 63.2275 20.2141C63.2275 20.6969 63.6582 21.0882 64.1895 21.0882Z" fill="#C09B5A"/>
<path d="M113.251 56.924C113.251 54.5104 111.098 52.5538 108.441 52.5538C105.785 52.5538 103.631 54.5104 103.631 56.924C103.631 59.3376 105.785 61.2943 108.441 61.2943C111.097 61.2914 113.248 59.3364 113.251 56.924ZM105.555 56.924C105.555 55.4758 106.847 54.3019 108.441 54.3019C110.035 54.3019 111.327 55.4758 111.327 56.924C111.327 58.3722 110.035 59.5462 108.441 59.5462C106.847 59.5462 105.555 58.3722 105.555 56.924Z" fill="#C09B5A"/>
<path d="M100.745 56.9242C100.745 55.476 99.4528 54.3021 97.8589 54.3021C96.265 54.3021 94.9729 55.476 94.9729 56.9242C94.9729 58.3724 96.265 59.5464 97.8589 59.5464C99.4528 59.5464 100.745 58.3724 100.745 56.9242ZM96.8969 56.9242C96.8969 56.4415 97.3276 56.0502 97.8589 56.0502C98.3902 56.0502 98.8209 56.4415 98.8209 56.9242C98.8209 57.4069 98.3902 57.7983 97.8589 57.7983C97.3276 57.7983 96.8969 57.4069 96.8969 56.9242Z" fill="#C09B5A"/>
<path d="M94.9732 42.0651C93.9436 42.0375 92.9471 42.397 92.2187 43.0587C91.4904 43.7205 91.0948 44.6259 91.1252 45.5613C91.1252 46.0441 91.5559 46.4354 92.0872 46.4354C92.6185 46.4354 93.0492 46.0441 93.0492 45.5613C93.0162 45.0882 93.2091 44.6251 93.5786 44.2904C93.9481 43.9557 94.4583 43.7819 94.9789 43.8132C95.5102 43.8118 95.9396 43.4193 95.938 42.9366C95.9364 42.4538 95.5045 42.0637 94.9732 42.0651Z" fill="#C09B5A"/>
<path d="M61.3036 54.3021C60.7723 54.3021 60.3416 54.6934 60.3416 55.1761V56.9242C60.3416 57.4069 60.7723 57.7983 61.3036 57.7983C61.8348 57.7983 62.2655 57.4069 62.2655 56.9242V55.1761C62.2655 54.6934 61.8348 54.3021 61.3036 54.3021Z" fill="#C09B5A"/>
<path d="M60.3416 62.1684C60.3416 62.6511 60.7723 63.0425 61.3036 63.0425C61.8348 63.0425 62.2655 62.6511 62.2655 62.1684V60.4203C62.2655 59.9376 61.8348 59.5463 61.3036 59.5463C60.7723 59.5463 60.3416 59.9376 60.3416 60.4203V62.1684Z" fill="#C09B5A"/>
<path d="M63.2271 59.5464H65.1511C65.6824 59.5464 66.1131 59.1551 66.1131 58.6723C66.1131 58.1896 65.6824 57.7983 65.1511 57.7983H63.2271C62.6958 57.7983 62.2651 58.1896 62.2651 58.6723C62.2651 59.1551 62.6958 59.5464 63.2271 59.5464Z" fill="#C09B5A"/>
<path d="M59.3794 57.7983H57.4554C56.9241 57.7983 56.4934 58.1896 56.4934 58.6723C56.4934 59.1551 56.9241 59.5464 57.4554 59.5464H59.3794C59.9107 59.5464 60.3414 59.1551 60.3414 58.6723C60.3414 58.1896 59.9107 57.7983 59.3794 57.7983Z" fill="#C09B5A"/>
</svg>
