<svg width="154" height="121" viewBox="0 0 154 121" fill="none" xmlns="http://www.w3.org/2000/svg">
<path d="M20.2724 81.6319L16.607 81.3525C16.5649 81.7978 15.6907 92.3097 22.1051 98.7347C23.7488 100.332 25.745 101.585 27.9584 102.407C30.1718 103.23 32.5508 103.603 34.9341 103.502V100.116C33.0619 100.208 31.1901 99.9285 29.4446 99.2966C27.699 98.6647 26.1201 97.6949 24.8139 96.4525C19.5009 91.1331 20.2578 81.7267 20.2724 81.6319Z" fill="#C09B5A"/>
<path d="M93.5806 74.7211H69.7554V78.1071H93.5806V74.7211Z" fill="#C09B5A"/>
<path d="M66.0897 74.7211H62.4243V78.1071H66.0897V74.7211Z" fill="#C09B5A"/>
<path d="M13.9456 67.9487H9.27584V89.9578C9.28389 95.0492 11.3595 99.9525 15.0924 103.698C18.8252 107.444 23.9436 109.76 29.4356 110.188V120.432H80.7514V110.188C86.2434 109.76 91.3618 107.444 95.0947 103.698C98.8276 99.9525 100.903 95.0492 100.911 89.9578V67.9487H83.3429L94.8083 57.3589C96.0289 56.4498 104.291 50.2923 105.872 48.8296C107.055 47.8096 107.998 46.5759 108.643 45.205C109.288 43.834 109.621 42.3553 109.621 40.8606C109.621 39.3658 109.288 37.8871 108.643 36.5162C107.998 35.1453 107.055 33.9115 105.872 32.8916C104.77 31.7967 103.435 30.9234 101.95 30.3263C100.466 29.7292 98.8647 29.421 97.2458 29.421C95.627 29.421 94.0255 29.7292 92.5412 30.3263C91.057 30.9234 89.7219 31.7967 88.6193 32.8916C87.034 34.356 80.3409 42.0186 79.3787 43.1207L52.5021 67.9487H44.9257C49.1237 65.7288 52.6134 62.5248 55.0422 58.6605C57.4711 54.7961 58.7532 50.4081 58.759 45.9396V27.3165C58.759 26.8675 58.5659 26.4368 58.2222 26.1193C57.8785 25.8018 57.4123 25.6235 56.9262 25.6235H53.2608C47.1216 25.6335 41.1624 27.5399 36.3314 31.0394C31.5003 34.5389 28.075 39.4304 26.6004 44.9356C24.3417 40.6715 20.8343 37.0776 16.4762 34.5618C12.1182 32.046 7.08402 30.709 1.94501 30.7025C1.45895 30.7025 0.992792 30.8809 0.649092 31.1984C0.305393 31.5159 0.112305 31.9465 0.112305 32.3955V45.9396C0.118104 50.4081 1.40016 54.7961 3.82901 58.6605C6.25787 62.5248 9.74752 65.7288 13.9456 67.9487ZM77.086 117.046H47.7627V113.66H44.0973V117.046H40.4319V113.66H36.7665V117.046H33.101V110.274H77.086V117.046ZM91.2107 35.2855C91.9813 34.5182 92.9151 33.9061 93.9535 33.4876C94.992 33.069 96.1128 32.853 97.2458 32.853C98.3788 32.853 99.4996 33.069 100.538 33.4876C101.577 33.9061 102.51 34.5182 103.281 35.2855C104.12 35.9926 104.791 36.8536 105.249 37.8136C105.708 38.7735 105.945 39.8113 105.945 40.8606C105.945 41.9099 105.708 42.9476 105.249 43.9076C104.791 44.8675 104.12 45.7285 103.281 46.4356C102.205 47.4294 96.828 51.491 93.7105 53.8239L83.2128 44.1264C85.7382 41.2466 90.1349 36.2793 91.2107 35.2855ZM80.7514 46.6405L90.989 56.0976L88.0823 58.7828L77.8448 49.3256L80.7514 46.6405ZM75.2533 51.7195L85.4908 61.1767L78.9187 67.2478L68.6812 57.7907L75.2533 51.7195ZM66.0898 60.1846L74.4946 67.9487H57.685L66.0898 60.1846ZM97.2458 71.3347V89.9578C97.2405 94.4465 95.3079 98.7498 91.872 101.924C88.4362 105.098 83.7777 106.883 78.9187 106.888H31.2683C26.4093 106.883 21.7509 105.098 18.315 101.924C14.8792 98.7498 12.9466 94.4465 12.9413 89.9578V71.3347H97.2458ZM29.4356 51.0186C29.4429 45.1835 31.9554 39.5893 36.4219 35.4632C40.8884 31.3372 46.9442 29.0162 53.2608 29.0095H55.0935V45.9396C55.0863 51.7747 52.5738 57.3689 48.1073 61.495C43.6407 65.621 37.5849 67.942 31.2683 67.9487H29.4356V67.1327C32.872 64.8217 46.0601 55.1123 47.7517 41.0468L44.1083 40.6743C42.8474 51.1524 34.0669 59.2229 29.4356 62.807V51.0186ZM3.77772 34.1529C9.75902 34.5859 15.3441 37.0849 19.42 41.1519C23.4958 45.2189 25.7632 50.5553 25.7702 56.0976V63.1609C19.8558 59.0586 15.3588 53.4574 12.8258 47.0384L9.3913 48.2235C12.4195 56.0638 18.1807 62.7531 25.7702 67.241V67.8844C19.7889 67.4514 14.2038 64.9523 10.128 60.8853C6.05209 56.8183 3.78473 51.4819 3.77772 45.9396V34.1529Z" fill="#C09B5A"/>
<path d="M99.6153 36.2782L95.9504 39.6638L98.5423 42.058L102.207 38.6725L99.6153 36.2782Z" fill="#C09B5A"/>
<path d="M94.1175 41.3568L90.4526 44.7423L93.0445 47.1366L96.7093 43.7511L94.1175 41.3568Z" fill="#C09B5A"/>
<rect x="66.9727" width="86.7387" height="90.3528" rx="20" fill="white"/>
<path d="M94.7367 48.8314L88.2174 50.367C87.7679 50.4731 87.3755 50.7269 87.1137 51.0808L85.73 52.9497C85.6062 53.12 85.5602 53.3285 85.602 53.53C85.6438 53.7314 85.7701 53.9094 85.9533 54.0253C86.1365 54.1412 86.3618 54.1855 86.5803 54.1486C86.7987 54.1117 86.9925 53.9966 87.1195 53.8284L88.5042 51.9586C88.5349 51.917 88.5809 51.8872 88.6336 51.8746L95.151 50.3385C95.259 50.3141 95.3608 50.2701 95.4503 50.2091C95.5399 50.1481 95.6154 50.0713 95.6727 49.9831C95.7299 49.895 95.7676 49.7973 95.7837 49.6956C95.7998 49.5939 95.7939 49.4902 95.7664 49.3906C95.7389 49.2911 95.6902 49.1975 95.6233 49.1154C95.5564 49.0333 95.4726 48.9642 95.3766 48.9122C95.2806 48.8602 95.1745 48.8263 95.0642 48.8124C94.954 48.7985 94.8419 48.805 94.7343 48.8314H94.7367Z" fill="#C09B5A"/>
<path d="M121.55 44.4192C121.668 44.4193 121.786 44.3962 121.894 44.3514C122.002 44.3066 122.099 44.2411 122.178 44.1592L123.581 42.7067C123.718 42.5645 123.794 42.3805 123.795 42.1898L123.802 36.8119C123.802 36.7098 123.78 36.6086 123.738 36.5142C123.696 36.4198 123.634 36.334 123.556 36.2617C123.478 36.1894 123.385 36.132 123.283 36.0928C123.181 36.0536 123.071 36.0334 122.961 36.0333C122.738 36.0334 122.524 36.1152 122.366 36.2609C122.208 36.4065 122.119 36.6041 122.119 36.8102L122.113 41.8929L120.924 43.1241C120.816 43.236 120.746 43.3742 120.721 43.5222C120.696 43.6701 120.718 43.8216 120.784 43.9583C120.85 44.095 120.958 44.2112 121.093 44.2929C121.229 44.3747 121.387 44.4185 121.55 44.4192Z" fill="#C09B5A"/>
<path d="M98.2011 28.2357C98.2888 28.2357 98.376 28.223 98.4594 28.1979L102.194 27.0899C102.405 27.0256 102.58 26.8868 102.681 26.7039C102.782 26.521 102.8 26.3087 102.732 26.1133C102.664 25.9179 102.515 25.7552 102.318 25.6608C102.121 25.5663 101.891 25.5477 101.679 25.609L97.9461 26.7174C97.755 26.7742 97.5922 26.8921 97.4869 27.0499C97.3817 27.2077 97.3409 27.3951 97.372 27.5783C97.403 27.7614 97.5038 27.9283 97.6563 28.0488C97.8088 28.1694 98.0028 28.2356 98.2035 28.2357H98.2011Z" fill="#C09B5A"/>
<path d="M100.63 18.6789C100.805 18.6785 100.976 18.628 101.118 18.5343C101.26 18.4406 101.367 18.3083 101.425 18.1558L101.864 16.982L103.272 16.3335C103.472 16.2415 103.624 16.0798 103.695 15.8841C103.766 15.6885 103.75 15.4748 103.65 15.2902C103.551 15.1055 103.376 14.965 103.164 14.8995C102.952 14.834 102.721 14.849 102.521 14.941L100.805 15.7317C100.608 15.8224 100.457 15.981 100.385 16.1735L99.8371 17.6469C99.7929 17.7641 99.7797 17.8893 99.7987 18.0122C99.8177 18.135 99.8683 18.2519 99.9462 18.3529C100.024 18.454 100.127 18.5363 100.247 18.5931C100.366 18.6498 100.499 18.6792 100.633 18.6789H100.63Z" fill="#C09B5A"/>
<path d="M141.049 52.9029C140.861 52.3598 140.51 51.8767 140.038 51.5091C139.566 51.1416 138.992 50.9043 138.38 50.8246L137.039 50.6441C136.779 50.6091 136.532 50.5162 136.319 50.3734C136.107 50.2307 135.935 50.0423 135.818 49.8246L135.219 48.7019C134.946 48.1909 134.524 47.7607 134 47.4598C133.476 47.159 132.871 46.9995 132.254 46.9995C131.638 46.9995 131.033 47.159 130.509 47.4598C129.985 47.7607 129.563 48.1909 129.29 48.7019L128.933 49.3686C128.2 49.0527 127.417 48.8467 126.614 48.7583L125.481 48.6348L127.442 46.857C128.11 46.2477 128.642 45.5224 129.006 44.7226C129.37 43.9228 129.559 43.0644 129.562 42.1968L129.571 36.819C129.575 35.829 129.334 34.8512 128.867 33.9602C128.401 33.0691 127.719 32.2884 126.876 31.6775L125.968 31.0157L127.185 29.405C127.758 28.6451 128.125 27.7681 128.252 26.849C128.379 25.9299 128.264 24.996 127.915 24.1271L127.502 23.0955C127.038 21.9352 126.178 20.946 125.051 20.2777C125.339 19.5054 125.419 18.68 125.285 17.8726C125.151 17.0651 124.806 16.3 124.281 15.6431C123.755 14.9862 123.064 14.4573 122.268 14.102C121.472 13.7468 120.594 13.5757 119.71 13.6038L112.157 13.8331C111.521 13.8524 110.89 13.7234 110.322 13.458L105.373 11.1419C104.613 10.7881 103.775 10.6022 102.924 10.5989C102.073 10.5957 101.233 10.7752 100.47 11.1233L98.759 11.9086C97.4761 12.4945 96.495 13.5241 96.0286 14.774L95.1746 17.0407C94.8706 17.8422 94.7913 18.7018 94.9441 19.5392C95.097 20.3767 95.4771 21.1647 96.0488 21.8297L96.7138 22.6075L96.5343 22.6609C95.3417 23.02 94.2936 23.7022 93.5263 24.6189C92.759 25.5356 92.3081 26.6443 92.2321 27.801L92.2114 28.1379C92.1472 29.1495 92.3753 30.1588 92.8725 31.0622C93.3696 31.9656 94.1178 32.7306 95.0404 33.2789C93.769 33.4719 92.5788 33.9822 91.5984 34.7545L89.4814 36.4247C88.2843 37.3674 87.4615 38.6518 87.1432 40.0749C86.8249 41.498 87.0292 42.9785 87.7239 44.2822C87.8383 44.4936 87.9656 44.6988 88.1049 44.8969L86.7924 45.208C84.9852 45.6334 83.4076 46.6526 82.355 48.0748L80.9693 49.9415C80.1591 51.028 79.6951 52.3027 79.63 53.6207C79.5649 54.9386 79.9014 56.2471 80.6013 57.3972L81.8132 59.4043C82.4792 60.5067 83.4515 61.4249 84.6298 62.0643C85.8081 62.7037 87.1497 63.0411 88.5163 63.0418H125.76C126.372 63.0395 126.982 62.9689 127.576 62.8315C128.015 62.9893 128.485 63.058 128.956 63.0329C129.426 63.0077 129.884 62.8893 130.3 62.6857L131.5 62.1035C131.733 61.9905 131.992 61.9315 132.254 61.9315C132.517 61.9315 132.776 61.9905 133.009 62.1035L134.208 62.6857C134.754 62.9512 135.37 63.0701 135.985 63.0291C136.6 62.9882 137.191 62.7889 137.69 62.454C138.189 62.119 138.577 61.6617 138.809 61.1337C139.042 60.6058 139.109 60.0283 139.005 59.4666L138.776 58.2337C138.732 57.9941 138.751 57.7482 138.832 57.517C138.913 57.2858 139.054 57.0763 139.242 56.9065L140.213 56.0327C140.657 55.6364 140.971 55.1325 141.119 54.5789C141.267 54.0253 141.243 53.4444 141.049 52.9029ZM97.37 20.863C96.9743 20.4029 96.7113 19.8576 96.6056 19.2781C96.4998 18.6986 96.5548 18.1038 96.7652 17.5492L97.6192 15.2825C97.9422 14.4181 98.6211 13.7061 99.5086 13.3011L101.22 12.5157C101.747 12.275 102.329 12.1508 102.917 12.1529C103.506 12.1551 104.086 12.2836 104.612 12.5282L109.559 14.8451C110.38 15.2271 111.291 15.4136 112.21 15.3878L119.764 15.1585C120.359 15.1401 120.951 15.252 121.491 15.4851C122.031 15.7182 122.504 16.0659 122.871 16.4998C123.238 16.9337 123.489 17.4416 123.603 17.982C123.717 18.5225 123.691 19.0802 123.528 19.6097C122.246 19.2436 120.87 19.2674 119.604 19.6777L112.209 22.0928C111.512 22.3191 110.767 22.3851 110.037 22.2853L103.077 21.3373C101.81 21.0973 100.068 21.5542 98.4251 22.0982L97.37 20.863ZM93.9131 27.8854C93.9686 27.0423 94.2973 26.2342 94.8566 25.566C95.4159 24.8978 96.1798 24.4005 97.0491 24.1387L100.782 23.0302C101.442 22.83 102.144 22.7767 102.83 22.8746L109.79 23.8244C110.792 23.9557 111.814 23.8642 112.77 23.5578L120.165 21.1426C121.277 20.8071 122.484 20.857 123.56 21.2831C123.57 21.2871 123.56 21.2866 123.648 21.3244C124.703 21.7923 125.519 22.6213 125.923 23.6355L126.337 24.6689C126.591 25.3023 126.675 25.9831 126.582 26.653C126.489 27.323 126.222 27.9622 125.804 28.5161L124.642 30.0544C123.747 29.4567 122.716 29.0579 121.627 28.889C120.538 28.7202 119.422 28.7859 118.366 29.081L112.343 30.801C112.085 30.8747 111.822 30.9302 111.555 30.9673L97.9031 32.874L96.4597 32.234C95.6487 31.8771 94.9714 31.3049 94.5144 30.5905C94.0574 29.8761 93.8415 29.052 93.8944 28.2236L93.9131 27.8854ZM89.8485 44.484C89.6095 44.2092 89.4034 43.9111 89.2341 43.5951C88.705 42.6014 88.5494 41.4731 88.792 40.3886C89.0345 39.3041 89.6614 38.3251 90.5736 37.6065L92.6906 35.9363C93.4561 35.3322 94.3894 34.9382 95.3849 34.7989L111.807 32.5077C112.157 32.4587 112.502 32.3858 112.84 32.2895L118.863 30.5695C119.699 30.3306 120.585 30.2831 121.445 30.4312C122.305 30.5792 123.113 30.9183 123.799 31.4193L125.834 32.9024C126.476 33.3678 126.995 33.9626 127.351 34.6413C127.706 35.32 127.89 36.0648 127.887 36.819L127.879 42.1968C127.877 42.8582 127.732 43.5126 127.455 44.1222C127.177 44.7318 126.772 45.2847 126.262 45.7489L123.336 48.3997L122.476 48.305L113.827 47.4814C113.155 47.4182 112.5 47.2501 111.89 46.9841L107.046 44.8782C102.087 42.5031 95.4393 42.7635 89.8485 44.484ZM88.5163 61.4862C87.45 61.4855 86.4031 61.222 85.4837 60.7231C84.5644 60.2241 83.8057 59.5076 83.286 58.6474L82.0721 56.6416C81.5258 55.7437 81.2632 54.7223 81.3143 53.6934C81.3653 52.6645 81.7279 51.6695 82.3607 50.8215L83.7435 48.9526C84.5654 47.8424 85.7969 47.0467 87.2076 46.7143L93.7264 45.1747C97.9406 44.1825 102.397 44.5754 106.332 46.2858L111.172 48.3912C111.955 48.7319 112.794 48.9477 113.655 49.0294L122.289 49.8495L123.536 49.9872H123.54L126.415 50.3037C126.856 50.3521 127.29 50.4459 127.709 50.5833C127.631 50.6092 127.55 50.6294 127.468 50.6437L126.127 50.8242C125.517 50.9061 124.943 51.1442 124.472 51.5114C124 51.8787 123.65 52.3605 123.459 52.9023C123.268 53.4442 123.246 54.0245 123.394 54.5776C123.541 55.1307 123.854 55.6346 124.295 56.0323L125.265 56.9061C125.454 57.0757 125.595 57.2851 125.676 57.5162C125.757 57.7473 125.777 57.9932 125.733 58.2328C125.593 59.5217 125.088 59.8697 125.882 61.4844C125.841 61.4844 125.8 61.4844 125.759 61.4844L88.5163 61.4862ZM139.038 54.9194L138.067 55.7927C137.683 56.1385 137.396 56.5652 137.231 57.0361C137.065 57.5069 137.026 58.0079 137.116 58.4959L137.346 59.7297C137.397 60.0052 137.363 60.2885 137.249 60.5475C137.135 60.8064 136.945 61.0307 136.7 61.195C136.455 61.3594 136.165 61.4571 135.864 61.4773C135.562 61.4975 135.26 61.4393 134.992 61.3093L133.793 60.7266C133.318 60.4963 132.79 60.3759 132.254 60.3759C131.718 60.3759 131.191 60.4963 130.716 60.7266L129.517 61.3093C129.291 61.4216 129.039 61.4818 128.783 61.4847C128.526 61.4875 128.273 61.433 128.044 61.3257C128.041 61.3257 128.039 61.3208 128.035 61.3191C127.68 61.1513 127.401 60.8723 127.249 60.5319C126.996 60.1377 127.304 59.0457 127.393 58.4959C127.484 58.0079 127.445 57.507 127.279 57.0361C127.114 56.5652 126.827 56.1385 126.443 55.7927L125.473 54.9194C125.256 54.7242 125.103 54.477 125.03 54.2056C124.958 53.9341 124.969 53.6494 125.062 53.3835C125.156 53.1176 125.328 52.8812 125.559 52.701C125.791 52.5208 126.072 52.404 126.371 52.3637C127.944 52.1269 129.189 52.194 130.202 50.5126L130.801 49.3903C130.935 49.1396 131.142 48.9285 131.399 48.7809C131.656 48.6333 131.953 48.5551 132.256 48.5551C132.558 48.5551 132.855 48.6333 133.112 48.7809C133.369 48.9285 133.576 49.1396 133.71 49.3903L134.31 50.5126C134.547 50.9567 134.897 51.3409 135.331 51.632C135.764 51.9231 136.268 52.1123 136.798 52.1833L138.139 52.3637C138.439 52.404 138.72 52.5208 138.952 52.701C139.183 52.8811 139.355 53.1175 139.449 53.3833C139.542 53.6492 139.554 53.9339 139.481 54.2053C139.409 54.4768 139.256 54.7241 139.039 54.9194H139.038Z" fill="#C09B5A"/>
<path d="M132.254 52.5527C131.584 52.5526 130.93 52.736 130.373 53.0796C129.816 53.4232 129.382 53.9117 129.125 54.4832C128.869 55.0547 128.802 55.6836 128.933 56.2904C129.063 56.8971 129.386 57.4544 129.859 57.8919C130.333 58.3293 130.936 58.6272 131.593 58.7478C132.25 58.8685 132.931 58.8065 133.549 58.5698C134.168 58.333 134.697 57.932 135.069 57.4176C135.441 56.9032 135.639 56.2985 135.639 55.6798C135.638 54.8508 135.281 54.0559 134.646 53.4696C134.012 52.8834 133.151 52.5536 132.254 52.5527ZM132.254 57.2519C131.917 57.252 131.588 57.1598 131.308 56.9872C131.028 56.8145 130.81 56.569 130.681 56.2818C130.552 55.9945 130.519 55.6784 130.584 55.3734C130.65 55.0685 130.812 54.7883 131.05 54.5684C131.288 54.3485 131.591 54.1987 131.921 54.1381C132.251 54.0774 132.594 54.1085 132.904 54.2274C133.215 54.3464 133.481 54.5479 133.668 54.8064C133.855 55.065 133.955 55.3689 133.955 55.6798C133.955 56.0965 133.775 56.496 133.456 56.7906C133.137 57.0852 132.705 57.251 132.254 57.2514V57.2519Z" fill="#C09B5A"/>
</svg>
