<svg width="132" height="121" viewBox="0 0 132 121" fill="none" xmlns="http://www.w3.org/2000/svg">
<path d="M80.7083 103.586H79.2725C80.0099 102.584 80.441 101.379 80.441 100.082C80.441 98.1071 79.4406 96.3416 77.8786 95.1889C79.4406 94.0361 80.441 92.2707 80.441 90.2952C80.441 87.5479 78.5047 85.2085 75.8166 84.3563C77.4987 83.1367 78.8396 81.5146 79.6349 79.6162C79.9352 78.8992 79.544 78.095 78.7608 77.8201C77.978 77.5454 77.0994 77.9035 76.7991 78.6202C75.4481 81.8446 72.0052 84.0109 68.2317 84.0109C65.2812 84.0109 46.5933 84.0109 42.4571 84.0109V77.0041H59.5877C61.8299 77.0041 64.0382 76.3085 65.8053 75.0459L67.0042 74.1895C67.6655 73.717 67.7832 72.8433 67.2673 72.2381C66.7511 71.6328 65.797 71.5249 65.1357 71.9973L63.9367 72.8539C62.7008 73.7372 61.1562 74.2236 59.5877 74.2236H42.4571V67.2168H68.2317C72.4916 67.2168 76.2564 69.9746 77.1836 73.7743C77.3661 74.5236 78.1764 74.9955 78.9967 74.8281C79.8154 74.6609 80.3307 73.9176 80.1478 73.1683C79.5525 70.7278 78.0503 68.5118 75.9177 66.9285C75.8893 66.9074 75.8598 66.8879 75.8312 66.8672C78.5117 66.0113 80.4412 63.6752 80.4412 60.9327C80.4412 58.9566 79.4389 57.1918 77.8763 56.039C79.4389 54.8861 80.4412 53.1213 80.4412 51.1454C80.4412 47.6804 77.362 44.8614 73.5773 44.8614H65.9464C65.1075 44.8614 64.4278 45.4837 64.4278 46.2517C64.4278 47.0197 65.1075 47.642 65.9464 47.642H73.5773C75.6875 47.642 77.4039 49.2138 77.4039 51.1454C77.4039 53.077 75.6873 54.6487 73.5773 54.6487H57.8982V47.6418H59.8797C60.7186 47.6418 61.3984 47.0195 61.3984 46.2515C61.3984 45.4835 60.7186 44.8612 59.8797 44.8612C55.0186 44.8612 48.47 44.8612 43.1648 44.8612C46.0958 40.8159 45.5013 36.9627 45.5801 36.3813C45.5801 35.6133 44.9003 34.991 44.0614 34.991H43.2859C43.4068 33.8244 43.3592 32.6488 43.1353 31.478C42.9067 30.659 43.0603 29.9138 42.2899 29.4184C41.519 28.9235 40.8069 29.3087 39.887 29.3903C38.2296 29.6561 36.6294 30.1914 35.1751 30.9582C33.5678 28.0965 31.6 26.6953 30.9508 26.0305C30.3579 25.4877 29.3961 25.4877 28.8034 26.0305C28.1545 26.6945 26.1835 28.1006 24.5763 30.9569C21.7201 29.4518 19.3372 29.351 18.5987 29.1871C18.2012 29.1237 17.7936 29.2067 17.464 29.4186C17.1343 29.6307 16.9102 29.9536 16.8407 30.3169C16.734 31.0762 16.225 32.6425 16.4682 34.9914H15.6926C14.8537 34.9914 14.174 35.6137 14.174 36.3817C14.2548 36.9406 13.6054 41.0287 16.8505 45.2127C11.5844 46.453 7.68165 50.8368 7.68165 56.0393C7.68165 59.5774 9.48844 62.7344 12.2994 64.7841C9.61459 65.6379 7.68165 67.9759 7.68165 70.7206C7.68165 72.6967 8.68396 74.4615 10.2465 75.6143C8.68396 76.7672 7.68165 78.5321 7.68165 80.5081C7.68165 83.2529 9.61479 85.5907 12.2994 86.4445C9.48844 88.4942 7.68165 91.6512 7.68165 95.1893C7.68165 98.5329 9.29587 101.536 11.8458 103.586H7.41416C3.42315 103.586 0.17627 106.559 0.17627 110.213V111.846C0.17627 112.614 0.856018 113.236 1.69492 113.236H8.63435V117.905C8.63435 119.355 9.92338 120.536 11.508 120.536H23.9691C25.5537 120.536 26.843 119.355 26.843 117.905V113.236H31.0871C31.926 113.236 32.6057 112.614 32.6057 111.846C32.6057 111.078 31.926 110.456 31.0871 110.456C28.455 110.456 7.08431 110.456 3.21337 110.456V110.213C3.21337 108.092 5.09791 106.367 7.41396 106.367H80.7081C83.0242 106.367 84.9085 108.092 84.9085 110.213V110.456C83.4166 110.456 39.7748 110.456 37.1593 110.456C36.3204 110.456 35.6406 111.078 35.6406 111.846C35.6406 112.614 36.3204 113.236 37.1593 113.236H61.2791V117.905C61.2791 119.355 62.5681 120.536 64.1528 120.536H76.6138C78.1985 120.536 79.4877 119.355 79.4877 117.905V113.236H86.4272C87.2661 113.236 87.9458 112.614 87.9458 111.846V110.213C87.946 106.558 84.6991 103.586 80.7083 103.586ZM23.8061 113.236V117.755H11.6719V113.236H23.8061ZM73.5769 86.7914C75.687 86.7914 77.4035 88.3632 77.4035 90.2948C77.4035 92.2264 75.6868 93.7982 73.5769 93.7982H57.8978V86.7914H73.5769ZM54.8607 86.7914V93.7984H48.7028V86.7914H54.8607ZM33.262 77.0039H33.73H39.4198V84.0107H33.2622L33.262 77.0039ZM39.4196 74.2233H33.7298H33.2618V67.2164H39.4194L39.4196 74.2233ZM48.7028 64.436V57.4289H54.3927H54.8609V64.436H48.7028ZM77.4037 60.9324C77.4037 62.8642 75.6871 64.4358 73.5771 64.4358C70.345 64.4358 60.9132 64.4358 57.898 64.4358V57.4287H73.5771C75.6871 57.4289 77.4037 59.0005 77.4037 60.9324ZM54.8607 47.6414V54.6483H54.3925H48.7026V47.6414H54.8607ZM35.4839 44.8608C36.4062 43.0506 36.9278 41.1221 37.057 39.1807C38.7215 38.2928 40.5985 37.8095 42.5402 37.7735C42.48 40.4257 41.3056 42.9709 39.2797 44.8608H35.4839ZM40.1814 32.1676C40.3523 33.1805 40.3586 34.1965 40.2035 35.2012C39.0768 35.387 37.9814 35.6951 36.9363 36.1196C36.8112 35.2565 36.6083 34.4026 36.3297 33.567C37.5078 32.8872 38.7972 32.4154 40.1814 32.1676ZM29.8422 29.0108L29.8768 28.9791L29.9113 29.0106C34.5099 33.2209 35.3679 39.8019 32.0526 44.8608H27.7019C24.383 39.7989 25.2348 33.229 29.8422 29.0108ZM20.4764 44.8608C18.4226 42.9527 17.2712 40.4589 17.2135 37.7735C19.1535 37.8093 21.0292 38.292 22.6928 39.1787C22.8226 41.1205 23.3452 43.0491 24.2696 44.861L20.4764 44.8608ZM19.5723 32.1676C20.9547 32.415 22.2427 32.8857 23.4197 33.5644C23.1405 34.4002 22.937 35.2541 22.8117 36.1172C21.7682 35.694 20.6748 35.3866 19.5502 35.2012C19.3951 34.1965 19.4014 33.1805 19.5723 32.1676ZM10.7187 56.0386C10.7187 51.4083 14.8335 47.6414 19.8912 47.6414H45.6655V54.6483H28.5352C26.9669 54.6483 25.4223 54.1619 24.1861 53.2787L22.9874 52.4221C22.3263 51.9496 21.3718 52.0571 20.8558 52.6625C20.3399 53.268 20.4574 54.1417 21.1185 54.614L22.3174 55.4708C24.0849 56.7336 26.2932 57.4287 28.5352 57.4287H45.6655V64.4358C37.9083 64.4358 28.3618 64.4358 19.8912 64.4358C14.8335 64.436 10.7187 60.6687 10.7187 56.0386ZM10.7187 70.7198C10.7187 68.788 12.4356 67.2166 14.5455 67.2166H30.2247V74.2234H14.5455C12.4354 74.2233 10.7187 72.6516 10.7187 70.7198ZM14.5455 84.0107C12.4354 84.0107 10.7187 82.4391 10.7187 80.5075C10.7187 78.5759 12.4356 77.0041 14.5455 77.0041H30.2247V84.0109C27.2083 84.0107 17.7746 84.0107 14.5455 84.0107ZM10.7187 95.1887C10.7187 90.5584 14.8335 86.7914 19.8912 86.7914H45.6655V93.7984H28.5352C26.9671 93.7984 25.4225 93.312 24.1859 92.4287L22.9872 91.5722C22.3265 91.0997 21.3718 91.2074 20.8558 91.8128C20.3399 92.4183 20.4573 93.292 21.1187 93.7641L22.3174 94.6207C24.0851 95.8835 26.2934 96.5789 28.5352 96.5789H45.6655V103.586H19.8912C14.8335 103.586 10.7187 99.819 10.7187 95.1887ZM48.7028 103.586V96.579H54.8607V103.586H48.7028ZM57.898 103.586V96.579H73.5771C75.6873 96.579 77.4037 98.1507 77.4037 100.082C77.4037 102.014 75.6871 103.586 73.5771 103.586L57.898 103.586ZM76.4508 117.755H64.3166V113.236H76.4508V117.755Z" fill="black" fill-opacity="0.25"/>
<rect x="44.4492" y="0.000732422" width="86.7387" height="90.3528" rx="20" fill="white"/>
<path d="M117.998 53.5073H116.851C119.702 50.9442 119.764 46.7311 116.99 44.0972C116.549 43.6794 116.052 43.3168 115.509 43.0187C117.69 41.8159 119.026 39.6438 119.03 37.2976C119.025 33.6134 115.793 30.6278 111.805 30.6231H102.515V23.9485C102.515 23.4219 102.052 22.9951 101.482 22.9953C101.43 22.9953 101.378 22.999 101.326 23.0064L89.0965 24.7437V23.8531C91.4978 23.397 93.2222 21.4456 93.2253 19.1809C93.2253 15.0198 88.9757 11.0456 88.7941 10.8787C88.391 10.5065 87.7376 10.5065 87.3346 10.8787C87.1529 11.0456 82.9034 15.0198 82.9034 19.1809C82.9065 21.4456 84.6309 23.397 87.0321 23.8531V25.0384L74.489 26.8214C73.9859 26.8929 73.6143 27.2923 73.6137 27.7625V38.3856C72.8598 37.6345 71.9903 36.9899 71.0332 36.4729C70.7139 36.3025 70.3203 36.3025 70.001 36.4729C66.9529 38.109 64.8953 40.9553 64.4272 44.1829C63.7138 44.0478 62.9878 43.9772 62.2596 43.9722C61.804 43.9741 61.3491 44.0014 60.8971 44.0542C60.5309 44.095 60.2162 44.3131 60.0713 44.6263C57.968 49.1841 59.6072 54.4798 64.0009 57.3214H57.0986V59.2284H59.5573L61.3358 62.5151C61.5106 62.8384 61.8684 63.0425 62.2596 63.0424H101.483C102.053 63.0424 102.515 62.6155 102.515 62.0889V59.2284H109.102L110.881 62.5151C111.056 62.8384 111.413 63.0425 111.805 63.0424H115.933C116.503 63.0424 116.966 62.6155 116.966 62.0889V59.2284H117.998C118.568 59.2284 119.03 58.8015 119.03 58.2749V54.4608C119.03 53.9343 118.568 53.5073 117.998 53.5073ZM116.966 48.7398C116.962 51.3715 114.654 53.5042 111.805 53.5073H93.2253C90.375 53.5073 88.0643 51.3728 88.0643 48.7398C88.0643 46.1068 90.375 43.9722 93.2253 43.9722H106.644C108.354 43.9722 109.74 45.2529 109.74 46.8327C109.74 48.4126 108.354 49.6933 106.644 49.6933H96.3218C95.7518 49.6933 95.2896 49.2663 95.2896 48.7398C95.2896 48.2132 95.7518 47.7863 96.3218 47.7863H103.547V45.8792H96.3218C94.6116 45.8792 93.2253 47.1599 93.2253 48.7398C93.2253 50.3196 94.6116 51.6003 96.3218 51.6003H106.644C109.493 51.5972 111.801 49.4644 111.805 46.8327C111.801 45.7977 111.429 44.7926 110.746 43.9722H111.805C114.654 43.9753 116.962 46.1081 116.966 48.7398ZM108.708 32.5301C110.418 32.5301 111.805 33.8108 111.805 35.3906C111.805 36.9705 110.418 38.2512 108.708 38.2512H98.3862C97.8162 38.2512 97.354 37.8242 97.354 37.2976C97.354 36.7711 97.8162 36.3441 98.3862 36.3441H105.612V34.4371H98.3862C96.676 34.4371 95.2896 35.7178 95.2896 37.2976C95.2896 38.8775 96.676 40.1582 98.3862 40.1582H108.708C111.557 40.1551 113.866 38.0223 113.869 35.3906C113.868 34.4071 113.535 33.4484 112.915 32.6483C115.695 33.2309 117.437 35.7848 116.807 38.3526C116.276 40.5136 114.203 42.0518 111.805 42.0652H106.644H97.354C94.5038 42.0652 92.1931 39.9306 92.1931 37.2976C92.1931 34.6646 94.5038 32.5301 97.354 32.5301H108.708ZM84.9677 19.1809C84.9677 16.7428 86.9547 14.2074 88.0643 12.9831C89.1749 14.2065 91.1609 16.7371 91.1609 19.1809C91.1555 20.3888 90.3293 21.4634 89.0965 21.866V20.1344H87.0321V21.866C85.7993 21.4634 84.9732 20.3888 84.9677 19.1809ZM70.5171 38.4209C72.8231 39.8546 74.3163 42.1644 74.5891 44.7198C73.0496 45.2877 71.6631 46.1596 70.5264 47.2742C69.3814 46.1639 67.9884 45.2974 66.4441 44.735C66.7121 42.1738 68.2062 39.8576 70.5171 38.4209ZM75.6948 46.3643C76.6844 46.0432 77.7256 45.8792 78.7746 45.8792C78.9367 45.8792 79.1059 45.885 79.2824 45.8954C80.983 50.3671 78.4375 55.2654 73.5969 56.8363C72.6073 57.1574 71.5659 57.3214 70.5171 57.3214C70.355 57.3214 70.1858 57.3156 70.0093 57.3052C68.3087 52.8335 70.8542 47.9352 75.6948 46.3643ZM61.2274 48.7398C61.2261 47.771 61.4034 46.8091 61.7517 45.8954C61.9282 45.885 62.0975 45.8792 62.2596 45.8792C64.9324 45.8718 67.4764 46.9393 69.2289 48.8037C67.5363 51.207 67.0016 54.1523 67.7529 56.9342C63.8707 55.8165 61.2266 52.4962 61.2274 48.7398ZM78.1367 61.1354H62.8975L61.8653 59.2284H79.1689L78.1367 61.1354ZM88.0643 61.1354H80.4447L81.4769 59.2284H83.9356V57.3214H77.025C81.4236 54.4837 83.067 49.1864 80.9628 44.6273C80.818 44.314 80.5033 44.0959 80.1371 44.0552C78.9626 43.9157 77.7712 43.9543 76.6101 44.1696C76.4491 43.109 76.1125 42.0777 75.612 41.1117H75.678V28.5806L100.451 25.0603V30.6231H97.354C93.3687 30.6182 90.1337 33.5987 90.1284 37.2802C90.1259 39.1079 90.9356 40.8564 92.3685 42.1167C88.4118 42.5479 85.5828 45.8606 86.0496 49.5158C86.2433 51.0324 86.995 52.4415 88.1789 53.5073H87.0321C86.4621 53.5073 85.9999 53.9343 85.9999 54.4608V58.2749C85.9999 58.8015 86.4621 59.2284 87.0321 59.2284H88.0643V61.1354ZM92.5874 61.1354H90.1287V59.2284H93.6196L92.5874 61.1354ZM100.451 61.1354H94.8953L95.9275 59.2284H100.451V61.1354ZM114.901 61.1354H112.443L111.41 59.2284H114.901V61.1354ZM116.966 57.3214H88.0643V55.4143H116.966V57.3214Z" fill="#C09B5A"/>
<path d="M79.8063 30.6235H77.7419V38.2516H79.8063V30.6235Z" fill="#C09B5A"/>
<path d="M79.8063 40.1581H77.7419V42.0651H79.8063V40.1581Z" fill="#C09B5A"/>
</svg>
