<?xml version="1.0" encoding="utf-8"?>
<svg version="1.1" id="Layer_1" xmlns="http://www.w3.org/2000/svg" xmlns:xlink="http://www.w3.org/1999/xlink" x="0px"
    y="0px" viewBox="0 0 117.11 122.88" style="enable-background:new 0 0 117.11 122.88" xml:space="preserve"
    fill="#79655E" width="50px" height="50px">
    <g>
        <path
            d="M100.96,114.79v5.04h7.95h0h0h0h0h0h0h0l0,0h0h0h0h0l0,0h0h0h0v0h0h0h0l0,0h0h0h0l0,0h0l0,0h0h0h0l0,0h0h0h0l0,0h0v0h0h0h0 l0,0h0l0,0h0l0,0h0l0,0h0l0,0h0h0l0,0l0,0h0h0h0l0,0l0.01,0h0l0.01,0l0,0l0.01,0l0,0l0.05,0l0.01,0l0.01,0 c0.24-0.02,0.43-0.1,0.56-0.21c0.09-0.07,0.16-0.17,0.21-0.29l0,0l0,0l0-0.01l0,0l0-0.01l0,0l0-0.01v0l0-0.01l0,0 c0.03-0.07,0.05-0.14,0.06-0.21l0-0.01l0,0l0-0.01l0,0l0-0.01l0,0l0-0.01l0,0l0,0l0-0.01l0,0l0-0.01l0,0l0-0.01l0-0.01l0,0 c0.04-0.31,0-0.68-0.11-1.05c-0.11-0.36-0.29-0.72-0.53-1.05l0,0c-0.18-0.25-0.34-0.38-0.47-0.49c-0.15-0.12-0.28-0.23-0.39-0.35 c-0.24-0.16-0.37-0.43-0.37-0.7h0v-0.58c-1.18-0.47-2.36-0.68-3.54-0.67C103.34,114.11,102.15,114.35,100.96,114.79L100.96,114.79z M18.55,116.14v4.1h6.46h0h0h0h0h0h0h0l0,0h0h0l0,0h0h0h0l0,0h0v0h0h0h0h0h0l0,0h0h0h0l0,0h0h0h0l0,0h0l0,0h0l0,0h0l0,0h0h0h0l0,0 h0h0h0l0,0h0h0h0l0,0h0l0,0l0,0l0,0h0l0,0h0h0l0.01,0l0,0l0.01,0l0,0l0.01,0h0l0.04,0l0,0l0.01,0c0.2-0.02,0.35-0.08,0.46-0.17 c0.07-0.06,0.13-0.14,0.17-0.23l0,0l0,0l0-0.01l0,0l0-0.01l0,0l0-0.01v0l0-0.01l0,0c0.02-0.05,0.04-0.11,0.05-0.17l0-0.01l0,0 l0-0.01l0,0l0-0.01l0,0l0-0.01l0,0l0,0l0-0.01l0,0l0-0.01l0,0l0-0.01l0-0.01l0,0c0.04-0.25,0-0.55-0.09-0.86 c-0.09-0.29-0.24-0.59-0.43-0.86l0,0c-0.15-0.21-0.28-0.31-0.38-0.4c-0.12-0.1-0.23-0.19-0.31-0.29c-0.19-0.13-0.3-0.35-0.3-0.57h0 v-0.48c-0.96-0.38-1.92-0.55-2.88-0.54C20.49,115.59,19.52,115.78,18.55,116.14L18.55,116.14z M12.9,116.62 c-1.12-0.47-2.17-0.7-3.14-0.7c-0.94,0-1.81,0.22-2.61,0.65v4.07h5.75V116.62L12.9,116.62z M7.16,115.04 c0.82-0.34,1.69-0.51,2.61-0.51c0.99,0,2.03,0.2,3.14,0.6V92.99c0-0.3-0.01-0.46-0.01-0.59c-0.02-0.51-0.03-0.77,0.23-1.06 c0.29-0.33,0.57-0.32,1.13-0.31c0.09,0,0.19,0.01,0.46,0.01h2.09c0.27,0,0.34,0,0.4,0c0.56-0.01,0.83-0.02,1.11,0.29 c0.27,0.29,0.26,0.55,0.24,1.04c0,0.1-0.01,0.23-0.01,0.5v21.81c0.96-0.3,1.92-0.47,2.88-0.48c0.96-0.01,1.93,0.14,2.89,0.46V84.58 H7.16v2.49v6.09h0c0,0.03,0,0.06-0.01,0.09V115.04L7.16,115.04z M24.4,71.02c-0.03-0.36-0.1-0.69-0.21-1 c-0.05-0.14-0.11-0.28-0.19-0.41c-0.14-0.23-0.32-0.45-0.54-0.68c-0.27-0.26-0.29-0.69-0.03-0.97c0.26-0.28,0.7-0.3,0.98-0.04 c0.33,0.3,0.59,0.64,0.8,1c0.13,0.21,0.24,0.43,0.33,0.65c0.18,0.47,0.27,0.95,0.25,1.45c0.01,0.13,0.01,0.26,0.01,0.4 c0,0.02,0,0.04,0,0.06v12.39c0,0.09-0.02,0.17-0.05,0.25v2.24h3.04c0.09-0.28,0.18-0.56,0.27-0.84c0.15-0.49,0.3-1.02,0.45-1.57 c0.89-3.35,0.82-6.87,0.75-10.37c-0.02-1.02-0.04-2.04-0.04-2.87v-0.01c-0.06-1.06-0.17-1.98-0.33-2.78 c-0.16-0.8-0.37-1.49-0.62-2.07c-1.01-2.39-3.54-3.48-6.02-4.55c-0.42-0.18-0.84-0.36-1.28-0.56c-0.06,0.07-0.11,0.14-0.17,0.21 c-0.34,0.42-0.74,0.79-1.18,1.11c-1.23,0.89-2.82,1.4-4.46,1.49c-1.63,0.08-3.33-0.27-4.77-1.1c-0.72-0.41-1.38-0.94-1.93-1.6 c-0.4,0.19-0.81,0.38-1.23,0.57c-2.38,1.09-5.07,2.31-6.05,4.36c-0.23,0.48-0.41,1.02-0.55,1.6c-0.13,0.58-0.21,1.21-0.25,1.88h0 v12.16v0.01c0.02,0.31,0.04,0.62,0.08,0.95c0.04,0.33,0.09,0.66,0.15,0.98c0.12,0.62,0.28,1.22,0.49,1.8 c0.15,0.41,0.32,0.82,0.52,1.22h3.13v-2.53c0-0.04,0-0.07,0.01-0.1v-12.9c0-0.01,0-0.03,0-0.04c0-0.22,0.01-0.44,0.04-0.65 c0.03-0.33,0.1-0.64,0.21-0.92c0.2-0.49,0.51-0.9,0.92-1.24l0,0c0.28-0.26,0.72-0.24,0.98,0.05c0.26,0.28,0.24,0.72-0.05,0.98 c-0.25,0.23-0.44,0.49-0.56,0.79c-0.06,0.15-0.1,0.31-0.13,0.49c-0.01,0.15-0.01,0.31,0.01,0.48c0,0.03,0,0.05,0,0.08h0v12.31 h17.16V73.09v-1.74h0c0-0.03,0-0.07,0.01-0.1C24.39,71.18,24.4,71.1,24.4,71.02L24.4,71.02z M25.76,87.76v4.89 c1.12-0.09,1.84-0.55,2.26-1.27l0.02-0.04l0,0l0.02-0.04l0-0.01l0.01-0.01l0.04-0.07l0-0.01l0.01-0.03l0-0.01l0.01-0.03l0-0.01 l0.01-0.03l0.01-0.02l0.01-0.03l0.01-0.01L28.21,91l0-0.01l0.02-0.04l0-0.01l0.02-0.05l0,0l0.02-0.05l0,0l0.02-0.04l0-0.01 l0.01-0.04l0-0.01l0.01-0.03l0.01-0.02l0.01-0.03l0.01-0.02l0-0.01l0.01-0.03l0-0.01l0.01-0.02l0.01-0.03l0-0.02l0.01-0.04l0-0.01 l0.01-0.04l0-0.01l0.01-0.05l0,0l0.01-0.06l0.01-0.05l0-0.01l0.01-0.05l0-0.01l0.01-0.04l0-0.02l0.01-0.03l0-0.03l0.01-0.06v0 l0-0.02l0.01-0.04l0-0.02l0.01-0.04l0-0.01l0.01-0.05l0-0.01l0.01-0.05l0,0l0.01-0.06l0,0l0.01-0.06l0-0.01l0.01-0.05l0-0.01 l0-0.04l0-0.02l0-0.04l0-0.03l0-0.03l0-0.03l0-0.01l0.01-0.11l0-0.02l0-0.02l0-0.05l0-0.01l0-0.06l0,0l0-0.06v0l0-0.06l0-0.01 l0-0.06l0-0.01l0-0.05l0-0.02l0-0.04l0-0.03l0-0.04l0-0.03l0-0.03v-0.04l0-0.03v-0.01v-0.05l0-0.05v-0.01l0-0.06v-0.01l0-0.07v0 l0-0.07v-0.01l0-0.06l0-0.01l0-0.05l0-0.02l0-0.05l0-0.03l0-0.04l0-0.04l0-0.03l-0.01-0.14H25.76L25.76,87.76z M2.95,87.76 C2.94,88,2.93,88.23,2.92,88.44v0l0,0.03l0,0.06l0,0.02v0.06l0,0.08v0.01l0,0.07v0c0,0.16,0.01,0.31,0.02,0.46l0,0.01l0,0.07 l0,0.01c0.01,0.1,0.02,0.19,0.03,0.28l0,0l0.01,0.06v0l0.01,0.07L3,89.78l0,0.01l0.01,0.05l0,0.02l0.01,0.04l0,0.02l0,0 c0.01,0.08,0.03,0.16,0.04,0.24l0,0.01l0,0.02l0.01,0.04l0,0.01l0.01,0.05l0,0.01l0.01,0.05l0,0l0.01,0.05l0,0l0.01,0.05l0,0.01 l0.02,0.06l0.01,0.04l0,0l0.01,0.03l0,0.02l0.01,0.02l0,0.01L3.2,90.7l0,0.01l0.01,0.03l0,0.01l0.01,0.03l0,0.01l0.01,0.03l0,0 l0.01,0.03l0.01,0.01l0.01,0.01l0.02,0.04l0,0.01l0.02,0.04l0,0l0.02,0.04l0,0l0.02,0.04l0.02,0.04l0,0l0,0.01l0.01,0.01l0.02,0.03 l0,0l0.02,0.03l0.01,0.01l0.02,0.03l0.01,0.02l0.01,0.02l0,0.01l0.02,0.03l0,0.01l0.01,0.02l0,0.01l0.02,0.03l0.01,0.01l0.02,0.03 l0.01,0.01l0.02,0.03l0.01,0.01l0,0.01L3.6,91.5l0,0l0.03,0.04c0.46,0.63,1.18,0.94,2.15,0.96v-4.73H2.95L2.95,87.76z M29.97,89.06 c0,0.05,0,0.09-0.01,0.14l0,0.02l0,0.06l0,0.01l0,0.05l0,0.03l0,0.05l0,0.03l0,0.05l0,0.03l0,0.01l-0.01,0.06l0,0.01l-0.01,0.06 l0,0.01l-0.01,0.05l0,0.03l-0.01,0.05l0,0.03l-0.01,0.05l0,0.03l0,0.01l-0.02,0.14l0,0l-0.01,0.05l0,0.02l-0.01,0.05l0,0.02l0,0.01 c-0.01,0.05-0.02,0.09-0.02,0.14l0,0l-0.01,0.07l-0.01,0.05l0,0.02l0,0.01c-0.02,0.11-0.05,0.22-0.08,0.33l0,0.01 c-0.01,0.04-0.02,0.08-0.04,0.13l0,0l-0.02,0.05l0,0.01l-0.02,0.07l-0.02,0.06l0,0.01l-0.02,0.06l0,0.01l-0.02,0.06l0,0.01l0,0.01 l-0.02,0.06l-0.02,0.06l0,0.01l-0.02,0.06l0,0.01l-0.02,0.06l0,0.01l-0.02,0.06l0,0l-0.02,0.06l0,0l-0.03,0.06l0,0l-0.03,0.06l0,0 l-0.03,0.06l0,0l-0.03,0.06l0,0l-0.03,0.06l0,0l-0.03,0.06l0,0l-0.03,0.06c-0.68,1.16-1.79,1.87-3.5,1.97v21.63v0.38v0.01 c0,0.11,0.01,0.17,0.02,0.22c0.21,0.17,0.39,0.37,0.56,0.57l0.01,0.01l0,0c0.05,0.05,0.09,0.11,0.14,0.18l0,0 c0.29,0.39,0.5,0.83,0.64,1.26c0.16,0.52,0.21,1.04,0.13,1.52l-0.01,0.05l0,0.02l0,0l0,0.01l0,0.01l0,0l0,0.02l0,0l0,0.01l0,0.01 l0,0l0,0.02l0,0.01l0,0.01l0,0.01l0,0l0,0.02l0,0.01l0,0.01l-0.02,0.06l0,0l0,0.02l0,0.01l0,0.01l0,0.01l0,0l0,0.02l0,0.01l0,0.01 l-0.01,0.03l0,0.01l0,0.01l-0.01,0.01l0,0l-0.01,0.02l0,0.01l0,0.01l-0.01,0.02l0,0l-0.01,0.02l-0.01,0.03v0 c-0.13,0.31-0.32,0.59-0.59,0.81c-0.32,0.26-0.73,0.43-1.23,0.47l-0.01,0l-0.01,0l-0.02,0l-0.01,0l-0.02,0l-0.01,0l-0.02,0l0,0 l-0.02,0l0,0l-0.02,0h0l0,0h0h0l0,0l0,0h0h0h0l0,0h0h0h0l0,0h0h0h0h0h0l0,0h0h0h0l0,0h0h0h0h0h0l0,0h0l0,0h0h0h0l0,0h0l0,0h0h0h0h0 h0l0,0h0h0h0l0,0l0,0h0h0h0l0,0l0,0l0,0h0h0l0,0l0,0h0h0h0h0h0h0l0,0h0l0,0h0h0h0h0h0h0h0h0h0h0h0h0h0h-7.16 c-0.38,0-0.69-0.31-0.69-0.69v-5.27V92.87c0-0.13,0.01-0.3,0.01-0.45c-0.16,0-0.33,0.01-0.37,0.01h-2.09c-0.09,0-0.27,0-0.44-0.01 c0.01,0.18,0.01,0.39,0.01,0.57v23.18v5.16c0,0.38-0.31,0.69-0.69,0.69H6.46c-0.38,0-0.69-0.31-0.69-0.69v-5.16V93.88 c-1.43-0.02-2.52-0.51-3.26-1.53L2.47,92.3l-0.04-0.05L2.4,92.19l0,0l-0.03-0.05l-0.03-0.05v0L2.3,92.03v0l-0.03-0.06h0l-0.03-0.06 l0,0l-0.03-0.06v0L2.18,91.8l0,0l-0.03-0.06l0,0l-0.03-0.06v0l-0.03-0.06v0l-0.03-0.06v0L2.04,91.5v0l-0.03-0.06l0,0l-0.02-0.06v0 L1.96,91.3v0l-0.02-0.07v0l-0.02-0.07l0,0L1.89,91.1v0l-0.02-0.07l0,0l-0.02-0.07l0,0l-0.02-0.07v0l-0.02-0.07v0l-0.02-0.07 l-0.02-0.07l0,0L1.75,90.6l0,0l-0.02-0.07v0l-0.02-0.08l0,0L1.7,90.38v0L1.69,90.3v0l-0.01-0.08v0l-0.01-0.08l0,0l-0.01-0.08v0 l-0.01-0.08l0,0L1.62,89.9v0l-0.01-0.08v0L1.6,89.74v0L1.6,89.65v0l-0.01-0.08l0,0l-0.01-0.09v0l-0.01-0.09v0l-0.01-0.09v0 l-0.01-0.09v0l0-0.09v0l0-0.09v0l0-0.09v0l0-0.09v0l0-0.09v0l0-0.09v0l0-0.09v0l0-0.09v0l0-0.1v0l0-0.1v0l0-0.1v0l0-0.1v0l0-0.1v0 l0-0.1v0l0.01-0.1v0l0.01-0.1v0l0.01-0.1v0l0.01-0.1v0l0.01-0.1l-0.01-0.01c-0.3-0.56-0.56-1.13-0.77-1.72 c-0.24-0.66-0.42-1.33-0.55-2.01c-0.07-0.36-0.13-0.72-0.17-1.08c-0.04-0.33-0.07-0.68-0.09-1.04C0,81.48,0,81.45,0,81.42V69.26h0 l0-0.03c0.04-0.76,0.13-1.48,0.28-2.15c0.15-0.68,0.37-1.31,0.65-1.89c1.2-2.5,4.13-3.83,6.72-5.02c0.58-0.26,1.14-0.52,1.64-0.77 c0.34-0.45,0.62-0.94,0.84-1.45c0.19-0.44,0.33-0.91,0.42-1.41c-0.52-0.31-1.03-0.68-1.5-1.1c-1.95-1.73-3.31-3.14-4.19-4.77 c-0.89-1.66-1.26-3.49-1.21-6.04l0.14-7.39c0-0.08,0.02-0.15,0.04-0.22l-1.72-0.54c-0.25-5.45,2.9-8.71,6.81-10.27 c1.42-0.57-0.96-3.69,2.31-2.49c4.37,1.6,14.07,3.78,16.37,6.52c1.87,2.23,1.94,3.44,1.9,6.35c-0.01,0.95-0.16,1.77-0.6,2.08 c-0.2,0.14-0.44,0.2-0.72,0.17v6.32c0,3.5-1.25,6.43-3.17,8.59c-1.08,1.22-2.38,2.2-3.78,2.91c0.08,0.45,0.2,0.88,0.35,1.29 c0.18,0.49,0.4,0.96,0.67,1.4c0.47,0.22,1.01,0.45,1.56,0.69c2.73,1.18,5.51,2.38,6.75,5.28c0.28,0.67,0.52,1.44,0.7,2.34 c0.17,0.87,0.3,1.86,0.36,2.97c0,0.03,0.01,0.06,0.01,0.09c0,1.07,0.02,1.96,0.04,2.85c0.07,3.6,0.15,7.23-0.8,10.76 c-0.14,0.54-0.3,1.08-0.47,1.62c-0.15,0.49-0.3,0.96-0.45,1.4c0.01,0.07,0.01,0.14,0.01,0.21l0,0.06l0,0.03l0,0.02l0,0.07l0,0.05 l0,0.03l0,0.05l0,0.04l0,0.05l0,0.04l0,0.05l0,0.04l0,0.05l0,0.04l0,0.02l0,0.06v0l0,0.05l0,0.04l0,0.05l0,0.04l0,0.04v0.01v0.07v0 l0,0.04l0,0.04v0l0,0.07v0.02l0,0.07l0,0.04l0,0.04l0,0.04l0,0.04l0,0.04l0,0.04L29.97,89.06L29.97,89.06z M13.15,57.62 c-0.44-0.12-0.88-0.26-1.31-0.44c-0.11,0.45-0.25,0.88-0.42,1.3c-0.22,0.53-0.5,1.02-0.83,1.5c0.37,0.41,0.79,0.76,1.24,1.05 c1.22,0.79,2.69,1.16,4.14,1.12c1.44-0.04,2.85-0.48,3.95-1.31c0.29-0.22,0.56-0.47,0.81-0.75c0.07-0.09,0.14-0.18,0.21-0.27 c-0.25-0.45-0.47-0.92-0.65-1.41c-0.14-0.38-0.25-0.77-0.34-1.17c-1.41,0.5-2.83,0.75-4.23,0.73 C14.84,57.97,13.98,57.85,13.15,57.62L13.15,57.62z M11.69,55.58c0.46,0.24,0.93,0.44,1.4,0.59l0.02,0.01 c0.88,0.27,1.8,0.4,2.73,0.4c1.48,0,2.98-0.34,4.38-0.97c1.4-0.64,2.69-1.57,3.75-2.77c1.71-1.93,2.82-4.54,2.82-7.68v-6.4h0 c-0.02-0.44-0.08-0.85-0.2-1.21c-0.12-0.35-0.28-0.66-0.51-0.93c-0.85-1-1.65-0.96-2.8-0.9c-0.1,0.01-0.21,0.01-0.35,0.02 c-4.54,0.2-7.52,0.19-9.93-0.02c-2.23-0.19-3.97-0.56-6.01-1.1c-0.19,0.45-0.42,0.89-0.68,1.32C6,36.5,5.61,37.02,5.17,37.52 l-0.14,7.13c-0.04,2.3,0.28,3.93,1.05,5.37c0.79,1.46,2.05,2.77,3.88,4.39c0.48,0.43,1,0.79,1.54,1.09 C11.58,55.51,11.64,55.54,11.69,55.58L11.69,55.58z M12.81,51.36c-0.32-0.21-0.41-0.64-0.2-0.96c0.21-0.32,0.64-0.41,0.96-0.2 c0.79,0.51,1.54,0.79,2.26,0.8c0.7,0.01,1.39-0.24,2.07-0.77c0.3-0.23,0.74-0.18,0.97,0.12c0.23,0.3,0.18,0.74-0.12,0.97 c-0.94,0.73-1.92,1.07-2.93,1.05C14.81,52.36,13.81,52.01,12.81,51.36L12.81,51.36z M10.23,42.69c0.83,0,1.49,0.67,1.49,1.49 c0,0.82-0.67,1.49-1.49,1.49s-1.49-0.67-1.49-1.49C8.73,43.36,9.4,42.69,10.23,42.69L10.23,42.69z M21.5,42.69 c0.83,0,1.49,0.67,1.49,1.49c0,0.82-0.67,1.49-1.49,1.49s-1.49-0.67-1.49-1.49C20.01,43.36,20.67,42.69,21.5,42.69L21.5,42.69z M14.15,92.26c-0.06,0.07-0.02,0.05,0.03,0.04C14.2,92.23,14.23,92.18,14.15,92.26L14.15,92.26z M17.31,92.27 c-0.07-0.07-0.05-0.03-0.03,0.02C17.33,92.31,17.37,92.34,17.31,92.27L17.31,92.27z M72.5,35.73L72.5,35.73L72.5,35.73z M48.55,21.38c1.03,0,1.86,0.83,1.86,1.86c0,1.03-0.83,1.86-1.86,1.86c-1.03,0-1.86-0.83-1.86-1.86 C46.69,22.21,47.52,21.38,48.55,21.38L48.55,21.38z M50.82,33.22c-0.4-0.28-0.5-0.82-0.22-1.22c0.28-0.4,0.82-0.5,1.22-0.22 c0.89,0.62,1.77,0.93,2.62,0.93c0.86,0,1.73-0.31,2.63-0.93c0.4-0.27,0.94-0.17,1.22,0.22c0.27,0.4,0.17,0.94-0.22,1.22 c-1.19,0.82-2.4,1.23-3.62,1.24C53.22,34.45,52.01,34.04,50.82,33.22L50.82,33.22z M60.74,21.38c1.03,0,1.86,0.83,1.86,1.86 c0,1.03-0.83,1.86-1.86,1.86c-1.03,0-1.86-0.83-1.86-1.86C58.89,22.21,59.72,21.38,60.74,21.38L60.74,21.38z M46.16,114.94 c0.78,0.3,1.54,0.52,2.26,0.65c0.71,0.12,1.38,0.14,2.03,0.05l0.07-0.79l0-0.02l1.51-18.27l-0.46-0.02 c-1.48-0.06-2.94-0.12-4.45-0.19l-0.33-0.02l-0.18-0.01L46.16,114.94L46.16,114.94z M50.31,117.18c-0.69,0.06-1.4,0.02-2.14-0.1 c-0.89-0.15-1.8-0.42-2.74-0.8c-1,0.35-1.68,0.67-2.44,1.01c-0.25,0.11-0.5,0.23-0.73,0.33l-0.45,0.2 c-1.23,0.54-2.33,1.02-1.92,2.34c0.07,0.24,0.2,0.43,0.38,0.58c0.2,0.16,0.47,0.29,0.81,0.38h7.92c0.31-0.09,0.55-0.24,0.71-0.44 l0,0l0,0c0.19-0.22,0.31-0.54,0.36-0.94L50.31,117.18L50.31,117.18z M64.42,116.33c-0.89,0.35-1.76,0.6-2.6,0.75 c-0.8,0.13-1.58,0.17-2.32,0.08l0.23,2.59c0.05,0.4,0.17,0.71,0.36,0.94c0.17,0.2,0.4,0.35,0.71,0.44h8.13 c0.35-0.09,0.62-0.22,0.81-0.38c0.18-0.15,0.31-0.35,0.38-0.58c0.44-1.4-0.76-1.93-2.07-2.52l-0.21-0.1 c-0.02-0.01-0.03-0.01-0.05-0.02c-0.56-0.25-1.11-0.49-1.69-0.71C65.57,116.63,65.02,116.46,64.42,116.33L64.42,116.33z M59.35,115.61c0.7,0.12,1.44,0.11,2.21-0.02c0.65-0.11,1.33-0.3,2.03-0.56l-0.24-18.54c-0.85,0.06-1.75,0.11-2.64,0.14 c-0.94,0.03-1.88,0.05-2.79,0.05l1.35,18.14l0,0.03L59.35,115.61L59.35,115.61z M65.1,96.32l0.24,18.42 c0.48,0.12,0.93,0.27,1.36,0.43c0.63,0.23,1.21,0.49,1.8,0.75l0.04,0.02l0.21,0.09c2.06,0.92,3.93,1.76,3.03,4.64 c-0.17,0.56-0.49,1.03-0.95,1.41c-0.43,0.35-0.97,0.61-1.64,0.76c-0.06,0.01-0.13,0.02-0.19,0.02v0h-8.34 c-0.09,0-0.18-0.01-0.27-0.04c-0.71-0.19-1.26-0.53-1.67-1.03c-0.42-0.5-0.67-1.12-0.76-1.87l0-0.03h0L57.54,115 c0-0.02,0-0.03,0-0.05l-1.36-18.29c-0.3,0-0.59-0.01-0.89-0.01c-0.5-0.01-1-0.02-1.5-0.03l-1.52,18.36l0,0.03l-0.43,4.91h0l0,0.03 c-0.09,0.75-0.34,1.37-0.76,1.87l0,0c-0.41,0.5-0.97,0.84-1.67,1.03c-0.09,0.03-0.18,0.04-0.27,0.04H41v0 c-0.06,0-0.13-0.01-0.19-0.02c-0.67-0.15-1.22-0.41-1.64-0.76c-0.46-0.38-0.77-0.85-0.95-1.41c-0.88-2.81,0.9-3.59,2.9-4.47 c0.09-0.04,0.18-0.08,0.43-0.19c0.28-0.13,0.5-0.23,0.71-0.33c0.69-0.32,1.32-0.61,2.16-0.92l0.44-18.53 c-0.59-0.03-1.18-0.05-1.78-0.08l-0.07,0c-0.91-0.04-1.87-0.08-2.73-0.23c-1.85-0.34-3.18-1.15-2.8-3.25 c0.01-0.03,0.01-0.06,0.02-0.1l0,0c1.09-3.65,1.94-7.53,2.58-11.58c0.04-0.23,0.07-0.45,0.11-0.68c-1.17-0.23-2.11-0.81-2.78-1.82 c-0.76-1.16-1.1-2.86-0.92-5.24h0c0-0.35-0.13-0.76-0.26-1.17c-0.08-0.24-0.16-0.49-0.22-0.79C36.01,71.29,36,71.26,36,71.24 c-0.16-0.97-0.25-1.94-0.29-2.91c-0.04-0.98-0.02-1.94,0.06-2.9h0c0.01-0.11,0.04-0.22,0.08-0.31c-0.1-1.35-0.11-2.61-0.03-3.87 c0.09-1.4,0.29-2.77,0.61-4.23c1.57-7.25,3.49-8.84,8-12.57c0.61-0.5,1.26-1.04,1.89-1.57c0.01-0.01,0.03-0.02,0.04-0.03 c0.14-0.18,0.24-0.3,0.33-0.42c0.47-0.59,0.85-1.08,1.16-1.73c-1.97-1.05-3.8-2.63-5.36-4.76c-1.17,0.29-2.17,0.55-3,0.77 c-0.96,0.25-1.71,0.45-2.2,0.56c-0.07,0.02-0.14,0.02-0.21,0.02c-0.48-0.01-0.87-0.41-0.85-0.9l0.5-21.15c0-0.03,0-0.06,0-0.1 c0.13-1.25,0.41-2.46,0.83-3.63c0.43-1.17,0.99-2.29,1.67-3.36c1.86-2.92,4.17-5,6.89-6.33c2.7-1.32,5.8-1.89,9.24-1.8 c2.95,0.07,5.82,0.81,8.36,2.27c2.38,1.36,4.48,3.36,6.12,6.04c0.61,0.99,1.13,2.03,1.57,3.12c0.43,1.07,0.79,2.18,1.06,3.34 c0.02,0.08,0.04,0.16,0.04,0.25l0,20.71c0,0.28-0.13,0.55-0.37,0.72c-0.4,0.28-0.94,0.18-1.22-0.21c-0.4-0.56-0.91-1.04-1.52-1.43 c-0.46-0.3-0.98-0.55-1.54-0.77c-1.82,2.95-4.19,5.16-6.82,6.55c0.24,0.68,0.57,1.2,0.97,1.85l0.18,0.28 c1.38,0.63,2.73,1.43,4.01,2.6c1.32,1.22,2.55,2.83,3.64,5.06c1.41,2.9,2.13,5.91,2.86,8.97l0.34,1.41l1.11,4.55 c0.07,0.29-0.01,0.57-0.19,0.78c0.04,0.78,0.05,1.56,0.02,2.35c-0.04,0.98-0.13,1.95-0.29,2.91c0,0.03-0.01,0.05-0.02,0.08 c-0.07,0.3-0.15,0.54-0.22,0.79c-0.13,0.41-0.26,0.82-0.26,1.17h0c0.18,2.38-0.16,4.08-0.92,5.24c-0.65,0.98-1.56,1.56-2.68,1.8 l0.01,0.05c0.61,4.02,1.33,7.98,2.2,11.83l0,0c0.19,0.76,0.19,1.46-0.08,2.05c-0.28,0.64-0.82,1.1-1.67,1.36 c-0.05,0.01-0.1,0.02-0.14,0.03C68.24,95.99,66.65,96.18,65.1,96.32L65.1,96.32z M58.85,38.71c0.2-0.09,0.4-0.18,0.61-0.28 c0.03-0.01,0.05-0.02,0.08-0.03c2.98-1.49,5.62-4.24,7.28-8.03c0.58-1.33,0.85-2.54,0.96-3.75c0.35-3.72,0.03-8.74,0.03-12.59 c-3.05,0.47-4.32-1.57-4.88-4.61c-6.23,5.68-13.49,6.93-21.62,4.42c0,3.82-0.3,8.61,0,12.3c0.09,1.11,0.31,2.24,0.78,3.49 C45.6,38.86,52.82,41.3,58.85,38.71L58.85,38.71z M61.93,44.53c-0.67,0.84-1.45,1.53-2.3,2.09c-1.63,1.07-3.53,1.62-5.43,1.63 c-1.9,0-3.8-0.54-5.42-1.67c-0.31-0.22-0.61-0.45-0.9-0.71c-0.39-0.33-0.76-0.69-1.11-1.08c-0.44,0.37-0.84,0.7-1.22,1.01 c-4.18,3.46-5.96,4.93-7.41,11.58c-0.3,1.38-0.49,2.67-0.58,3.97c-0.07,1.05-0.07,2.11,0.01,3.25l4.68-0.04 c0.11-0.6,0.23-1.2,0.36-1.8c0.16-0.81,0.34-1.61,0.55-2.39c0.32-1.23,0.71-2.44,1.17-3.68c0.14-0.38,0.29-0.75,0.44-1.12 c0.19-0.45,0.7-0.66,1.15-0.47c0.45,0.19,0.66,0.7,0.47,1.15c-0.76,1.83-1.36,3.82-1.84,5.89c-0.08,0.35-0.16,0.7-0.24,1.06 c-0.13,0.68-0.25,1.38-0.36,2.11c0.02,0.11,0.01,0.22-0.01,0.33c-0.14,0.6-0.26,1.19-0.38,1.79l-0.05,0.33 c3.53,0.83,7.49,1.21,11.38,1.19c3.34-0.05,6.77-0.42,10.25-1.07c0.33-0.07,0.65-0.15,0.97-0.23c-0.14-0.59-0.27-1.17-0.39-1.75 c-0.04-0.09-0.07-0.18-0.08-0.28c-0.02-0.12-0.04-0.25-0.06-0.37l-0.01-0.07c-0.56-2.58-1.11-5.14-2.1-7.57 c-0.17-0.4-0.34-0.78-0.51-1.16c-0.21-0.44-0.02-0.96,0.42-1.17c0.44-0.21,0.96-0.02,1.17,0.42l0.01,0.03 c0.2,0.41,0.38,0.82,0.54,1.23c0.43,1.04,0.82,2.14,1.17,3.31c0.4,1.37,0.74,2.83,1,4.37h4.91l-0.85-3.47 c-0.23-0.95-0.29-1.18-0.34-1.42c-0.71-2.96-1.4-5.88-2.73-8.6c-0.98-2.02-2.08-3.46-3.25-4.54C64.03,45.7,63,45.05,61.93,44.53 L61.93,44.53z M49.44,41.42c-0.37,0.8-0.83,1.38-1.38,2.08c0.32,0.41,0.67,0.78,1.04,1.11c0.07,0.05,0.13,0.11,0.2,0.16 c1.44,1.11,3.13,1.69,4.81,1.71c1.68,0.03,3.38-0.5,4.83-1.58c0.57-0.43,1.1-0.94,1.58-1.53l0-0.01c-0.45-0.71-0.82-1.29-1.1-2.04 C56.19,42.58,52.69,42.66,49.44,41.42L49.44,41.42z M67.74,80.02c-0.04-0.09-0.06-0.19-0.07-0.29h0l-0.02-0.36 c-0.48-3.28-0.89-6.6-1.26-9.96c-0.33,0.06-0.65,0.13-0.97,0.19c-3.18,0.69-6.81,1.07-10.49,1.09H54.9c-0.15,0-0.31,0-0.46,0 c-3.85,0.02-7.61-0.36-11.27-1.23l-0.04,0.22c-0.3,3.98-0.72,7.86-1.32,11.59c-0.66,4.12-1.51,8.06-2.62,11.76 c-0.09,0.7,0.54,1.01,1.4,1.17c0.73,0.13,1.63,0.17,2.49,0.2l0.07,0c1.31,0.05,2.55,0.11,3.76,0.17l6.04,0.22c0.03,0,0.07,0,0.11,0 c0.07,0.01,0.14,0.02,0.2,0.04c0.69,0.02,1.38,0.04,2.06,0.05c1.22,0.02,2.43,0.02,3.65,0c1.67-0.03,3.38-0.11,5.18-0.25 c1.74-0.14,3.55-0.35,5.45-0.63c0.29-0.1,0.46-0.22,0.53-0.38c0.09-0.21,0.08-0.52-0.02-0.91l0,0l0-0.02 c-0.89-3.94-1.62-7.94-2.24-11.97L67.74,80.02L67.74,80.02z M41.39,69.51c0.03-0.4,0.06-0.8,0.09-1.2c0.01-0.21,0.1-0.39,0.23-0.53 c0.04-0.22,0.08-0.44,0.13-0.66c0.04-0.24,0.08-0.49,0.11-0.73h-4.48c-0.03,0.63-0.03,1.25-0.01,1.87 c0.03,0.89,0.12,1.78,0.27,2.67c0.04,0.18,0.12,0.41,0.19,0.64c0.18,0.56,0.36,1.12,0.33,1.8l0,0.03l0,0 c-0.15,1.97,0.08,3.32,0.63,4.15c0.34,0.52,0.83,0.84,1.44,1.01c0.16-2.05,0.36-4.11,0.64-6.18 C41.08,71.42,41.23,70.47,41.39,69.51L41.39,69.51z M67.97,67.9l0.04,0.17c0.02,0.06,0.02,0.12,0.03,0.18 c0.26,1.41,0.49,2.83,0.68,4.25c0.28,2.07,0.48,4.13,0.64,6.18c0.61-0.17,1.1-0.49,1.44-1.01c0.55-0.83,0.78-2.18,0.63-4.15l0,0 l0-0.03c-0.03-0.67,0.15-1.24,0.33-1.8c0.07-0.23,0.15-0.46,0.19-0.64c0.15-0.89,0.23-1.79,0.27-2.67 c0.02-0.63,0.02-1.27-0.01-1.91l-4.53-0.04C67.78,66.91,67.88,67.41,67.97,67.9L67.97,67.9z M37.28,37.25L37.28,37.25L37.28,37.25z M94.02,115.38c-1.38-0.58-2.67-0.86-3.85-0.86c-1.16,0-2.23,0.27-3.21,0.79v5h7.06V115.38L94.02,115.38z M86.95,113.44 c1.01-0.41,2.08-0.62,3.21-0.62c1.21,0,2.5,0.24,3.85,0.74V86.34c0-0.36-0.01-0.56-0.01-0.72c-0.02-0.62-0.04-0.94,0.28-1.3 c0.36-0.4,0.69-0.39,1.39-0.38c0.11,0,0.23,0.01,0.57,0.01h2.57c0.33,0,0.42,0,0.49,0c0.68-0.01,1.02-0.02,1.37,0.36 c0.33,0.36,0.32,0.67,0.3,1.28c0,0.13-0.01,0.28-0.01,0.61v26.8c1.17-0.37,2.36-0.58,3.54-0.59c1.19-0.01,2.37,0.17,3.55,0.56 V76.01H86.96v3.06v7.48h0c0,0.04,0,0.07-0.01,0.11V113.44L86.95,113.44z M108.15,59.35c-0.04-0.44-0.12-0.85-0.26-1.23 c-0.06-0.17-0.14-0.34-0.23-0.5c-0.18-0.28-0.4-0.56-0.66-0.83c-0.33-0.32-0.35-0.85-0.04-1.19c0.32-0.35,0.86-0.37,1.2-0.05 c0.4,0.37,0.73,0.78,0.98,1.23c0.16,0.26,0.29,0.53,0.4,0.8c0.23,0.58,0.33,1.17,0.31,1.78c0.01,0.16,0.01,0.32,0.01,0.49 c0,0.02,0,0.05,0,0.07v15.22c0,0.11-0.02,0.21-0.06,0.3v2.75h3.74c0.11-0.34,0.22-0.69,0.33-1.03c0.19-0.61,0.37-1.25,0.56-1.93 c1.1-4.11,1.01-8.44,0.92-12.75c-0.03-1.26-0.05-2.51-0.05-3.53v-0.02c-0.07-1.3-0.21-2.43-0.41-3.41 c-0.2-0.98-0.45-1.83-0.76-2.55c-1.25-2.94-4.35-4.28-7.4-5.59c-0.52-0.22-1.03-0.44-1.57-0.69c-0.07,0.09-0.14,0.17-0.21,0.26 c-0.42,0.51-0.91,0.97-1.45,1.36c-1.52,1.1-3.47,1.73-5.49,1.82c-2.01,0.1-4.09-0.33-5.86-1.35c-0.88-0.51-1.69-1.16-2.38-1.96 c-0.49,0.23-0.99,0.46-1.51,0.7c-2.93,1.34-6.23,2.84-7.44,5.36c-0.29,0.59-0.51,1.25-0.67,1.96c-0.16,0.71-0.26,1.48-0.31,2.31h0 v14.94l0,0.01c0.02,0.38,0.05,0.77,0.1,1.17c0.05,0.41,0.11,0.81,0.19,1.21c0.15,0.76,0.35,1.5,0.61,2.21 c0.18,0.51,0.4,1,0.64,1.49h3.85v-3.11c0-0.04,0-0.09,0.01-0.13V59.13c0-0.02,0-0.03,0-0.05c0-0.27,0.01-0.54,0.05-0.79 c0.03-0.41,0.12-0.79,0.26-1.14c0.24-0.6,0.62-1.1,1.13-1.52l0,0c0.35-0.32,0.88-0.29,1.2,0.06c0.32,0.35,0.29,0.88-0.06,1.2 c-0.31,0.29-0.54,0.61-0.68,0.97c-0.07,0.19-0.13,0.39-0.16,0.6c-0.01,0.18-0.01,0.38,0.02,0.59c0,0.03,0.01,0.06,0.01,0.09h0 v15.13h21.09V61.89v-2.13h0c0-0.04,0-0.08,0.01-0.13C108.13,59.53,108.14,59.44,108.15,59.35L108.15,59.35z M109.81,79.92v6.01 c1.38-0.12,2.27-0.67,2.78-1.56l0.03-0.05l0-0.01l0.03-0.05l0.01-0.01l0.01-0.02l0.05-0.09l0-0.01l0.02-0.03l0-0.01l0.02-0.03 l0.01-0.01l0.01-0.03l0.01-0.02l0.02-0.04l0.01-0.02l0.02-0.04l0.01-0.01l0.02-0.05l0-0.01l0.02-0.06l0,0l0.02-0.06l0,0l0.02-0.05 l0-0.01l0.02-0.05l0.01-0.02l0.01-0.04l0.01-0.02l0.01-0.04l0.01-0.03l0-0.01L113,83.4l0-0.01l0.01-0.03l0.01-0.04l0.01-0.02 l0.01-0.05l0-0.01l0.01-0.05l0-0.01l0.02-0.06l0,0l0.02-0.07l0.01-0.06l0-0.01l0.01-0.06l0-0.02l0.01-0.05l0-0.02l0.01-0.04 l0.01-0.03l0.01-0.07v0l0.01-0.03l0.01-0.04l0-0.02l0.01-0.05l0-0.02l0.01-0.06l0-0.01l0.01-0.07l0,0l0.01-0.07l0,0l0.01-0.07 l0-0.01l0.01-0.06l0-0.02l0.01-0.05l0-0.03l0-0.05l0-0.03l0-0.04l0-0.04l0-0.01l0.01-0.14l0-0.02l0-0.02l0-0.06l0-0.01l0-0.07 l0-0.01l0-0.08v0l0-0.08l0-0.01l0-0.07l0-0.02l0-0.06l0-0.03l0-0.05l0-0.03l0-0.05l0-0.04l0-0.04l0-0.05v-0.03v-0.01v-0.07l0-0.07 v-0.02l0-0.08v-0.01l0-0.08v0l0-0.08V80.5l0-0.07l0-0.02l0-0.07l0-0.03l0-0.06l0-0.03l0-0.05l0-0.04l0-0.04l-0.01-0.17H109.81 L109.81,79.92z M81.78,79.92c-0.02,0.29-0.03,0.57-0.03,0.84l0,0l0,0.03l0,0.07l0,0.02v0.08l0,0.1v0.01l0,0.09v0 c0,0.19,0.01,0.38,0.02,0.56l0,0.01l0.01,0.08l0,0.01c0.01,0.12,0.02,0.23,0.03,0.34l0,0.01l0.01,0.08l0,0l0.01,0.08l0.01,0.07 l0,0.01l0.01,0.06l0,0.02l0.01,0.05l0,0.03l0,0.01c0.02,0.1,0.03,0.2,0.05,0.29l0,0.02l0,0.02l0.01,0.05l0,0.02l0.01,0.06l0,0.01 l0.02,0.06l0,0l0.02,0.07l0,0l0.02,0.06l0,0.01l0.02,0.07l0.02,0.05l0,0l0.01,0.04l0.01,0.02l0.01,0.02l0,0.01l0.02,0.05l0,0.01 l0.01,0.03l0,0.01l0.01,0.04l0,0.01l0.01,0.04l0,0.01l0.02,0.04l0.01,0.02l0.01,0.02l0.02,0.05l0,0.01l0.02,0.05l0,0.01l0.02,0.05 l0,0l0.02,0.05l0.02,0.05l0,0l0,0.01l0.01,0.02l0.02,0.04l0,0l0.02,0.04l0.01,0.02l0.02,0.03l0.01,0.02l0.02,0.03l0,0.01l0.02,0.04 l0,0.01l0.02,0.03l0.01,0.01l0.02,0.03l0.01,0.01l0.02,0.04l0.01,0.01l0.02,0.04l0.01,0.01l0.01,0.01l0.03,0.04l0,0l0.03,0.04 c0.56,0.77,1.45,1.15,2.64,1.18v-5.82H81.78L81.78,79.92z M114.99,81.51c0,0.06-0.01,0.11-0.01,0.17l0,0.02l0,0.07l0,0.01l0,0.06 l0,0.04l0,0.06l0,0.04l0,0.06l0,0.04l0,0.02l-0.01,0.07l0,0.01l-0.01,0.08l0,0.01l-0.01,0.06l0,0.03l-0.01,0.06l0,0.03l-0.01,0.06 l0,0.03l0,0.01l-0.02,0.17l0,0.01l-0.01,0.06l0,0.03l-0.01,0.06l0,0.03l0,0.01c-0.01,0.06-0.02,0.11-0.03,0.17l0,0l-0.02,0.09 l-0.01,0.06l0,0.02l0,0.02c-0.03,0.14-0.06,0.28-0.1,0.41l0,0.01c-0.01,0.05-0.03,0.1-0.04,0.16l0,0l-0.02,0.07l0,0.01l-0.03,0.08 l-0.02,0.07l0,0.01l-0.02,0.07l0,0.01l-0.02,0.07l0,0.01l0,0.01l-0.02,0.07l-0.03,0.07l0,0.01l-0.03,0.07l0,0.01l-0.03,0.07l0,0.01 l-0.03,0.07l0,0.01l-0.03,0.07l0,0.01l-0.03,0.07l0,0l-0.03,0.07l0,0l-0.03,0.07l0,0L114.18,85l0,0l-0.04,0.07l0,0l-0.04,0.07l0,0 l-0.04,0.07c-0.83,1.43-2.2,2.3-4.31,2.42v26.58v0.46v0.01c0,0.13,0.01,0.21,0.03,0.27c0.25,0.21,0.49,0.45,0.69,0.71l0.01,0.01 l0,0c0.06,0.07,0.11,0.14,0.17,0.22l0,0c0.35,0.48,0.62,1.01,0.78,1.54c0.2,0.63,0.26,1.28,0.16,1.86l-0.01,0.07l0,0.02l0,0l0,0.02 l0,0.02l0,0l0,0.02l0,0.01l0,0.01l0,0.02l0,0l0,0.02l0,0.01l0,0.01l0,0.02l0,0l0,0.02l0,0.01l0,0.01l-0.02,0.08l0,0l-0.01,0.02 l0,0.01l0,0.01l-0.01,0.02l0,0l-0.01,0.02l0,0.01l0,0.01l-0.01,0.04l0,0.01l0,0.01l-0.01,0.02v0l-0.01,0.02l0,0.01l0,0.01 l-0.01,0.02v0l-0.01,0.02l-0.01,0.04v0c-0.16,0.39-0.4,0.73-0.73,1c-0.39,0.32-0.89,0.53-1.51,0.58l-0.02,0l-0.01,0l-0.02,0 l-0.01,0l-0.02,0l-0.01,0l-0.02,0l-0.01,0l-0.03,0l0,0l-0.03,0h0l0,0h0h0l0,0h0h0l0,0h0h0h0l0,0h0h0h0l0,0h0h0h0l0,0h0h0h0l0,0h0h0 h0l0,0h0h0h0l-0.01,0h0h0h0l0,0h0l0,0h0h0h0l0,0h0h0h0l0,0h0h0h0l0,0h0h0h0l0,0l0,0h0h0h0l0,0l0,0h0h0h0h0h0l0,0h0l0,0h0l0,0h0h0h0 h0h0h0h0h0h0h0h0h-8.8c-0.47,0-0.85-0.38-0.85-0.85v-6.47V86.19c0-0.15,0.01-0.37,0.01-0.56c-0.2,0-0.41,0.01-0.46,0.01h-2.57 c-0.11,0-0.34-0.01-0.54-0.01c0.01,0.22,0.02,0.48,0.02,0.7v28.49v6.34c0,0.47-0.38,0.85-0.85,0.85H86.1 c-0.47,0-0.85-0.38-0.85-0.85v-6.34V87.43c-1.75-0.02-3.1-0.63-4.01-1.88l-0.04-0.06l-0.04-0.06l-0.04-0.06v0l-0.04-0.07 l-0.04-0.07l0,0l-0.04-0.07v0l-0.04-0.07h0l-0.04-0.07l0,0l-0.04-0.07l0,0l-0.04-0.07l0,0l-0.04-0.07l0,0l-0.04-0.07v0l-0.03-0.07 v0l-0.03-0.08v0l-0.03-0.08l0,0l-0.03-0.08v0l-0.03-0.08v0l-0.03-0.08l0,0l-0.03-0.08v0l-0.03-0.08v0l-0.03-0.08v0l-0.03-0.08v0 l-0.03-0.09v0l-0.03-0.09v0l-0.02-0.09v0l-0.02-0.09l-0.02-0.09l0,0l-0.02-0.09l0,0l-0.02-0.09v0l-0.02-0.09l0,0l-0.02-0.09l0,0 l-0.02-0.09v0l-0.02-0.1l0,0l-0.02-0.1l0,0l-0.02-0.1v0l-0.01-0.1l0,0l-0.01-0.1v0l-0.01-0.1v0l-0.01-0.1l0,0l-0.01-0.1v0 l-0.01-0.1v0l-0.01-0.1l0,0l-0.01-0.11v0l-0.01-0.11v0l-0.01-0.11v0l-0.01-0.11v0l-0.01-0.11v0l0-0.11v0l0-0.11v0l0-0.11v0l0-0.11 v0l0-0.12v0l0-0.12v0l0-0.12v0l0-0.12v0l0-0.12l0,0l0-0.12v0l0.01-0.12v0l0.01-0.12v0l0.01-0.12v0l0.01-0.12v0l0.01-0.13l0,0 l0.01-0.13l0,0l0.01-0.13l-0.01-0.01c-0.37-0.69-0.69-1.39-0.95-2.12c-0.29-0.81-0.52-1.63-0.68-2.47 c-0.09-0.45-0.16-0.89-0.21-1.33c-0.05-0.41-0.08-0.83-0.11-1.27c0-0.04-0.01-0.07-0.01-0.11V57.17h0l0-0.04 c0.05-0.94,0.16-1.82,0.35-2.64c0.19-0.83,0.45-1.61,0.8-2.32c1.48-3.07,5.07-4.71,8.26-6.17c0.71-0.32,1.4-0.64,2.01-0.94 c0.42-0.55,0.77-1.15,1.03-1.79c0.23-0.55,0.4-1.12,0.51-1.73c-0.64-0.38-1.26-0.84-1.85-1.35c-2.39-2.12-4.07-3.86-5.14-5.86 c-1.09-2.03-1.55-4.29-1.49-7.43l0.17-9.08c0-0.1,0.02-0.19,0.05-0.28l-2.12-0.67c-0.31-6.69,3.57-10.7,8.37-12.62 c1.75-0.7-1.18-4.53,2.84-3.06c5.37,1.97,17.29,4.64,20.11,8.02c2.29,2.74,2.39,4.23,2.33,7.8c-0.02,1.16-0.2,2.18-0.73,2.56 c-0.25,0.17-0.54,0.24-0.89,0.21v7.77c0,4.3-1.54,7.9-3.9,10.56c-1.33,1.5-2.92,2.71-4.65,3.57c0.1,0.55,0.25,1.08,0.43,1.58 c0.22,0.6,0.49,1.17,0.83,1.72c0.58,0.27,1.25,0.56,1.91,0.84c3.36,1.45,6.78,2.92,8.29,6.49c0.35,0.82,0.64,1.77,0.86,2.87 c0.21,1.07,0.37,2.28,0.44,3.65c0,0.04,0.01,0.07,0.01,0.11c0,1.31,0.02,2.41,0.04,3.5c0.09,4.43,0.18,8.89-0.98,13.22 c-0.18,0.66-0.37,1.32-0.57,1.99c-0.19,0.6-0.37,1.17-0.56,1.72c0.01,0.09,0.01,0.17,0.02,0.26l0,0.07l0,0.04l0,0.02l0.01,0.09 l0,0.07l0,0.04l0,0.06l0,0.04l0,0.06l0,0.04l0,0.06l0,0.05l0,0.06l0,0.05l0,0.02l0,0.08v0.01l0,0.06l0,0.05l0,0.06l0,0.05l0,0.05 v0.01v0.09v0l0,0.05l0,0.05v0l0,0.09l0,0.03l0,0.09l0,0.05l0,0.05l0,0.05l0,0.05l0,0.05l0,0.05L114.99,81.51L114.99,81.51z M94.31,42.88c-0.55-0.14-1.08-0.32-1.61-0.54c-0.13,0.55-0.3,1.09-0.52,1.6c-0.27,0.65-0.61,1.26-1.02,1.84 c0.45,0.5,0.97,0.93,1.52,1.29c1.5,0.97,3.31,1.43,5.09,1.38c1.77-0.04,3.5-0.58,4.85-1.61c0.36-0.27,0.69-0.58,0.99-0.92 c0.09-0.11,0.17-0.22,0.25-0.33c-0.31-0.55-0.58-1.13-0.8-1.74c-0.17-0.46-0.31-0.94-0.42-1.44c-1.73,0.62-3.48,0.93-5.2,0.9 C96.39,43.3,95.34,43.15,94.31,42.88L94.31,42.88z M92.53,40.36c0.56,0.3,1.14,0.54,1.72,0.73l0.02,0.01 c1.08,0.33,2.21,0.5,3.35,0.5c1.82,0,3.67-0.41,5.38-1.19c1.72-0.78,3.31-1.93,4.61-3.4c2.1-2.37,3.47-5.58,3.47-9.44v-7.87h0 c-0.02-0.54-0.1-1.04-0.24-1.49c-0.14-0.43-0.35-0.82-0.62-1.14c-1.04-1.22-2.03-1.17-3.44-1.1c-0.13,0.01-0.25,0.01-0.43,0.02 c-5.58,0.24-9.24,0.24-12.2-0.02c-2.74-0.24-4.88-0.69-7.38-1.35c-0.23,0.55-0.51,1.09-0.83,1.62c-0.41,0.67-0.88,1.32-1.42,1.93 l-0.17,8.76c-0.05,2.83,0.34,4.83,1.29,6.6c0.97,1.8,2.53,3.4,4.77,5.39c0.59,0.53,1.23,0.97,1.89,1.34 C92.38,40.28,92.46,40.32,92.53,40.36L92.53,40.36z M93.9,35.17c-0.39-0.26-0.5-0.78-0.25-1.17c0.26-0.39,0.78-0.5,1.17-0.25 c0.97,0.63,1.9,0.97,2.78,0.98c0.86,0.01,1.7-0.29,2.54-0.94c0.37-0.29,0.91-0.22,1.19,0.15c0.29,0.37,0.22,0.91-0.15,1.19 c-1.15,0.9-2.36,1.31-3.61,1.29C96.36,36.41,95.13,35.98,93.9,35.17L93.9,35.17z M90.73,24.52c1.01,0,1.84,0.82,1.84,1.84 c0,1.01-0.82,1.84-1.84,1.84c-1.01,0-1.84-0.82-1.84-1.84C88.89,25.34,89.71,24.52,90.73,24.52L90.73,24.52z M104.58,24.52 c1.01,0,1.84,0.82,1.84,1.84c0,1.01-0.82,1.84-1.84,1.84c-1.01,0-1.84-0.82-1.84-1.84C102.74,25.34,103.57,24.52,104.58,24.52 L104.58,24.52z M95.55,85.44c-0.07,0.08-0.03,0.06,0.03,0.04C95.61,85.41,95.64,85.34,95.55,85.44L95.55,85.44z M99.43,85.46 c-0.08-0.09-0.06-0.04-0.04,0.03C99.45,85.51,99.51,85.55,99.43,85.46L99.43,85.46z" />
    </g>
</svg>