<?xml version="1.0" encoding="utf-8"?>
<!-- Generator: Adobe Illustrator 16.0.0, SVG Export Plug-In . SVG Version: 6.00 Build 0)  -->
<!DOCTYPE svg PUBLIC "-//W3C//DTD SVG 1.1//EN" "http://www.w3.org/Graphics/SVG/1.1/DTD/svg11.dtd">
<svg version="1.1" id="Layer_1" xmlns="http://www.w3.org/2000/svg" xmlns:xlink="http://www.w3.org/1999/xlink" x="0px"
	y="0px" fill="#79655E" width="50px" height="50px" viewBox="0 0 119.8 122.88"
	style="enable-background:new 0 0 119.8 122.88;" xml:space="preserve">
	<g>
		<path d="M59.9,0c13.92,0,26.57,5.69,35.74,14.86c9.17,9.17,14.86,21.82,14.86,35.74v53.92H9.3V50.6c0-13.92,5.69-26.57,14.86-35.74
		S45.98,0,59.9,0L59.9,0z M64.3,9.03v41.69h37.41V50.6c0-11.49-4.71-21.94-12.28-29.52C82.82,14.48,74.04,10.06,64.3,9.03L64.3,9.03
		z M64.3,59.53v36.19h37.41V59.53H64.3L64.3,59.53z M55.5,95.72V59.53H18.1v36.19H55.5L55.5,95.72z M55.5,50.73V9.03
		c-9.75,1.03-18.52,5.45-25.12,12.05C22.8,28.66,18.1,39.11,18.1,50.6v0.12H55.5L55.5,50.73z M0,114.08h119.8v8.8H0V114.08L0,114.08
		z" />
	</g>
</svg>