<svg width="262" height="139" viewBox="0 0 262 139" fill="none" xmlns="http://www.w3.org/2000/svg">
<path d="M0 0.0314941H262V92.0766C262 104.406 256.609 116.23 247.012 124.948C237.416 133.666 224.4 138.564 210.828 138.564H51.1719C37.6003 138.564 24.5845 133.666 14.9879 124.948C5.39131 116.23 0 104.406 0 92.0766L0 0.0314941Z" fill="#E2EEFB"/>
<path d="M88.8799 95.828C89.4602 95.828 89.4602 95.8418 89.4602 96.2286V98.2182C89.4602 99.5031 89.3911 99.6413 88.7556 99.7242L88.4516 99.7656C88.3411 99.8485 88.3411 100.166 88.4516 100.249C89.1148 100.222 89.7918 100.208 90.4826 100.208C91.1182 100.208 91.7952 100.222 92.486 100.249C92.5965 100.166 92.5965 99.8485 92.486 99.7656L92.1544 99.7104C91.5189 99.5998 91.436 99.5031 91.436 98.2182V93.0785C91.436 91.7936 91.5189 91.6692 92.1544 91.5725L92.4307 91.5311C92.5413 91.4482 92.5413 91.1304 92.4307 91.0475C91.7952 91.0751 91.1596 91.0889 90.4826 91.0889C89.8194 91.0889 89.1424 91.0751 88.3825 91.0475C88.272 91.1304 88.272 91.4482 88.3825 91.5311L88.7556 91.5863C89.3911 91.683 89.4602 91.7936 89.4602 93.0785V94.6812C89.4602 95.0819 89.4602 95.0957 88.8799 95.0957H86.0061C85.4396 95.0957 85.4258 95.0819 85.4258 94.6812V93.0785C85.4258 91.7936 85.5087 91.6554 86.1028 91.5725L86.393 91.5311C86.5035 91.4482 86.5035 91.1304 86.393 91.0475C85.785 91.0751 85.0942 91.0889 84.4725 91.0889C83.8093 91.0889 83.0908 91.0751 82.4138 91.0475C82.3033 91.1304 82.3033 91.4482 82.4138 91.5311L82.7454 91.5725C83.381 91.6554 83.4501 91.7936 83.4501 93.0785V98.2182C83.4501 99.5031 83.381 99.6413 82.7454 99.7242L82.4138 99.7656C82.3033 99.8485 82.3033 100.166 82.4138 100.249C83.1185 100.222 83.8093 100.208 84.4725 100.208C85.0942 100.208 85.785 100.222 86.5726 100.249C86.6831 100.166 86.6831 99.8485 86.5726 99.7656L86.1305 99.7104C85.5087 99.6275 85.4258 99.5031 85.4258 98.2182V96.2286C85.4258 95.8418 85.4396 95.828 86.0061 95.828H88.8799ZM106.781 90.8679C103.894 90.8679 101.849 92.9818 101.849 95.7174C101.849 98.6051 103.866 100.429 106.643 100.429C109.614 100.429 111.631 98.6189 111.631 95.6069C111.631 92.8022 109.655 90.8679 106.781 90.8679ZM109.42 95.7865C109.42 98.0248 108.716 99.7933 106.906 99.7933C104.654 99.7933 104.06 97.0853 104.06 95.3997C104.06 93.0923 104.971 91.5034 106.671 91.5034C108.384 91.5034 109.42 93.4239 109.42 95.7865ZM123.579 98.2182C123.579 99.5031 123.497 99.6275 122.875 99.6966L122.253 99.7656C122.143 99.8485 122.143 100.166 122.253 100.249C123.22 100.222 123.939 100.208 124.602 100.208C125.224 100.208 125.914 100.222 126.813 100.249C126.909 100.166 126.909 99.8485 126.813 99.7656L126.26 99.6966C125.638 99.6137 125.555 99.5031 125.555 98.2182V92.1252C125.555 91.7659 125.597 91.7245 125.928 91.7245H126.757C127.794 91.7245 127.987 92.3739 128.222 93.2581C128.291 93.3686 128.664 93.341 128.733 93.2167C128.705 92.4291 128.802 91.31 128.94 90.8402C128.913 90.7988 128.816 90.7435 128.733 90.7435C128.65 90.7435 128.609 90.7573 128.553 90.785C128.429 91.0751 128.222 91.0889 127.31 91.0889H122.17C121.12 91.0889 121.079 91.0337 121.01 90.7988C120.954 90.7573 120.885 90.7435 120.816 90.7435C120.747 90.7435 120.678 90.7712 120.623 90.8126C120.526 91.3514 120.457 92.2081 120.167 93.1614C120.25 93.341 120.512 93.3686 120.678 93.2857C121.093 92.2771 121.383 91.7245 122.391 91.7245H123.248C123.579 91.7245 123.579 91.7936 123.579 92.1252V98.2182ZM140.802 92.2633C140.802 91.7521 140.802 91.7245 141.258 91.7245H142.363C143.04 91.7245 143.455 91.8903 143.717 92.1528C143.897 92.3462 144.09 92.7607 144.242 93.2443C144.381 93.3686 144.698 93.341 144.754 93.189C144.684 92.2633 144.588 91.2685 144.574 91.0475C144.394 91.0751 143.607 91.0889 142.723 91.0889H139.793C139.13 91.0889 138.453 91.0751 137.804 91.0475C137.666 91.1304 137.652 91.4482 137.776 91.5311L138.122 91.6001C138.743 91.7245 138.826 91.8074 138.826 93.0647V98.2182C138.826 99.4893 138.743 99.5722 138.122 99.6689L137.472 99.7656C137.362 99.8347 137.362 100.166 137.472 100.249C138.509 100.222 139.186 100.208 139.849 100.208H141.645C142.778 100.208 144.104 100.222 144.836 100.249C145.03 99.8762 145.361 98.757 145.417 98.0386C145.361 97.8728 145.016 97.8175 144.906 97.9695C144.146 99.5308 143.676 99.5722 142.474 99.5722C141.465 99.5722 141.203 99.4617 141.023 99.213C140.857 98.9781 140.802 98.536 140.802 97.9004V96.2563C140.802 95.8418 140.816 95.828 141.189 95.828H142.142C142.861 95.828 143.027 95.9385 143.165 96.6017L143.234 96.9471C143.33 97.0714 143.676 97.0576 143.745 96.9333C143.717 96.4912 143.704 95.9938 143.704 95.4687C143.704 94.9437 143.717 94.4463 143.745 94.0042C143.676 93.8798 143.33 93.8798 143.234 93.9904L143.165 94.3358C143.027 94.999 142.861 95.0957 142.142 95.0957H141.189C140.816 95.0957 140.802 95.0681 140.802 94.6812V92.2633ZM157.282 93.0785C157.282 91.7936 157.365 91.683 157.987 91.5863L158.346 91.5311C158.456 91.4482 158.456 91.1304 158.346 91.0475C157.655 91.0751 156.964 91.0889 156.301 91.0889C155.638 91.0889 154.947 91.0751 154.228 91.0475C154.063 91.1304 154.063 91.4482 154.201 91.5311L154.602 91.5863C155.223 91.6692 155.306 91.7936 155.306 93.0785V98.2182C155.306 99.5031 155.223 99.6137 154.602 99.6966L154.077 99.7656C153.966 99.8485 153.994 100.166 154.118 100.249C154.975 100.222 155.665 100.208 156.301 100.208H158.152C159.285 100.208 160.612 100.222 161.344 100.249C161.537 99.8762 161.869 98.7294 161.938 98.011C161.841 97.8452 161.524 97.7899 161.413 97.9281C160.598 99.5308 160.211 99.5722 158.954 99.5722C157.945 99.5722 157.696 99.4617 157.517 99.2268C157.337 99.0057 157.282 98.5636 157.282 97.9142V93.0785ZM176.693 97.6241C176.693 96.1043 175.602 95.3029 174.745 94.847L173.833 94.3634C173.143 94.0042 172.576 93.4239 172.576 92.7884C172.576 92.0975 173.074 91.5034 173.985 91.5034C174.98 91.5034 175.574 92.512 175.809 93.2167C175.934 93.3548 176.279 93.341 176.348 93.1752C176.348 92.2495 176.21 91.5034 176.099 91.1995C175.934 91.1718 175.809 91.1442 175.63 91.0889C175.077 90.9231 174.51 90.8679 174.054 90.8679C172.051 90.8679 170.835 91.9456 170.849 93.5068C170.849 94.8746 171.941 95.7036 172.935 96.201C173.764 96.6155 174.814 97.2787 174.814 98.3978C174.814 99.0886 174.345 99.7933 173.322 99.7933C172.148 99.7933 171.222 98.5222 170.946 97.6241C170.835 97.4721 170.517 97.4859 170.421 97.6655C170.421 98.6051 170.6 99.5998 170.863 99.9038C171.153 100.07 171.941 100.429 173.212 100.429C175.298 100.429 176.693 99.3235 176.693 97.6241Z" fill="#79655E"/>
<path d="M51.4298 61.1471C51.4298 57.7206 51.6508 57.4259 53.3088 57.1679L54.2668 57.0206C54.5615 56.7995 54.5615 55.9521 54.2668 55.731C52.4246 55.8047 50.5824 55.8416 48.8139 55.8416C47.0454 55.8416 45.2032 55.8047 43.2873 55.731C42.8452 55.9521 42.8452 56.7995 43.2136 57.0206L44.2821 57.1679C45.9401 57.389 46.1611 57.7206 46.1611 61.1471V74.8529C46.1611 78.2794 45.9401 78.5742 44.2821 78.7952L42.882 78.9794C42.5873 79.2005 42.661 80.0479 42.9926 80.269C45.2769 80.1953 47.1191 80.1584 48.8139 80.1584H53.7509C56.7721 80.1584 60.3091 80.1953 62.2618 80.269C62.7777 79.2742 63.6619 76.2162 63.8461 74.3003C63.5882 73.8582 62.7408 73.7108 62.4461 74.0792C60.2723 78.3531 59.2407 78.4636 55.8879 78.4636C53.1983 78.4636 52.5351 78.1689 52.0561 77.5425C51.5772 76.953 51.4298 75.774 51.4298 74.0424V61.1471ZM71.7244 70.358C71.7244 74.374 72.5349 77.1004 74.4508 78.6847C76.4404 80.3058 78.9457 80.7479 81.7459 80.7479C84.7302 80.7479 87.4198 79.8269 89.0409 78.0952C91.0673 75.8477 91.3989 72.6792 91.3989 69.2159V65.0894C91.3989 62.105 91.5463 59.3049 91.9516 58.3469C92.2832 57.5732 92.9832 57.3522 93.9411 57.1311L94.6043 56.9837C94.8991 56.689 94.8254 55.9521 94.6043 55.731C93.2043 55.8047 91.841 55.8416 90.4778 55.8416C88.9672 55.8416 87.5303 55.8047 85.5408 55.731C85.3197 55.9521 85.246 56.689 85.5408 56.9837L86.5355 57.1679C87.5303 57.3522 88.3409 57.5732 88.6725 58.3469C89.0778 59.3049 89.2251 62.105 89.2251 65.0894V69.5474C89.2251 74.595 87.7882 78.7215 83.0722 78.7215C77.472 78.7215 76.993 73.9687 76.993 69.658V61.1471C76.993 57.7206 77.2141 57.4259 78.872 57.1311L79.7563 56.9837C80.051 56.7627 80.051 55.9521 79.7563 55.731C77.9878 55.8047 76.1825 55.8416 74.3771 55.8416C72.6086 55.8416 70.7664 55.8047 68.9979 55.731C68.5926 55.9521 68.6295 56.7627 68.9242 56.9837L69.8453 57.1679C71.5033 57.4995 71.7244 57.7206 71.7244 61.1471V70.358ZM100.066 79.0531C99.7342 79.2742 99.8448 80.0848 100.213 80.269C101.319 80.1953 102.866 80.1584 104.082 80.1584C105.629 80.1584 107.287 80.1953 108.908 80.269C109.314 80.1216 109.35 79.2374 109.019 78.9794L108.061 78.8689C107.287 78.7952 106.882 78.611 106.882 78.3899C106.882 78.1689 106.956 77.911 107.214 77.3952C108.429 75.074 110.161 72.2739 111.598 70.1738C112.151 70.8738 114.951 75.1845 115.503 76.1793C116.424 77.7268 116.572 78.0584 116.572 78.3531C116.572 78.5742 116.13 78.7584 115.209 78.8689L114.214 78.9794C113.845 79.1637 113.993 80.1216 114.324 80.269C116.314 80.1953 117.972 80.1584 120.514 80.1584C123.498 80.1584 124.641 80.1953 126.262 80.269C126.63 80.0111 126.63 79.2374 126.372 78.9794L125.23 78.8321C123.83 78.6479 122.909 78.132 121.619 76.1793C120.293 74.1898 118.488 71.4265 115.724 67.1526C115.356 66.5999 115.209 66.1947 115.209 66.0104C115.209 65.8262 115.577 65.2736 115.945 64.7578C117.677 62.3998 119.298 59.9681 121.067 58.1627C121.73 57.4995 122.393 57.3522 123.167 57.2416L124.714 57.0206C124.972 56.689 124.935 55.9153 124.567 55.731C123.388 55.8047 121.877 55.8416 120.109 55.8416C118.377 55.8416 117.198 55.8047 116.056 55.731C115.651 55.9153 115.651 56.7627 115.945 57.0206L117.419 57.2785C117.898 57.3522 118.156 57.5364 118.156 57.6469C118.156 57.8311 118.156 58.089 117.751 58.7522C116.609 60.7049 115.393 62.5103 114.03 64.5735C112.887 62.9156 111.561 60.8892 110.566 59.1575C110.124 58.3838 109.977 58.0522 109.977 57.7206C109.977 57.4627 110.64 57.2785 111.229 57.1679L112.04 57.0206C112.298 56.7258 112.298 55.9153 111.893 55.731C110.751 55.8047 109.277 55.8416 106.292 55.8416C104.045 55.8416 101.724 55.8047 100.545 55.731C100.176 55.9521 100.176 56.7258 100.508 57.0206L101.134 57.1311C102.792 57.4259 103.566 57.9048 104.413 59.1207C106.145 61.5892 108.466 65.2367 109.682 67.0421C110.161 67.7053 110.345 68.1842 110.345 68.3316C110.345 68.5527 110.161 68.9948 109.829 69.4738C108.245 71.8318 106.256 74.7056 105.187 76.1056C103.971 77.7636 103.124 78.6479 100.913 78.9426L100.066 79.0531ZM134.553 70.358C134.553 74.374 135.364 77.1004 137.279 78.6847C139.269 80.3058 141.774 80.7479 144.575 80.7479C147.559 80.7479 150.248 79.8269 151.87 78.0952C153.896 75.8477 154.228 72.6792 154.228 69.2159V65.0894C154.228 62.105 154.375 59.3049 154.78 58.3469C155.112 57.5732 155.812 57.3522 156.77 57.1311L157.433 56.9837C157.728 56.689 157.654 55.9521 157.433 55.731C156.033 55.8047 154.67 55.8416 153.306 55.8416C151.796 55.8416 150.359 55.8047 148.369 55.731C148.148 55.9521 148.075 56.689 148.369 56.9837L149.364 57.1679C150.359 57.3522 151.17 57.5732 151.501 58.3469C151.906 59.3049 152.054 62.105 152.054 65.0894V69.5474C152.054 74.595 150.617 78.7215 145.901 78.7215C140.301 78.7215 139.822 73.9687 139.822 69.658V61.1471C139.822 57.7206 140.043 57.4259 141.701 57.1311L142.585 56.9837C142.88 56.7627 142.88 55.9521 142.585 55.731C140.816 55.8047 139.011 55.8416 137.206 55.8416C135.437 55.8416 133.595 55.8047 131.827 55.731C131.421 55.9521 131.458 56.7627 131.753 56.9837L132.674 57.1679C134.332 57.4995 134.553 57.7206 134.553 61.1471V70.358ZM167.537 74.8529C167.537 78.2426 167.316 78.5005 165.658 78.7952L164.663 78.9794C164.368 79.1637 164.368 80.0479 164.663 80.269C166.579 80.1953 168.2 80.1584 170.042 80.1584C171.811 80.1584 173.506 80.1953 175.458 80.269C175.716 80.0479 175.716 79.1637 175.458 78.9794L174.463 78.7952C172.805 78.5005 172.584 78.2426 172.584 74.8529V70.3212C172.584 69.5843 172.658 69.5106 173.948 69.5106C174.869 69.5106 175.458 69.8054 175.9 70.8001C176.748 72.7529 177.595 74.5582 178.774 76.5109C180.395 79.1637 182.532 80.3795 185.922 80.3795C187.064 80.3795 188.243 80.3058 188.833 80.0479C189.017 79.8269 189.017 79.2742 188.685 79.09C188.132 79.0531 187.175 78.8321 186.217 78.0584C184.448 76.5478 182.938 73.7845 180.506 68.8474C180.322 68.4421 180.322 68.2211 180.69 68.0369C182.385 67.1894 184.595 65.7894 184.595 62.5103C184.595 60.1523 183.49 58.3101 181.353 57.0574C179.953 56.21 177.264 55.731 174.132 55.731C170.632 55.731 167.758 55.8784 164.995 56.0626C164.552 56.2469 164.552 57.1679 164.921 57.3522L165.916 57.4995C167.463 57.7206 167.537 58.1259 167.537 61.8103V74.8529ZM172.584 59.3049C172.584 57.5364 172.658 57.4259 174.169 57.4259C177.043 57.4259 178.995 59.5628 178.995 62.8787C178.995 65.0525 178.295 66.2315 177.669 66.8579C176.969 67.5579 176.195 67.8895 174.869 67.8895C172.695 67.8895 172.584 67.7789 172.584 66.4894V59.3049ZM205.448 72.2739C205.448 70.1738 205.706 69.2527 206.664 67.521L208.985 63.3209C210.754 60.1154 211.638 58.7891 212.191 58.089C212.596 57.5732 213.443 57.3153 214.106 57.2048L215.064 57.0206C215.359 56.7627 215.359 55.8784 214.917 55.731C213.849 55.8047 212.706 55.8416 211.306 55.8416C209.98 55.8416 208.654 55.8047 207.18 55.731C206.811 55.9153 206.848 56.8364 207.143 57.0206L207.843 57.1679C208.727 57.3153 209.317 57.5364 209.317 57.7574C209.317 58.1996 208.875 59.3049 207.548 61.9208C206.59 63.7998 205.448 66.1947 204.38 68C203.938 67.0789 203.09 65.3841 202.538 64.1683L200.806 60.226C200.032 58.4943 199.848 57.9417 199.848 57.6469C199.848 57.6101 200.069 57.4627 200.732 57.3153L201.985 57.0206C202.316 56.7258 202.243 55.8784 201.911 55.731C200.658 55.8047 198.779 55.8416 196.532 55.8416C194.358 55.8416 192.995 55.8047 191.337 55.731C190.895 55.8416 190.858 56.7258 191.19 57.0206L192.442 57.2416C193.732 57.4627 194.063 58.0522 194.8 59.5628L199.185 68.6264C200.143 70.5791 200.18 71.1686 200.18 73.0108V74.8529C200.18 78.2794 199.958 78.5373 198.3 78.7952L197.048 78.9794C196.753 79.2005 196.753 80.0479 197.048 80.269C199.222 80.1953 201.064 80.1584 202.832 80.1584C204.601 80.1584 206.406 80.1953 208.801 80.269C209.059 80.0479 209.059 79.2005 208.801 78.9794L207.327 78.7952C205.669 78.5742 205.448 78.2794 205.448 74.8529V72.2739Z" fill="#79655E"/>
</svg>
