<svg width="50" height="49" viewBox="0 0 50 49" fill="none" xmlns="http://www.w3.org/2000/svg">
<path d="M42.1197 2.87731C37.511 1.4972 31.3966 0.737976 24.9029 0.737976C18.4092 0.737976 12.2948 1.4972 7.68607 2.87731C2.58596 4.40413 0 6.45519 0 8.97363C0.000506571 9.10425 0.0081331 9.23469 0.0228276 9.36405C0.00787624 9.4414 0.000215822 9.52064 0 9.60018V39.8573C0 42.3757 2.58596 44.4269 7.68607 45.9536C12.2948 47.3337 18.4092 48.093 24.9029 48.093C31.3966 48.093 37.511 47.3337 42.1197 45.9536C47.2198 44.4269 49.8058 42.3757 49.8058 39.8573V9.60018C49.8056 9.52064 49.7979 9.4414 49.783 9.36405C49.7977 9.23469 49.8053 9.10425 49.8058 8.97363C49.8058 6.45519 47.2198 4.40413 42.1197 2.87731ZM3.13361 7.0627C4.26213 6.26397 5.97119 5.50886 8.0759 4.87883C12.5605 3.5363 18.5366 2.79689 24.9029 2.79689C31.2692 2.79689 37.2453 3.5363 41.7302 4.87883C43.8349 5.50938 45.544 6.26397 46.6725 7.0627C47.6086 7.72541 48.1456 8.42184 48.1456 8.97363C48.1456 9.52541 47.6086 10.2218 46.6722 10.8846C45.8909 11.4379 44.8312 11.9693 43.555 12.4534C42.7902 11.4769 40.998 10.7557 37.9463 10.1536C34.4551 9.4648 29.8229 9.08558 24.9026 9.08558C19.9823 9.08558 15.35 9.46493 11.8589 10.1536C8.80712 10.7557 7.01494 11.4769 6.25021 12.4534C4.97394 11.9693 3.91422 11.4369 3.13299 10.8846C2.19716 10.2218 1.66019 9.52541 1.66019 8.97363C1.66019 8.42184 2.19716 7.72541 3.13361 7.0627ZM41.7302 39.8343C41.3873 39.9372 41.035 40.0357 40.6747 40.1311V28.8522C41.1708 28.7254 41.6525 28.5924 42.1197 28.4533C42.7884 28.253 43.4136 28.0437 43.9951 27.8254V39.0466C43.307 39.325 42.549 39.5893 41.7302 39.8343ZM14.1116 16.4553V27.7652C12.9551 27.5892 11.8447 27.3842 10.7913 27.1512V15.8581C11.8487 16.0845 12.9585 16.2839 14.1116 16.4553ZM15.7718 16.6791C16.8495 16.8098 17.9585 16.9173 19.0922 17.0008V28.322C17.9569 28.2375 16.8475 28.1281 15.7718 27.9948V16.6791ZM20.7524 17.1038C21.8419 17.1596 22.9512 17.1932 24.0728 17.2045V28.5285C22.9502 28.5172 21.8413 28.4831 20.7524 28.4264V17.1038ZM25.733 17.2045C26.8546 17.1932 27.9639 17.1596 29.0534 17.1038V28.4262C27.9645 28.483 26.8556 28.5171 25.733 28.5284V17.2045ZM30.7136 17.0002C31.8473 16.9172 32.9563 16.8097 34.034 16.6785V27.9936C32.9583 28.1269 31.8489 28.2363 30.7136 28.3208V17.0002ZM35.6941 16.4552C36.8473 16.2838 37.9571 16.0843 39.0145 15.8579V27.1512C37.961 27.3842 36.8507 27.5888 35.6941 27.7652V16.4552ZM24.9029 15.1504C18.7536 15.1504 12.9689 14.4604 8.53962 13.2035C9.31897 12.8633 10.6274 12.4453 12.8062 12.0583C16.1247 11.4689 20.4208 11.1446 24.9026 11.1446C29.3844 11.1446 33.6809 11.4693 36.999 12.0583C39.178 12.4452 40.4862 12.8632 41.2655 13.2035C36.8369 14.4604 31.0521 15.1504 24.9029 15.1504ZM7.68607 15.0699C8.15252 15.2093 8.63418 15.3424 9.13106 15.4692V26.7482C8.77121 26.6527 8.41853 26.554 8.07559 26.4513C7.25681 26.2069 6.49841 25.942 5.81068 25.6638V14.4426C6.39292 14.6604 7.01805 14.8695 7.68607 15.0699ZM7.68607 28.4529C8.15252 28.5923 8.63418 28.7254 9.13106 28.8522V40.1311C8.77121 40.0357 8.41853 39.937 8.07559 39.8343C7.25681 39.5898 6.49841 39.325 5.81068 39.0467V27.8255C6.39292 28.0434 7.01805 28.2525 7.68607 28.4529ZM10.7913 29.241C11.8487 29.4675 12.9585 29.667 14.1116 29.8384V41.1483C12.9551 40.9722 11.8447 40.7672 10.7913 40.5343V29.241ZM15.7718 30.062C16.8495 30.1929 17.9585 30.3004 19.0922 30.3837V41.7049C17.9569 41.6204 16.8475 41.511 15.7718 41.3777V30.062ZM20.7524 30.4867C21.8419 30.5425 22.9512 30.5761 24.0728 30.5874V41.9115C22.9502 41.9001 21.8413 41.866 20.7524 41.8093V30.4867ZM25.733 30.5874C26.8546 30.5761 27.9639 30.5425 29.0534 30.4867V41.8092C27.9645 41.8659 26.8556 41.9 25.733 41.9113V30.5874ZM30.7136 30.3831C31.8473 30.3001 32.9563 30.1926 34.034 30.0614V41.3767C32.9583 41.51 31.8489 41.6194 30.7136 41.7039V30.3831ZM35.6941 29.8381C36.8473 29.6667 37.9571 29.4673 39.0145 29.2408V40.5342C37.961 40.7671 36.8507 40.9717 35.6941 41.1481V29.8381ZM41.7302 26.4512C41.3873 26.5542 41.035 26.6526 40.6747 26.7481V15.4691C41.1708 15.3423 41.6525 15.2093 42.1197 15.0702C42.7884 14.87 43.4136 14.6607 43.9951 14.4424V25.6637C43.307 25.942 42.549 26.2063 41.7302 26.4513V26.4512ZM1.66019 12.1682C2.30393 12.7284 3.13403 13.2523 4.15048 13.7397V24.8916C3.80287 24.706 3.46344 24.4977 3.13361 24.2675C2.19716 23.6048 1.66019 22.9083 1.66019 22.3566V12.1682ZM1.66019 25.5511C2.30393 26.1114 3.13403 26.6352 4.15048 27.1227V38.2745C3.80287 38.0889 3.46344 37.8806 3.13361 37.6504C2.19716 36.9877 1.66019 36.2913 1.66019 35.7395V25.5511ZM46.6722 41.7682C45.5437 42.5668 43.8346 43.3221 41.7299 43.9521C37.2453 45.2946 31.2692 46.034 24.9029 46.034C18.5366 46.034 12.5605 45.2946 8.07559 43.9521C5.97088 43.3216 4.26182 42.5668 3.1333 41.7682C2.19716 41.1055 1.66019 40.4091 1.66019 39.8573V38.934C2.93799 40.0463 4.94661 41.0135 7.68607 41.8358C12.2948 43.2159 18.4092 43.9751 24.9029 43.9751C31.3966 43.9751 37.511 43.2159 42.1197 41.8358C44.8561 41.0166 46.8648 40.0493 48.1456 38.934V39.8573C48.1456 40.4091 47.6086 41.1055 46.6722 41.7682ZM46.6722 37.6504C46.3423 37.8806 46.0029 38.0889 45.6553 38.2745V27.1227C46.6707 26.6355 47.5008 26.1116 48.1456 25.5511V35.7395C48.1456 36.2913 47.6086 36.9877 46.6722 37.6504ZM46.6722 24.2675C46.3423 24.4977 46.0029 24.706 45.6553 24.8916V13.7397C46.6707 13.2526 47.5008 12.7287 48.1456 12.1682V22.3566C48.1456 22.9083 47.6086 23.6048 46.6722 24.2675Z" fill="#C7A975"/>
</svg>
