<svg width="52" height="48" viewBox="0 0 52 48" fill="none" xmlns="http://www.w3.org/2000/svg">
<path d="M49.02 21.1673V4.99742C49.02 2.78024 47.6003 0.978149 45.8548 0.978149H5.83322C4.08777 0.978149 2.66802 2.78024 2.66802 4.99742V21.169C1.1592 21.4592 0 23.1162 0 25.1107V35.12C0 35.8186 0.446664 36.3855 0.997018 36.3855H2.06449V42.6287C2.06449 43.3273 2.51116 43.8943 3.06151 43.8943H4.86146V46.3308C4.86146 47.0294 5.30812 47.5963 5.85848 47.5963C6.40883 47.5963 6.85549 47.0294 6.85549 46.3308V43.8943H44.8312V46.3308C44.8312 47.0294 45.2779 47.5963 45.8283 47.5963C46.3786 47.5963 46.8253 47.0294 46.8253 46.3308V43.8943H48.6252C49.1756 43.8943 49.6222 43.3273 49.6222 42.6287V36.3855H50.6897C51.2401 36.3855 51.6867 35.8186 51.6867 35.12V25.1107C51.6881 23.1162 50.5289 21.4592 49.02 21.1673ZM4.66073 4.99742C4.66073 4.17737 5.18582 3.50918 5.83322 3.50918H45.8535C46.4996 3.50918 47.026 4.17737 47.026 4.99742V21.1234H43.5258C44.2224 20.1718 44.9309 19.1712 45.6647 18.0997C45.9904 17.6239 45.9904 16.9152 45.6647 16.4377C42.78 12.2294 40.3659 9.16518 37.0505 5.50363C36.6756 5.08854 36.1173 5.08854 35.7411 5.50363C32.427 9.16349 30.0116 12.2294 27.1282 16.4377C26.8012 16.9135 26.8012 17.6222 27.1282 18.0997C27.862 19.1712 28.5705 20.1718 29.2671 21.1234H22.4209C23.1175 20.1718 23.8261 19.1712 24.5599 18.0997C24.8869 17.6239 24.8869 16.9152 24.5599 16.4377C21.6752 12.2311 19.2611 9.16518 15.9456 5.50363C15.5708 5.08854 15.0124 5.08854 14.6362 5.50363C11.3221 9.16518 8.90669 12.2294 6.02332 16.4377C5.6963 16.9135 5.6963 17.6222 6.02332 18.0997C6.75712 19.1712 7.46567 20.1718 8.16225 21.1234H4.66073V4.99742ZM32.0176 21.1218C31.1003 19.9271 30.1737 18.6565 29.206 17.2678C31.5895 13.8442 33.6992 11.1664 36.3951 8.14096C39.0911 11.1647 41.2021 13.8442 43.5856 17.2678C42.6179 18.6565 41.6913 19.9271 40.774 21.1218H32.0176ZM10.9127 21.1218C9.99544 19.9254 9.06887 18.6565 8.1011 17.2678C10.4846 13.8459 12.5943 11.1664 15.2916 8.14096C17.9875 11.1664 20.0985 13.8442 22.4821 17.2678C21.5143 18.6565 20.5878 19.9271 19.6705 21.1218H10.9127ZM47.6295 41.3615H4.05853V36.3839H47.6282L47.6295 41.3615ZM49.694 33.8528H1.99404V25.109C1.99404 24.3058 2.5085 23.6528 3.1426 23.6528H48.5468C49.1796 23.6528 49.6954 24.3058 49.6954 25.109L49.694 33.8528Z" fill="#C7A975"/>
</svg>
