<svg width="40" height="49" viewBox="0 0 40 49" fill="none" xmlns="http://www.w3.org/2000/svg">
<path d="M35.0346 31.9063C34.9977 31.8297 34.9588 31.7564 34.92 31.6916C34.5344 31.0231 33.9609 30.5812 33.3067 30.4477C32.6557 30.3143 31.9957 30.5045 31.4586 30.9829L24.3435 37.2835H16.9103C16.5596 37.2835 16.2739 36.9299 16.2739 36.4943C16.2739 36.0586 16.5596 35.705 16.9103 35.705H21.047C22.2752 35.705 23.2744 34.4659 23.2744 32.9426C23.2744 32.9339 23.2738 32.8613 23.2732 32.8535C23.2337 31.331 22.1983 30.144 20.9961 30.1803H12.7171C11.9833 30.1882 11.2686 30.5142 10.7054 31.0966L7.59336 34.3089C7.44823 34.4597 7.36426 34.6814 7.36426 34.9158V44.3868C7.36426 44.8233 7.64937 45.176 8.00064 45.176H23.7906C24.8241 45.1745 25.8309 44.723 26.6265 43.9061L34.3417 36.0003C35.3897 35.0743 35.6939 33.2764 35.0346 31.9063ZM33.5677 34.7491L25.8156 42.6898C25.2466 43.2739 24.5268 43.5958 23.7898 43.5974H8.63702V35.2858L11.5205 32.3087C11.8591 31.9591 12.2874 31.7633 12.7228 31.7586L21.0164 31.7578C21.544 31.757 21.9844 32.2519 22.0016 32.9425C22.0016 33.5952 21.5733 34.1264 21.047 34.1264H16.9103C15.8577 34.1264 15.0011 35.1888 15.0011 36.4942C15.0011 37.7996 15.8577 38.8619 16.9103 38.8619H24.5472C24.6796 38.8619 24.8087 38.8106 24.9182 38.7151L32.2 32.2662C32.4622 32.0325 32.781 31.9418 33.1005 32.0049C33.4193 32.0704 33.6981 32.285 33.8896 32.6165C33.9087 32.6489 33.9259 32.682 33.9424 32.7159C34.2645 33.3845 34.1149 34.2629 33.5677 34.7491Z" fill="#C7A975" stroke="#C7A975"/>
<path d="M7.98142 33.3371H1V34.9156H7.34496V46.7544H1V48.3329H7.98142C8.33268 48.3329 8.6178 47.9801 8.6178 47.5437V34.1263C8.6178 33.6899 8.33268 33.3371 7.98142 33.3371Z" fill="#C7A975" stroke="#C7A975"/>
<path d="M4.18216 40.4405C3.12956 40.4405 2.27295 41.5028 2.27295 42.8082C2.27295 44.1136 3.12956 45.176 4.18216 45.176C5.23476 45.176 6.09137 44.1136 6.09137 42.8082C6.09137 41.5028 5.23476 40.4405 4.18216 40.4405ZM4.18216 43.5974C3.83149 43.5974 3.54578 43.2439 3.54578 42.8082C3.54578 42.3726 3.83149 42.019 4.18216 42.019C4.53283 42.019 4.81854 42.3726 4.81854 42.8082C4.81854 43.2439 4.53283 43.5974 4.18216 43.5974Z" fill="#C7A975" stroke="#C7A975"/>
<path d="M38.5481 25.4447H1.63638C1.28512 25.4447 1 25.7975 1 26.2339C1 29.2796 2.99835 31.7586 5.45483 31.7586H34.7296C37.1854 31.7586 39.1844 29.2796 39.1844 26.2339C39.1845 25.7976 38.9 25.4447 38.5481 25.4447ZM34.7296 30.1802H5.45483C3.9179 30.1802 2.63239 28.8219 2.33705 27.0232H37.8473C37.5521 28.8219 36.2666 30.1802 34.7296 30.1802Z" fill="#C7A975" stroke="#C7A975"/>
<path d="M20.092 4.92419C10.9685 4.92419 3.54541 14.13 3.54541 25.4448V26.234C3.54541 26.6704 3.83053 27.0232 4.18179 27.0232H36.0022C36.3542 27.0232 36.6386 26.6704 36.6386 26.234V25.4448C36.6387 14.1299 29.2162 4.92419 20.092 4.92419ZM4.81825 25.4447C4.81825 15.0005 11.6704 6.50263 20.092 6.50263C28.5137 6.50263 35.3658 15.0005 35.3658 25.4447H4.81825Z" fill="#C7A975" stroke="#C7A975"/>
<path d="M9.62464 13.9272C9.17977 14.5476 8.76742 15.2114 8.39893 15.9011L9.45982 16.7732C9.79587 16.1449 10.1713 15.5396 10.576 14.9753L9.62464 13.9272Z" fill="#C7A975" stroke="#C7A975"/>
<path d="M20.0921 8.08118C16.518 8.08358 13.1151 9.75831 10.511 12.7946L11.3829 13.9445C13.7503 11.1837 16.8439 9.66202 20.0928 9.65971L20.0921 8.08118Z" fill="#C7A975" stroke="#C7A975"/>
<path d="M22.0015 0.978149H18.1831V2.5567H22.0015V0.978149Z" fill="#C7A975" stroke="#C7A975"/>
<path d="M20.7286 1.76721H19.4558V5.71344H20.7286V1.76721Z" fill="#C7A975" stroke="#C7A975"/>
</svg>
