<svg width="44" height="49" viewBox="0 0 44 49" fill="none" xmlns="http://www.w3.org/2000/svg">
<path d="M36.4545 37.7877H43.5729V39.1283C43.5729 44.0162 40.3716 47.8976 36.5429 47.8976H7.28007C3.45126 47.8976 0.25 44.0162 0.25 39.1283V37.7877H7.3684H8.08019L7.52473 37.3427C3.16071 33.8457 0.25 27.747 0.25 20.8045V12.2324H7.12096C7.14986 12.2324 7.1733 12.2329 7.19912 12.2334C7.21955 12.2339 7.24147 12.2344 7.26879 12.2347L7.45248 12.2366L7.50921 12.0619C7.51504 12.0439 7.52073 12.0263 7.52634 12.0089C7.53942 11.9684 7.55207 11.9292 7.56513 11.8901L10.198 4.01562L16.5177 7.25884C16.5499 7.27536 16.5817 7.29228 16.6152 7.31006C16.6281 7.3169 16.6413 7.32388 16.6548 7.33101L16.8386 7.42811L16.9676 7.26514C16.9872 7.24039 17.0025 7.22049 17.0169 7.20188C17.0343 7.17927 17.0503 7.15854 17.0707 7.13327L16.8762 6.97625L17.0707 7.13327L21.9114 1.13601L26.7522 7.13316C26.7726 7.15845 26.7886 7.17918 26.8061 7.20178C26.8204 7.2204 26.8358 7.24028 26.8554 7.26504L26.9844 7.428L27.1682 7.3309C27.183 7.32307 27.1973 7.31547 27.2113 7.30805C27.2435 7.29088 27.2741 7.27466 27.3052 7.25871L27.3052 7.25869L33.625 4.01551L36.2578 11.89L36.2578 11.8903C36.2713 11.9303 36.2843 11.9706 36.2977 12.0123C36.303 12.0286 36.3083 12.045 36.3137 12.0618L36.3704 12.2365L36.5541 12.2346C36.5815 12.2343 36.6034 12.2338 36.6238 12.2333C36.6496 12.2328 36.6731 12.2322 36.702 12.2322H43.5729V20.8044C43.5729 27.7469 40.6621 33.8456 36.2982 37.3427L35.7428 37.7877H36.4545ZM32.6172 7.73744L32.5249 7.46141L32.266 7.59429L28.6521 9.44881L28.421 9.56744L28.5484 9.79387C29.221 10.9885 29.7873 12.2724 30.2312 13.6191L30.3234 13.8989L30.5845 13.7623C31.6468 13.2066 32.7669 12.7914 33.9299 12.5347L34.2012 12.4749L34.1131 12.2113L32.6172 7.73744ZM22.106 5.07987L21.9114 4.83886L21.7169 5.07987L18.4973 9.06863C17.1444 10.7447 16.0895 12.7581 15.4056 14.9453L15.3538 15.1108L15.4907 15.2173C18.216 17.3374 20.3931 20.4628 21.6751 24.1812L21.9114 24.8668L22.1478 24.1812C23.4297 20.4628 25.6069 17.3374 28.3322 15.2173L28.4691 15.1108L28.4173 14.9453C27.7333 12.7581 26.6785 10.7447 25.3256 9.06863L22.106 5.07987ZM11.5569 7.59429L11.2979 7.4614L11.2056 7.73744L9.70975 12.2113L9.62163 12.4749L9.893 12.5347C11.056 12.7913 12.176 13.2066 13.2384 13.7623L13.4994 13.8989L13.5917 13.6191C14.0355 12.2725 14.6019 10.9885 15.2744 9.79398L15.4019 9.56756L15.1707 9.44892L11.5569 7.59429ZM2.56775 14.9134H2.31775V15.1634V20.8044C2.31775 30.1165 8.44134 37.7876 16.0744 37.7876H20.6276H20.8776V37.5376V31.8967C20.8776 22.5845 14.754 14.9134 7.12087 14.9134H2.56775ZM41.3211 40.7746L41.3911 40.4688H41.0774H2.74552H2.43185L2.50182 40.7746C3.07933 43.2985 4.97477 45.2163 7.28007 45.2163H36.5429C38.8482 45.2163 40.7435 43.2985 41.3211 40.7746ZM22.9453 37.5376V37.7876H23.1953H27.7484C35.3815 37.7876 41.5051 30.1165 41.5051 20.8044V15.1634V14.9134H41.2551H36.702C29.0689 14.9134 22.9453 22.5845 22.9453 31.8967V37.5376Z" fill="#C7A975" stroke="#C7A975" stroke-width="0.5"/>
</svg>
