<svg width="38" height="37" viewBox="0 0 38 37" fill="none" xmlns="http://www.w3.org/2000/svg">
<path d="M37.2639 15.6681V8.97353H31.3774C31.3358 8.97353 31.2945 8.9749 31.2531 8.9753C31.2375 8.93128 31.2221 8.88679 31.2062 8.84342L28.9535 2.65846L23.5152 5.22034C23.4769 5.23837 23.4382 5.25752 23.3997 5.27619C23.3707 5.24255 23.3426 5.20803 23.3133 5.17472L19.1508 0.440971L14.9883 5.1748C14.9591 5.20811 14.9309 5.24263 14.9019 5.27627C14.8634 5.2576 14.8247 5.23853 14.7865 5.2205L9.34808 2.65854L7.09532 8.8435C7.07954 8.88687 7.06412 8.93137 7.04855 8.97538C7.00709 8.97498 6.96577 8.97361 6.92417 8.97361H1.0376V15.6682C1.0376 20.9868 3.46646 25.6721 7.12872 28.366H1.0376V29.573C1.0376 33.3468 3.73731 36.4171 7.0557 36.4171H31.2459C34.5642 36.4171 37.264 33.3468 37.264 29.573V28.366H31.1729C34.8351 25.672 37.2639 20.9867 37.2639 15.6681ZM27.8048 5.81257L29.0413 9.20753C28.0613 9.40604 27.1182 9.7271 26.2246 10.1562C25.8536 9.12288 25.38 8.13732 24.8174 7.21985L27.8048 5.81257ZM19.1508 3.85491L21.8123 6.88173C22.9131 8.13362 23.7733 9.63987 24.3316 11.2786C22.0436 12.9125 20.2221 15.3163 19.1508 18.1687C18.0795 15.3163 16.2579 12.9125 13.9699 11.2786C14.5282 9.63987 15.3885 8.13362 16.4893 6.88173L19.1508 3.85491ZM10.4968 5.81257L13.4842 7.21993C12.9215 8.13732 12.448 9.12296 12.0769 10.1562C11.1833 9.7271 10.2402 9.40596 9.2602 9.20753L10.4968 5.81257ZM3.16024 15.6681V11.3875H6.9241C13.0807 11.3875 18.0895 17.0837 18.0895 24.0853V28.3659H14.3256C8.16895 28.3659 3.16024 22.6697 3.16024 15.6681ZM34.9944 30.7799C34.5312 32.638 33.0261 34.003 31.2459 34.003H7.0557C5.27551 34.003 3.77035 32.638 3.30719 30.7799H34.9944ZM23.976 28.3659H20.2121V24.0853C20.2121 17.0837 25.2208 11.3875 31.3774 11.3875H35.1413V15.6681C35.1413 22.6697 30.1326 28.3659 23.976 28.3659Z" fill="#C09B5A" stroke="#756354" stroke-width="0.5"/>
</svg>
