<svg width="35" height="31" viewBox="0 0 35 31" fill="none" xmlns="http://www.w3.org/2000/svg">
<path d="M33.6772 5.78887L32.0557 4.32359C31.8733 4.1587 31.6259 4.06607 31.3678 4.06607H30.1268C29.9922 2.07415 28.1572 0.490707 25.9197 0.490707H8.79709C6.55967 0.490707 4.72463 2.07415 4.59005 4.06607H3.34898C3.09091 4.06607 2.84347 4.1587 2.66109 4.32359L1.03963 5.78887C0.857115 5.95376 0.754639 6.17738 0.754639 6.41055V10.8064C0.754639 11.292 1.19023 11.6856 1.72752 11.6856C2.2648 11.6856 2.70039 11.292 2.70039 10.8064V6.7747L3.75194 5.82441H4.58129V25.4595C4.58129 26.1034 5.0436 26.6513 5.68388 26.8474V29.0055C5.68388 29.8135 6.41127 30.4708 7.30535 30.4708H10.3537C11.2478 30.4708 11.9752 29.8135 11.9752 29.0055V26.9248H22.7417V29.0055C22.7417 29.8135 23.4691 30.4708 24.3631 30.4708H27.4115C28.3056 30.4708 29.0329 29.8135 29.0329 29.0055V26.8474C29.6732 26.6514 30.1355 26.1036 30.1355 25.4595V5.82441H30.9649L32.0164 6.7747V10.8064C32.0164 11.292 32.452 11.6856 32.9893 11.6856C33.5266 11.6856 33.9622 11.292 33.9622 10.8064V6.41055C33.9622 6.17738 33.8597 5.95376 33.6772 5.78887ZM28.1898 25.1664H24.5274L24.916 24.0661L28.1898 23.5533V25.1664ZM12.2319 25.1664L11.4751 23.0236C11.3648 22.7114 11.0717 22.4806 10.7144 22.4246L6.52704 21.7686V18.232C10.6391 18.8817 24.0854 18.8805 28.1898 18.232V21.7686L24.0024 22.4246C23.6451 22.4805 23.352 22.7114 23.2417 23.0235L22.4849 25.1664H12.2319V25.1664ZM6.52704 25.1664V23.5533L9.80084 24.0661L10.1895 25.1664H6.52704ZM8.79709 2.24905H25.9197C27.1714 2.24905 28.1898 3.1693 28.1898 4.30046V16.4443C24.7581 17.1327 9.95657 17.1322 6.52704 16.4443V4.30052C6.52704 3.1693 7.54539 2.24905 8.79709 2.24905ZM7.62964 28.7125V26.9248H10.0294V28.7125H7.62964ZM24.6874 28.7125V26.9248H27.0872V28.7125H24.6874Z" fill="#C09B5A" stroke="#756353" stroke-width="0.5"/>
</svg>
