<svg width="37" height="37" viewBox="0 0 37 37" fill="none" xmlns="http://www.w3.org/2000/svg">
<path d="M1.23314 32.1437L2.50199 33.1767C3.23107 33.7706 4.15054 33.7777 4.88502 33.1942C4.88503 33.1942 4.88504 33.1942 4.88505 33.1942L6.41422 31.98L6.41425 31.98C7.73673 30.9294 9.36517 30.9414 10.6798 32.012L12.1101 33.1767L12.2048 33.0604L12.1101 33.1767C12.2205 33.2665 12.3349 33.3411 12.4513 33.4036L12.6723 33.5224V33.2715V8.53821C12.6723 6.34886 13.33 4.36945 14.3848 2.94088C15.4396 1.5122 16.8838 0.642699 18.4626 0.642699H20.1852V3.33435H18.4626C17.3748 3.33435 16.4011 3.93389 15.7046 4.87715C15.0081 5.82052 14.5812 7.11595 14.5812 8.53821V10.9837V11.1337H14.7312H23.9953H24.1453V10.9837V8.53821C24.1453 6.34886 24.803 4.36945 25.8577 2.94088C26.9125 1.5122 28.3566 0.642699 29.9352 0.642699H31.6581V3.33435H29.9355C28.8478 3.33435 27.874 3.93389 27.1775 4.87715C26.481 5.82052 26.0541 7.11595 26.0541 8.53821V31.4309V31.6762L26.2724 31.5645C27.4524 30.9608 28.7845 31.1067 29.896 32.012L29.896 32.012L31.3265 33.1767C32.0556 33.7706 32.9751 33.7777 33.7096 33.1942C33.7096 33.1942 33.7096 33.1942 33.7096 33.1942L35.087 32.1005L36.0807 34.3961L34.6404 35.54C33.3187 36.5894 31.6917 36.5778 30.3777 35.508L28.9474 34.3433C28.2171 33.7486 27.2968 33.7415 26.5612 34.3258L25.0323 35.54C23.7106 36.5894 22.0836 36.5778 20.7696 35.508L19.3393 34.3433C18.6091 33.7486 17.6884 33.7415 16.9528 34.3258L15.4239 35.54C14.7667 36.0619 14.0372 36.3188 13.3127 36.3188C12.5726 36.3188 11.8283 36.0511 11.1615 35.508L11.0668 35.6243L11.1615 35.508L9.73094 34.3433C9.00097 33.7486 8.08033 33.7415 7.34473 34.3258L5.81581 35.54C4.49417 36.5894 2.86716 36.5778 1.55338 35.508L1.45866 35.6243L1.55337 35.508L0.221214 34.4234L1.23314 32.1437ZM20.2879 32.012L20.2879 32.012L21.7185 33.1767C21.7185 33.1767 21.7185 33.1767 21.7185 33.1767C22.4428 33.7667 23.3551 33.7774 24.0877 33.2046L24.1453 33.1596V33.0865V24.6803V24.5303H23.9953H14.7312H14.5812V24.6803V32.8138V33.1245L14.8244 32.9313L16.0223 31.98L16.0223 31.98C17.3448 30.9294 18.9733 30.9414 20.2879 32.012ZM24.145 13.9754V13.8254H23.995H14.7312H14.5812V13.9754V21.6886V21.8386H14.7312H23.995H24.145V21.6886V13.9754Z" fill="#C09B5A" stroke="#C09B5A" stroke-width="0.3"/>
</svg>
